<svg xmlns="http://www.w3.org/2000/svg" viewBox="0 0 51.95 51.95"><defs><style>.cls-1{fill:#f0c433;}.cls-2{fill:#8dc7be;}.cls-3{fill:#56308d;}</style></defs><title>Ресурс 1</title><g id="Слой_2" data-name="Слой 2"><g id="Layer_1" data-name="Layer 1"><rect class="cls-1" x="41.22" y="14.17" width="6.01" height="6.01"/><path class="cls-2" d="M20.66,2.75c.45.34,13.29,0,13.29,0l1.47,9.06L41.05,22l3.18,13.44L42.5,42.5H37.78v4.73l-5.34,1.64H17.33L7.08,36.48,2.36,33.06V18.89L14.17,9.45Z"/><path class="cls-3" d="M18.89,28.34h4.72V23.61H18.89Zm-4.72,0h4.72V23.61H14.17ZM9.45,42.5h4.72V37.78H9.45Zm4.72,4.73h4.72V42.5H14.17Zm0-4.73h4.72V37.78H14.17ZM9.45,37.78h4.72V33.06H9.45ZM33.06,18.89h4.72V14.17H33.06Zm-4.72-4.72h4.72V9.45H28.34Zm4.72-4.72h4.72V4.72H33.06Zm0,4.72h4.72V9.45H33.06Zm4.72,4.72h4.73V14.17H37.78Zm0-4.72h4.73V9.45H37.78Zm0,18.89h4.73V28.34H37.78Zm0-4.72h4.73V23.61H37.78Zm4.72,0h4.73V23.61H42.5Zm0,4.72h4.73V28.34H42.5Zm0,4.72h4.73V33.06H42.5Zm-4.72,0h4.73V33.06H37.78Zm-4.72-4.72h4.72V28.34H33.06Zm0-4.72h4.72V23.61H33.06Zm4.72-4.73h4.73V18.89H37.78Zm4.72,0h4.73V18.89H42.5ZM4.72,37.78H9.45V33.06H4.72ZM9.45,14.17h4.72V9.45H9.45Zm4.72-4.72h4.72V4.72H14.17Zm4.72,0h4.72V4.72H18.89Zm-4.72,4.72h4.72V9.45H14.17Zm0,4.72h4.72V14.17H14.17Zm-9.45,0H9.45V14.17H4.72Zm4.73,0h4.72V14.17H9.45Zm0,4.72h4.72V18.89H9.45Zm4.72,0h4.72V18.89H14.17Zm-9.45,0H9.45V18.89H4.72ZM37.78,9.45h4.73V4.72H37.78Zm4.72,4.72h4.73V9.45H42.5Zm4.73,4.72H52V14.17H47.23Zm0,4.72H52V18.89H47.23Zm0,4.73H52V23.61H47.23Zm0,4.72H52V28.34H47.23Zm0,4.72H52V33.06H47.23ZM42.5,42.5h4.73V37.78H42.5Zm-4.72,4.73h4.73V42.5H37.78ZM33.06,52h4.72V47.23H33.06Zm-4.72,0h4.72V47.23H28.34Zm-4.73,0h4.73V47.23H23.61Zm-4.72,0h4.72V47.23H18.89Zm-4.72,0h4.72V47.23H14.17ZM9.45,47.23h4.72V42.5H9.45ZM4.72,42.5H9.45V37.78H4.72ZM0,37.78H4.72V33.06H0Zm0-4.72H4.72V28.34H0Zm0-4.72H4.72V23.61H0Zm0-4.73H4.72V18.89H0Zm0-4.72H4.72V14.17H0Zm4.72-4.72H9.45V9.45H4.72ZM9.45,9.45h4.72V4.72H9.45Zm4.72-4.73h4.72V0H14.17Zm4.72,0h4.72V0H18.89Zm4.72,0h4.73V0H23.61Zm4.73,0h4.72V0H28.34Zm4.72,0h4.72V0H33.06Z"/></g></g></svg>