<svg xmlns="http://www.w3.org/2000/svg" viewBox="0 0 79.97 55.87"><defs><style>.cls-1{fill:#56308d;}.cls-2{fill:#f0c430;}.cls-3{fill:#8dc7be;}</style></defs><title>Ресурс 1</title><g id="Слой_2" data-name="Слой 2"><g id="Layer_1" data-name="Layer 1"><rect class="cls-1" x="7.28" y="45.18" width="5.95" height="8.56"/><rect class="cls-1" x="19.19" y="32.69" width="5.95" height="21.05"/><rect class="cls-1" x="30.78" y="41.89" width="5.95" height="11.85"/><rect class="cls-1" x="42.68" y="19.25" width="5.95" height="34.48"/><rect class="cls-1" x="54.66" y="1.5" width="5.95" height="52.23"/><rect class="cls-2" y="46.34" width="3.56" height="3.57"/><rect class="cls-2" x="41.49" y="26.79" width="4.58" height="2.75"/><rect class="cls-2" x="48.63" y="36.57" width="5.33" height="5.13"/><rect class="cls-2" x="53.96" y="41.7" width="5.13" height="3.34"/><rect class="cls-2" x="37.92" y="35.65" width="3.56" height="3.56"/><rect class="cls-2" x="41.49" y="39.21" width="3.57" height="3.56"/><rect class="cls-2" x="37.92" y="42.78" width="3.56" height="3.56"/><rect class="cls-2" x="34.36" y="46.34" width="3.56" height="3.57"/><rect class="cls-2" x="30.79" y="28.52" width="3.56" height="3.56"/><rect class="cls-2" x="34.36" y="39.21" width="3.56" height="3.56"/><rect class="cls-2" x="23.66" y="46.34" width="3.56" height="3.57"/><rect class="cls-2" x="16.53" y="46.34" width="3.56" height="3.57"/><rect class="cls-2" x="12.97" y="42.78" width="3.56" height="3.56"/><rect class="cls-2" x="27.23" y="39.21" width="3.56" height="3.56"/><rect class="cls-2" x="30.79" y="35.65" width="3.56" height="3.56"/><rect class="cls-2" x="34.36" y="32.08" width="3.56" height="3.57"/><rect class="cls-2" x="43.5" y="31.37" width="5.13" height="5.13"/><rect class="cls-2" x="37.92" y="28.52" width="3.56" height="3.56"/><rect class="cls-2" x="48.63" y="26.3" width="5.33" height="5.13"/><rect class="cls-2" x="59.09" y="26.3" width="5.13" height="5.13"/><rect class="cls-2" x="53.96" y="21.17" width="5.13" height="5.13"/><rect class="cls-2" x="48.63" y="19.54" width="5.33" height="1.63"/><rect class="cls-2" x="59.31" y="14.26" width="3.57" height="3.56"/><rect class="cls-2" x="62.87" y="17.82" width="3.56" height="3.57"/><rect class="cls-2" x="70" y="21.39" width="3.57" height="3.56"/><rect class="cls-2" x="66.44" y="14.26" width="3.56" height="3.56"/><rect class="cls-2" x="59.31" y="7.13" width="3.57" height="3.56"/><rect class="cls-2" x="59.31" width="3.57" height="3.56"/><rect class="cls-2" x="52.18" y="7.13" width="3.57" height="3.56"/><rect class="cls-2" x="53.96" y="31.44" width="5.13" height="5.13"/><path class="cls-3" d="M46.09,19.54h4.83V22H46.09Zm14.5-2.41H50.92v2.41h9.67Zm-9.66,29H60.6V43.75H50.93Zm14.5-26.61H60.6V22h4.83ZM80,48.59v4.85H77.55v2.41H75.13v0H72.71V53.44H70.29V51H67.87V48.6H65.45V46.16H63V43.75H60.62V41.34h4.83V38.92h0V36.48h2.41v2.44h2.42v2.42h2.42v2.41h2.42v2.41h2.42v2.42ZM46.06,22H43.65v4.83h2.41ZM70.29,26.8H67.88v9.68h2.41V26.8ZM67.86,22H65.45V26.8h2.41ZM46.09,43.75h4.83V41.34H46.09Zm-2.42-2.42h2.41V36.5H43.67Zm-2.42-4.85h2.41V26.8H41.25Z"/></g></g></svg>