<svg xmlns="http://www.w3.org/2000/svg" viewBox="0 0 69.18 52.56"><defs><style>.cls-1{fill:#f0c430;}.cls-2{fill:#8dc7be;}.cls-3{fill:#56308d;}</style></defs><title>sdfs</title><g id="Слой_2" data-name="Слой 2"><g id="Layer_1" data-name="Layer 1"><polygon class="cls-1" points="4.9 24.67 4.89 17.3 2.34 17.3 2.48 4.92 4.93 4.94 4.92 2.49 22.2 2.49 22.18 4.94 24.66 4.94 24.66 17.23 22.31 17.36 22.17 24.67 17.12 24.67 17.15 16.59 19.63 17.23 19.63 7.38 17.89 7.41 17.89 9.93 14.8 9.93 14.8 12.34 11.65 12.34 11.65 9.84 9.78 9.84 9.81 7.41 7.37 7.41 7.37 16.59 9.87 16.62 9.87 24.67 4.9 24.67"/><polygon class="cls-2" points="12.24 24.67 12.33 17.27 9.81 17.27 9.81 12.29 12.33 12.29 12.33 14.8 14.78 14.79 14.78 12.29 17.23 12.29 17.23 17.27 14.77 17.24 14.78 24.67 12.24 24.67"/><path class="cls-3" d="M2.46,4.93H0V17.25H2.46ZM4.92,2.46H2.46V4.93H4.92Zm0,14.79H2.46v7.39H4.92ZM22.18,0H4.92V2.46H22.18ZM9.86,12.32h2.46V9.86H9.86V7.39H7.39v9.86H9.86Zm4.92,0H12.32v2.47h2.46ZM7.39,34.5V37H9.86v2.47h7.39V37h2.46V34.5Zm9.86-17.25h2.46V7.39H17.25V9.86H14.78v2.46h2.47Zm0,7.39V17.25H14.78v7.39H12.32V17.25H9.86v7.39H4.92v2.47H22.18V24.64ZM4.92,32H22.18V29.57H4.92ZM24.64,2.46H22.17V4.93h2.47ZM22.18,24.64h2.46V17.25H22.18Zm4.92-7.39H24.64V4.93H27.1Z"/><polygon class="cls-1" points="47.96 40.97 42.15 40.97 42.15 37.14 38.3 37.14 38.3 33.31 34.44 33.31 34.5 17.86 38.3 17.86 38.32 13.98 42.15 13.98 42.18 10.1 57.57 10.1 57.57 13.98 61.45 13.98 61.45 17.84 65.37 17.86 65.37 33.28 61.45 33.28 61.48 37.17 57.6 37.11 57.66 40.97 51.76 40.99 51.76 29.41 55.67 29.41 55.62 25.55 44.16 25.55 44.08 29.41 47.93 29.41 47.96 40.97"/><polygon class="cls-3" points="51.83 40.98 51.83 37.13 51.83 33.27 51.83 29.41 55.69 29.41 55.69 25.56 51.83 25.56 47.97 25.56 44.12 25.56 44.12 29.41 47.97 29.41 47.97 33.27 47.97 37.13 47.97 40.98 46.05 40.98 42.19 40.98 42.19 44.84 42.19 48.7 42.19 52.55 46.05 52.55 49.9 52.55 53.76 52.55 57.61 52.55 57.61 48.7 57.61 44.84 57.61 40.98 53.76 40.98 51.83 40.98"/><rect class="cls-3" x="38.33" y="37.13" width="3.86" height="3.86"/><rect class="cls-3" x="34.47" y="33.27" width="3.86" height="3.86"/><polygon class="cls-3" points="34.47 25.56 34.47 21.7 34.47 17.84 30.62 17.84 30.62 21.7 30.62 25.56 30.62 29.41 30.62 33.27 34.47 33.27 34.47 29.41 34.47 25.56"/><rect class="cls-3" x="34.47" y="13.99" width="3.86" height="3.86"/><rect class="cls-3" x="38.33" y="10.13" width="3.86" height="3.86"/><rect class="cls-3" x="57.61" y="37.13" width="3.86" height="3.86"/><rect class="cls-3" x="61.47" y="33.27" width="3.86" height="3.86"/><polygon class="cls-3" points="65.33 17.84 65.33 21.7 65.33 25.56 65.33 29.41 65.33 33.27 69.18 33.27 69.18 29.41 69.18 25.56 69.18 21.7 69.18 17.84 65.33 17.84"/><rect class="cls-3" x="61.47" y="13.99" width="3.86" height="3.86"/><rect class="cls-3" x="57.61" y="10.13" width="3.86" height="3.86"/><polygon class="cls-3" points="49.9 10.13 53.76 10.13 57.61 10.13 57.61 6.27 53.76 6.27 49.9 6.27 46.04 6.27 42.19 6.27 42.19 10.13 46.04 10.13 49.9 10.13"/></g></g></svg>