<svg xmlns="http://www.w3.org/2000/svg" viewBox="0 0 56.51 59.61"><defs><style>.cls-1{fill:#f0c430;}.cls-2{fill:#fff;}.cls-3{fill:#8dc7be;}.cls-4{fill:#56308d;}</style></defs><title>2</title><g id="Слой_2" data-name="Слой 2"><g id="Layer_1" data-name="Layer 1"><rect class="cls-1" x="32.27" y="3.88" width="3.88" height="3.88"/><rect class="cls-1" x="36.15" y="7.76" width="3.88" height="3.88"/><rect class="cls-1" x="52.35" width="3.88" height="19.41"/><rect class="cls-1" x="32.27" y="11.64" width="3.88" height="3.88"/><rect class="cls-1" x="36.15" y="15.53" width="3.88" height="3.88"/><rect class="cls-1" x="40.13" y="19.41" width="3.88" height="3.88"/><rect class="cls-1" x="44.01" y="15.53" width="8.62" height="3.88"/><rect class="cls-1" x="36.15" width="16.48" height="3.88"/><rect class="cls-1" x="32.27" y="19.41" width="3.88" height="3.88"/><rect class="cls-2" x="32.54" y="30.26" width="3.88" height="3.88"/><rect class="cls-1" x="36.42" y="34.14" width="3.88" height="3.88"/><rect class="cls-1" x="52.63" y="26.38" width="3.88" height="19.41"/><rect class="cls-2" x="32.54" y="38.02" width="3.88" height="3.88"/><rect class="cls-1" x="36.42" y="41.9" width="3.88" height="3.88"/><rect class="cls-1" x="40.41" y="45.78" width="3.88" height="3.88"/><rect class="cls-1" x="44.29" y="41.9" width="8.62" height="3.88"/><rect class="cls-1" x="36.42" y="26.38" width="16.48" height="3.88"/><rect class="cls-2" x="32.54" y="45.78" width="3.88" height="3.88"/><rect class="cls-1" y="3.88" width="3.88" height="3.88"/><rect class="cls-1" x="3.88" y="7.76" width="3.88" height="3.88"/><rect class="cls-1" x="20.09" width="3.88" height="19.41"/><rect class="cls-1" y="11.64" width="3.88" height="3.88"/><rect class="cls-1" x="3.88" y="15.53" width="3.88" height="3.88"/><rect class="cls-1" x="7.86" y="19.41" width="3.88" height="3.88"/><rect class="cls-1" x="11.75" y="15.53" width="8.62" height="3.88"/><rect class="cls-1" x="3.88" width="16.48" height="3.88"/><rect class="cls-1" y="19.41" width="3.88" height="3.88"/><rect class="cls-1" x="0.27" y="30.26" width="3.88" height="3.88"/><rect class="cls-1" x="4.16" y="34.14" width="3.88" height="3.88"/><rect class="cls-2" x="20.36" y="26.38" width="3.88" height="19.41"/><rect class="cls-1" x="0.27" y="38.02" width="3.88" height="3.88"/><rect class="cls-1" x="4.16" y="41.9" width="3.88" height="3.88"/><rect class="cls-1" x="8.14" y="45.78" width="3.88" height="3.88"/><rect class="cls-2" x="12.02" y="41.9" width="8.62" height="3.88"/><rect class="cls-1" x="4.16" y="26.38" width="16.48" height="3.88"/><rect class="cls-1" x="0.27" y="45.78" width="3.88" height="3.88"/><polygon class="cls-3" points="9.21 29.94 11.75 23.29 20.36 19.41 30.57 22.72 35.15 27.65 35.15 38.27 32.42 43.84 26.09 47.72 17.96 47.44 11.19 43.27 9.21 29.94"/><polygon class="cls-3" points="32.54 45.78 34.48 43.38 38.76 44.01 44.07 50.15 48.06 53.8 48.38 56.09 45.29 58.83 42.35 57.77 34.87 50.22 32.72 47.73 32.54 45.78"/><path class="cls-4" d="M47.17,55.92H45.33v1.85H43.48V55.92H41.64V54.09H39.79V52.23H38V50.4H36.11V48.55H34.26V44.86H38v1.85H39.8v1.84h1.84V50.4h1.84v1.83h1.85v1.86h1.84v1.83ZM32.42,30.1v9.23H30.57V43H26.88v1.84H17.65V43H14V39.33H12.12V28.25H14V24.56h3.69V22.72h9.23v1.84h3.69v3.69h1.85ZM47.17,52.23V50.4H45.33V48.55H43.48V46.71H41.64V44.86H39.79V43H38V26.41H36.11V22.72H34.26V20.87H30.57V19H28.73V17.18H15.81V19H14v1.83H10.28v1.85H8.43v3.69H6.58V41.17H8.43v3.69h1.85v1.85H14v1.84h1.85V50.4H28.73V48.55h3.69V50.4h1.84v1.83h1.85v1.86H38v1.83H39.8v1.85h1.84v1.84h5.53V57.77H49V52.23Z"/><polygon class="cls-4" points="28.73 28.25 28.73 26.41 26.88 26.41 25.03 26.41 25.03 24.56 23.19 24.56 21.34 24.56 19.5 24.56 19.5 26.41 17.65 26.41 15.81 26.41 15.81 28.25 15.81 30.1 13.96 30.1 13.96 31.94 13.96 33.79 13.96 35.63 13.96 37.48 15.81 37.48 15.81 39.33 15.81 41.17 17.65 41.17 19.5 41.17 19.5 43.02 21.34 43.02 23.19 43.02 25.03 43.02 25.03 41.17 26.88 41.17 28.73 41.17 28.73 39.33 28.73 37.48 30.57 37.48 30.57 35.63 30.57 33.79 30.57 31.94 30.57 30.1 28.73 30.1 28.73 28.25"/></g></g></svg>