<svg xmlns="http://www.w3.org/2000/svg" viewBox="0 0 54.9 63.08"><defs><style>.cls-1{fill:#f0c430;}.cls-2{fill:#56308d;}.cls-3{fill:#8dc7be;}.cls-4{fill:#fff;}</style></defs><title>sdfsdf</title><g id="Слой_2" data-name="Слой 2"><g id="Layer_1" data-name="Layer 1"><polygon class="cls-1" points="22.1 48.91 22.1 42.74 18.53 42.74 18.53 39.15 14.97 39.15 14.97 32.96 11.4 32.96 11.4 20.57 14.97 20.57 14.97 15.31 21.16 15.31 21.16 11.75 33.72 11.75 33.72 15.31 39.94 15.31 39.94 20.57 43.48 20.57 43.48 32.96 39.91 32.96 39.94 39.15 36.37 39.15 36.37 42.72 32.8 42.74 32.8 48.91 22.1 48.91"/><polygon class="cls-2" points="29.53 11.75 33.72 11.75 33.72 8.18 29.53 8.18 25.35 8.18 21.16 8.18 21.16 11.75 25.35 11.75 29.53 11.75"/><polygon class="cls-2" points="19.09 15.31 21.16 15.31 21.16 11.75 19.09 11.75 17.03 11.75 14.97 11.75 14.97 15.31 17.03 15.31 19.09 15.31"/><polygon class="cls-2" points="37.85 15.31 39.91 15.31 39.91 11.75 37.85 11.75 35.78 11.75 33.72 11.75 33.72 15.31 35.78 15.31 37.85 15.31"/><rect class="cls-2" x="11.4" y="15.31" width="3.57" height="5.25"/><rect class="cls-2" x="11.4" y="32.96" width="3.57" height="6.19"/><rect class="cls-2" x="39.93" y="32.96" width="3.57" height="6.19"/><rect class="cls-2" x="18.53" y="42.72" width="3.57" height="6.19"/><rect class="cls-2" x="32.8" y="42.72" width="3.57" height="6.19"/><rect class="cls-2" x="39.91" y="15.31" width="3.57" height="5.25"/><rect class="cls-2" x="7.83" y="20.57" width="3.57" height="12.39"/><rect class="cls-2" x="43.48" y="20.57" width="3.57" height="12.39"/><rect class="cls-2" x="14.97" y="39.15" width="3.57" height="3.57"/><rect class="cls-2" x="36.37" y="39.15" width="3.57" height="3.57"/><rect class="cls-2" x="25.67" y="59.52" width="3.57" height="3.57"/><rect class="cls-2" x="22.1" y="48.91" width="10.7" height="3.57"/><rect class="cls-2" x="22.1" y="55.95" width="10.7" height="3.57"/><rect class="cls-3" x="42.07" y="14.95" width="4.28" height="2.14"/><rect class="cls-3" x="44.21" y="36.31" width="2.14" height="2.14"/><rect class="cls-3" x="44.21" y="10.68" width="2.14" height="2.14"/><rect class="cls-3" x="42.07" y="8.54" width="2.14" height="2.14"/><rect class="cls-3" x="39.91" y="10.68" width="2.14" height="2.14"/><rect class="cls-3" x="32.9" y="9.61" width="3.41" height="2.14"/><rect class="cls-3" x="4.28" y="6.41" width="2.14" height="2.14"/><rect class="cls-3" x="0.01" y="6.42" width="2.14" height="2.14"/><rect class="cls-3" x="12.82" y="6.41" width="2.14" height="2.14"/><rect class="cls-3" x="17.09" y="6.41" width="2.14" height="2.14"/><rect class="cls-3" x="21.36" y="4.3" width="2.14" height="2.14"/><rect class="cls-3" x="25.64" y="4.3" width="2.14" height="2.14"/><rect class="cls-3" x="23.5" y="6.44" width="2.14" height="2.14"/><rect class="cls-3" x="29.91" y="4.3" width="2.14" height="2.14"/><rect class="cls-3" x="27.77" y="6.44" width="2.14" height="2.14"/><rect class="cls-3" x="34.18" y="4.3" width="2.14" height="2.14"/><rect class="cls-3" x="38.45" y="4.3" width="2.14" height="2.14"/><rect class="cls-3" x="21.36" width="2.14" height="2.14"/><rect class="cls-3" x="29.91" width="2.14" height="2.14"/><rect class="cls-3" x="38.45" width="2.14" height="2.14"/><rect class="cls-3" x="12.83" width="2.14" height="2.14"/><rect class="cls-3" x="8.55" y="2.14" width="2.14" height="2.14"/><rect class="cls-3" x="44.21" y="6.44" width="2.14" height="2.14"/><rect class="cls-3" x="44.22" y="2.14" width="2.14" height="2.14"/><rect class="cls-3" x="36.31" y="6.44" width="2.14" height="2.14"/><rect class="cls-3" x="39.93" y="40.58" width="2.14" height="2.14"/><rect class="cls-3" x="42.07" y="44.85" width="2.14" height="2.14"/><rect class="cls-3" x="37.8" y="44.85" width="2.14" height="2.14"/><rect class="cls-3" x="44.21" y="40.58" width="2.14" height="2.14"/><rect class="cls-3" x="42.07" y="38.45" width="2.14" height="2.14"/><rect class="cls-3" x="42.07" y="34.16" width="2.14" height="2.14"/><rect class="cls-3" x="48.48" y="36.31" width="2.14" height="2.14"/><rect class="cls-3" x="46.34" y="34.16" width="2.14" height="2.14"/><rect class="cls-3" x="46.34" y="21.34" width="2.14" height="2.14"/><rect class="cls-3" x="48.48" y="6.41" width="2.14" height="2.14"/><rect class="cls-3" x="52.76" y="10.68" width="2.14" height="2.14"/><rect class="cls-3" x="48.48" y="19.21" width="2.14" height="2.14"/><rect class="cls-3" x="46.34" y="17.07" width="2.14" height="2.14"/><rect class="cls-3" x="48.48" y="14.93" width="2.14" height="2.14"/><rect class="cls-3" x="48.48" y="23.48" width="2.14" height="2.14"/><rect class="cls-3" x="52.75" y="25.7" width="2.14" height="2.14"/><rect class="cls-3" x="48.48" y="27.75" width="2.14" height="2.14"/><rect class="cls-3" x="46.34" y="25.61" width="2.14" height="2.14"/><rect class="cls-3" x="44.21" y="32.02" width="2.14" height="2.14"/><rect class="cls-3" x="48.48" y="32.02" width="2.14" height="2.14"/><rect class="cls-3" x="46.34" y="29.89" width="2.14" height="2.14"/><rect class="cls-3" x="52.75" y="32.02" width="2.14" height="2.14"/><rect class="cls-2" x="22.1" y="26.76" width="3.57" height="15.98"/><rect class="cls-2" x="29.23" y="26.76" width="3.57" height="15.98"/><rect class="cls-2" x="25.67" y="23.2" width="3.57" height="3.57"/><rect class="cls-3" x="4.29" y="36.31" width="2.14" height="2.14"/><rect class="cls-3" x="2.14" y="21.34" width="2.14" height="2.14"/><rect class="cls-3" x="2.14" y="17.07" width="2.14" height="2.14"/><rect class="cls-3" x="6.42" y="12.82" width="2.14" height="2.14"/><rect class="cls-3" x="4.29" y="19.21" width="2.14" height="2.14"/><rect class="cls-3" x="6.42" y="19.21" width="2.14" height="2.14"/><rect class="cls-3" x="4.28" y="14.93" width="2.14" height="2.14"/><rect class="cls-3" y="14.93" width="2.14" height="2.14"/><rect class="cls-3" y="19.21" width="2.14" height="2.14"/><rect class="cls-3" x="4.29" y="23.48" width="2.14" height="2.14"/><rect class="cls-3" x="0.01" y="23.48" width="2.14" height="2.14"/><rect class="cls-3" x="4.28" y="27.75" width="2.14" height="2.14"/><rect class="cls-3" x="6.42" y="25.61" width="2.14" height="2.14"/><rect class="cls-3" x="4.28" y="32.02" width="2.14" height="2.14"/><rect class="cls-3" x="6.42" y="34.16" width="2.14" height="2.14"/><rect class="cls-3" x="0.01" y="32.02" width="2.14" height="2.14"/><rect class="cls-3" x="4.29" y="40.58" width="2.14" height="2.14"/><rect class="cls-3" x="12.83" y="40.58" width="2.14" height="2.14"/><rect class="cls-3" x="10.69" y="44.85" width="2.14" height="2.14"/><rect class="cls-3" x="14.97" y="44.85" width="2.14" height="2.14"/><rect class="cls-3" x="8.56" y="40.58" width="2.14" height="2.14"/><rect class="cls-3" x="10.69" y="38.45" width="2.14" height="2.14"/><rect class="cls-3" x="8.56" y="36.31" width="3.31" height="2.14"/><rect class="cls-3" x="8.55" y="10.68" width="2.14" height="2.14"/><rect class="cls-3" x="12.83" y="10.68" width="2.14" height="2.14"/><rect class="cls-3" x="10.68" y="12.82" width="2.14" height="2.14"/><rect class="cls-3" x="14.95" y="8.54" width="2.14" height="2.14"/><rect class="cls-3" x="19.23" y="8.54" width="2.14" height="2.14"/><rect class="cls-3" x="17.09" y="10.68" width="2.14" height="2.14"/><rect class="cls-3" x="4.28" y="10.68" width="2.14" height="2.14"/><rect class="cls-3" x="8.55" y="14.93" width="2.14" height="2.14"/><rect class="cls-3" x="8.56" y="23.48" width="2.14" height="2.14"/><rect class="cls-3" x="10.69" y="23.48" width="2.14" height="2.14"/><rect class="cls-3" x="8.56" y="32.02" width="2.14" height="2.14"/><rect class="cls-3" x="12.82" y="14.93" width="2.14" height="2.14"/><rect class="cls-4" x="25.67" y="26.76" width="3.57" height="15.98"/></g></g></svg>