<svg xmlns="http://www.w3.org/2000/svg" viewBox="0 0 54.51 53.57"><defs><style>.cls-1{fill:#fff;}.cls-2{fill:#8dc7be;}.cls-3{fill:#f0c430;}.cls-4{fill:#56308d;}</style></defs><title>sdfs</title><g id="Слой_2" data-name="Слой 2"><g id="Layer_1" data-name="Layer 1"><rect class="cls-1" x="13.98" y="14.3" width="1.82" height="1.82"/><rect class="cls-2" x="43.57" y="35.64" width="1.82" height="1.82"/><rect class="cls-2" x="3.03" y="46.53" width="1.82" height="1.82"/><rect class="cls-2" x="4.86" y="48.35" width="1.82" height="1.82"/><rect class="cls-2" x="27.03" y="51.75" width="1.82" height="1.82"/><rect class="cls-2" x="10.32" y="50.18" width="1.82" height="1.82"/><rect class="cls-2" x="17.61" y="50.18" width="1.82" height="1.82"/><rect class="cls-2" x="6.68" y="46.53" width="1.82" height="1.82"/><rect class="cls-2" x="10.32" y="46.53" width="1.82" height="1.82"/><rect class="cls-2" x="13.96" y="46.53" width="1.82" height="1.82"/><rect class="cls-2" x="17.61" y="46.53" width="1.82" height="1.82"/><rect class="cls-2" x="3.04" y="28.59" width="1.82" height="1.82"/><rect class="cls-2" x="4.86" y="30.41" width="1.82" height="1.82"/><rect class="cls-2" x="8.51" y="34.06" width="1.82" height="1.82"/><rect class="cls-2" x="4.86" y="34.06" width="1.82" height="1.82"/><rect class="cls-2" x="1.22" y="34.06" width="1.82" height="1.82"/><rect class="cls-2" x="4.86" y="41.34" width="1.82" height="1.82"/><rect class="cls-2" x="4.86" y="37.7" width="1.82" height="1.82"/><rect class="cls-2" x="3.04" y="43.16" width="1.82" height="1.82"/><rect class="cls-2" x="6.68" y="43.16" width="1.82" height="1.82"/><rect class="cls-2" x="10.33" y="43.16" width="1.82" height="1.82"/><rect class="cls-2" x="13.97" y="43.16" width="1.82" height="1.82"/><rect class="cls-2" x="17.61" y="43.16" width="1.82" height="1.82"/><rect class="cls-2" x="3.04" y="39.52" width="1.82" height="1.82"/><rect class="cls-2" y="39.52" width="1.82" height="1.82"/><rect class="cls-2" x="6.68" y="39.52" width="1.82" height="1.82"/><rect class="cls-2" x="10.33" y="39.52" width="1.82" height="1.82"/><rect class="cls-2" x="13.97" y="39.52" width="1.82" height="1.82"/><rect class="cls-2" x="17.61" y="39.52" width="1.82" height="1.82"/><rect class="cls-2" x="3.04" y="35.88" width="1.82" height="1.82"/><rect class="cls-2" x="10.33" y="35.88" width="1.82" height="1.82"/><rect class="cls-2" x="13.97" y="35.88" width="1.82" height="1.82"/><rect class="cls-2" x="17.61" y="35.88" width="1.82" height="1.82"/><rect class="cls-2" x="3.04" y="32.24" width="1.82" height="1.82"/><rect class="cls-2" x="10.33" y="32.24" width="1.82" height="1.82"/><rect class="cls-2" x="13.97" y="32.24" width="1.82" height="1.82"/><rect class="cls-2" x="17.61" y="32.24" width="1.82" height="1.82"/><rect class="cls-2" x="6.68" y="28.59" width="1.82" height="1.82"/><rect class="cls-2" x="10.33" y="28.59" width="1.82" height="1.82"/><rect class="cls-2" x="13.97" y="28.59" width="1.82" height="1.82"/><rect class="cls-2" x="17.61" y="28.59" width="1.82" height="1.82"/><rect class="cls-2" x="3.05" y="10.65" width="1.82" height="1.82"/><rect class="cls-2" x="4.87" y="12.48" width="1.82" height="1.82"/><rect class="cls-2" x="8.52" y="16.12" width="1.82" height="1.82"/><rect class="cls-2" x="4.87" y="16.12" width="1.82" height="1.82"/><rect class="cls-2" x="1.23" y="16.12" width="1.82" height="1.82"/><rect class="cls-2" x="4.87" y="23.4" width="1.82" height="1.82"/><rect class="cls-2" x="4.87" y="19.76" width="1.82" height="1.82"/><rect class="cls-2" x="3.05" y="25.23" width="1.82" height="1.82"/><rect class="cls-2" x="6.69" y="25.23" width="1.82" height="1.82"/><rect class="cls-2" x="10.34" y="25.23" width="1.82" height="1.82"/><rect class="cls-2" x="13.98" y="25.23" width="1.82" height="1.82"/><rect class="cls-2" x="17.62" y="25.23" width="1.82" height="1.82"/><rect class="cls-2" x="3.05" y="21.58" width="1.82" height="1.82"/><rect class="cls-2" x="6.69" y="21.58" width="1.82" height="1.82"/><rect class="cls-2" x="10.34" y="21.58" width="1.82" height="1.82"/><rect class="cls-2" x="13.98" y="21.58" width="1.82" height="1.82"/><rect class="cls-2" x="17.62" y="21.58" width="1.82" height="1.82"/><rect class="cls-2" x="3.05" y="17.94" width="1.82" height="1.82"/><rect class="cls-2" x="10.34" y="17.94" width="1.82" height="1.82"/><rect class="cls-2" x="13.98" y="17.94" width="1.82" height="1.82"/><rect class="cls-2" x="17.62" y="17.94" width="1.82" height="1.82"/><rect class="cls-2" x="3.05" y="14.3" width="1.82" height="1.82"/><rect class="cls-2" x="6.69" y="14.3" width="1.82" height="1.82"/><rect class="cls-2" x="10.34" y="14.3" width="1.82" height="1.82"/><rect class="cls-2" x="17.62" y="14.3" width="1.82" height="1.82"/><rect class="cls-2" x="6.69" y="10.65" width="1.82" height="1.82"/><rect class="cls-2" x="10.34" y="10.65" width="1.82" height="1.82"/><rect class="cls-2" x="13.98" y="10.65" width="1.82" height="1.82"/><rect class="cls-2" x="17.62" y="10.65" width="1.82" height="1.82"/><rect class="cls-2" x="4.88" y="5.47" width="1.82" height="1.82"/><rect class="cls-2" x="3.06" y="7.29" width="1.82" height="1.82"/><rect class="cls-2" x="6.7" y="7.29" width="1.82" height="1.82"/><rect class="cls-2" x="10.35" y="7.29" width="1.82" height="1.82"/><rect class="cls-2" x="13.99" y="7.29" width="1.82" height="1.82"/><rect class="cls-2" x="17.63" y="7.29" width="1.82" height="1.82"/><rect class="cls-2" x="3.06" y="3.64" width="1.82" height="1.82"/><rect class="cls-2" x="0.02" y="3.64" width="1.82" height="1.82"/><rect class="cls-2" x="6.7" y="3.64" width="1.82" height="1.82"/><rect class="cls-2" x="10.35" y="3.64" width="1.82" height="1.82"/><rect class="cls-2" x="13.99" y="3.64" width="1.82" height="1.82"/><rect class="cls-2" x="17.63" y="3.64" width="1.82" height="1.82"/><rect class="cls-2" x="21.3" y="3.64" width="1.82" height="1.82"/><rect class="cls-2" x="21.3" width="1.82" height="1.82"/><rect class="cls-2" x="6.7" width="1.82" height="1.82"/><rect class="cls-2" x="10.35" width="1.82" height="1.82"/><rect class="cls-2" x="13.99" width="1.82" height="1.82"/><rect class="cls-2" x="17.63" width="1.82" height="1.82"/><rect class="cls-2" x="50.87" y="7.29" width="1.82" height="1.82"/><rect class="cls-2" x="49.05" y="5.46" width="1.82" height="1.82"/><rect class="cls-2" x="45.41" y="1.82" width="1.82" height="1.82"/><rect class="cls-2" x="32.25" width="1.82" height="1.82"/><rect class="cls-2" x="52.69" y="1.82" width="1.82" height="1.82"/><rect class="cls-2" x="36.3" width="1.82" height="1.82"/><rect class="cls-2" x="50.87" width="1.82" height="1.82"/><rect class="cls-2" x="47.23" width="1.82" height="1.82"/><rect class="cls-2" x="39.94" width="1.82" height="1.82"/><rect class="cls-2" x="50.87" y="3.64" width="1.82" height="1.82"/><rect class="cls-2" x="47.23" y="3.64" width="1.82" height="1.82"/><rect class="cls-2" x="43.58" y="3.64" width="1.82" height="1.82"/><rect class="cls-2" x="39.94" y="3.64" width="1.82" height="1.82"/><rect class="cls-2" x="36.3" y="3.64" width="1.82" height="1.82"/><rect class="cls-2" x="47.23" y="7.29" width="1.82" height="1.82"/><rect class="cls-2" x="43.58" y="7.29" width="1.82" height="1.82"/><rect class="cls-2" x="39.94" y="7.29" width="1.82" height="1.82"/><rect class="cls-2" x="36.3" y="7.29" width="1.82" height="1.82"/><rect class="cls-2" x="50.87" y="24.98" width="1.82" height="1.82"/><rect class="cls-2" x="49.05" y="23.16" width="1.82" height="1.82"/><rect class="cls-2" x="45.41" y="19.52" width="1.82" height="1.82"/><rect class="cls-2" x="49.05" y="19.52" width="1.82" height="1.82"/><rect class="cls-2" x="52.69" y="19.52" width="1.82" height="1.82"/><rect class="cls-2" x="49.05" y="12.23" width="1.82" height="1.82"/><rect class="cls-2" x="49.05" y="15.87" width="1.82" height="1.82"/><rect class="cls-2" x="50.87" y="10.41" width="1.82" height="1.82"/><rect class="cls-2" x="47.23" y="10.41" width="1.82" height="1.82"/><rect class="cls-2" x="43.58" y="10.41" width="1.82" height="1.82"/><rect class="cls-2" x="39.94" y="10.41" width="1.82" height="1.82"/><rect class="cls-2" x="36.3" y="10.41" width="1.82" height="1.82"/><rect class="cls-2" x="50.87" y="14.05" width="1.82" height="1.82"/><rect class="cls-2" x="47.23" y="14.05" width="1.82" height="1.82"/><rect class="cls-2" x="43.58" y="14.05" width="1.82" height="1.82"/><rect class="cls-2" x="39.94" y="14.05" width="1.82" height="1.82"/><rect class="cls-2" x="36.3" y="14.05" width="1.82" height="1.82"/><rect class="cls-2" x="50.87" y="17.7" width="1.82" height="1.82"/><rect class="cls-2" x="47.23" y="17.7" width="1.82" height="1.82"/><rect class="cls-2" x="43.58" y="17.7" width="1.82" height="1.82"/><rect class="cls-2" x="39.94" y="17.7" width="1.82" height="1.82"/><rect class="cls-2" x="36.3" y="17.7" width="1.82" height="1.82"/><rect class="cls-2" x="50.87" y="21.34" width="1.82" height="1.82"/><rect class="cls-2" x="47.23" y="21.34" width="1.82" height="1.82"/><rect class="cls-2" x="43.58" y="21.34" width="1.82" height="1.82"/><rect class="cls-2" x="39.94" y="21.34" width="1.82" height="1.82"/><rect class="cls-2" x="36.3" y="21.34" width="1.82" height="1.82"/><rect class="cls-2" x="47.23" y="24.98" width="1.82" height="1.82"/><rect class="cls-2" x="43.58" y="24.98" width="1.82" height="1.82"/><rect class="cls-2" x="39.94" y="24.98" width="1.82" height="1.82"/><rect class="cls-2" x="36.3" y="24.98" width="1.82" height="1.82"/><rect class="cls-2" x="50.86" y="42.92" width="1.82" height="1.82"/><rect class="cls-2" x="49.04" y="41.1" width="1.82" height="1.82"/><rect class="cls-2" x="45.4" y="37.46" width="1.82" height="1.82"/><rect class="cls-2" x="49.04" y="37.46" width="1.82" height="1.82"/><rect class="cls-2" x="52.68" y="37.46" width="1.82" height="1.82"/><rect class="cls-2" x="49.04" y="30.17" width="1.82" height="1.82"/><rect class="cls-2" x="49.04" y="33.81" width="1.82" height="1.82"/><rect class="cls-2" x="50.86" y="28.35" width="1.82" height="1.82"/><rect class="cls-2" x="47.22" y="28.35" width="1.82" height="1.82"/><rect class="cls-2" x="43.57" y="28.35" width="1.82" height="1.82"/><rect class="cls-2" x="39.93" y="28.35" width="1.82" height="1.82"/><rect class="cls-2" x="36.29" y="28.35" width="1.82" height="1.82"/><rect class="cls-2" x="50.86" y="31.99" width="1.82" height="1.82"/><rect class="cls-2" x="47.22" y="31.99" width="1.82" height="1.82"/><rect class="cls-2" x="43.57" y="31.99" width="1.82" height="1.82"/><rect class="cls-2" x="39.93" y="31.99" width="1.82" height="1.82"/><rect class="cls-2" x="36.29" y="31.99" width="1.82" height="1.82"/><rect class="cls-2" x="50.86" y="35.64" width="1.82" height="1.82"/><rect class="cls-2" x="47.22" y="35.64" width="1.82" height="1.82"/><rect class="cls-2" x="39.93" y="35.64" width="1.82" height="1.82"/><rect class="cls-2" x="36.29" y="35.64" width="1.82" height="1.82"/><rect class="cls-2" x="50.86" y="39.28" width="1.82" height="1.82"/><rect class="cls-2" x="33.16" y="46.78" width="1.82" height="1.82"/><rect class="cls-2" x="43.57" y="39.28" width="1.82" height="1.82"/><rect class="cls-2" x="39.93" y="39.28" width="1.82" height="1.82"/><rect class="cls-2" x="36.29" y="39.28" width="1.82" height="1.82"/><rect class="cls-2" x="47.22" y="42.92" width="1.82" height="1.82"/><rect class="cls-2" x="43.57" y="42.92" width="1.82" height="1.82"/><rect class="cls-2" x="39.93" y="42.92" width="1.82" height="1.82"/><rect class="cls-2" x="36.29" y="42.92" width="1.82" height="1.82"/><rect class="cls-2" x="49.03" y="48.11" width="1.82" height="1.82"/><rect class="cls-2" x="50.85" y="46.29" width="1.82" height="1.82"/><rect class="cls-2" x="43.56" y="46.29" width="1.82" height="1.82"/><rect class="cls-2" x="39.92" y="46.29" width="1.82" height="1.82"/><rect class="cls-2" x="36.28" y="46.29" width="1.82" height="1.82"/><rect class="cls-2" x="47.21" y="49.93" width="1.82" height="1.82"/><rect class="cls-2" x="39.92" y="49.93" width="1.82" height="1.82"/><polygon class="cls-3" points="17.55 15.61 17.55 10.41 38.34 10.41 38.34 15.61 43.53 15.61 43.53 36.39 38.34 36.39 38.34 41.59 17.55 41.59 17.55 36.39 12.36 36.39 12.36 15.61 17.55 15.61"/><polygon class="cls-4" points="33.14 20.8 33.14 15.61 27.95 15.61 22.75 15.61 22.75 20.8 27.95 20.8 33.14 20.8"/><polygon class="cls-4" points="27.95 10.41 33.14 10.41 38.34 10.41 38.34 5.21 33.14 5.21 33.14 0.01 27.95 0.01 22.75 0.01 22.75 5.21 17.55 5.21 17.55 10.41 22.75 10.41 27.95 10.41"/><rect class="cls-4" x="38.34" y="10.41" width="5.2" height="5.2"/><polygon class="cls-4" points="48.73 20.8 48.73 15.61 43.53 15.61 43.53 20.8 43.53 26 43.53 31.2 43.53 36.39 48.73 36.39 48.73 31.2 53.93 31.2 53.93 26 53.93 20.8 48.73 20.8"/><rect class="cls-4" x="38.34" y="36.39" width="5.2" height="5.2"/><polygon class="cls-4" points="27.95 41.59 22.75 41.59 17.55 41.59 17.55 46.78 22.75 46.78 22.75 51.98 27.95 51.98 33.14 51.98 33.14 46.78 38.34 46.78 38.34 41.59 33.14 41.59 27.95 41.59"/><rect class="cls-4" x="12.36" y="36.39" width="5.2" height="5.2"/><polygon class="cls-4" points="12.36 26 12.36 20.8 12.36 15.61 7.16 15.61 7.16 20.8 1.96 20.8 1.96 26 1.96 31.2 7.16 31.2 7.16 36.39 12.36 36.39 12.36 31.2 12.36 26"/><rect class="cls-4" x="12.36" y="10.41" width="5.2" height="5.2"/><polygon class="cls-4" points="33.14 26 33.14 31.2 38.34 31.2 38.34 26 38.34 20.8 33.14 20.8 33.14 26"/><polygon class="cls-4" points="22.75 31.2 22.75 36.39 27.95 36.39 33.14 36.39 33.14 31.2 27.95 31.2 22.75 31.2"/><polygon class="cls-4" points="22.75 20.8 17.55 20.8 17.55 26 17.55 31.2 22.75 31.2 22.75 26 22.75 20.8"/><rect class="cls-1" x="22.75" y="20.8" width="10.39" height="10.39"/></g></g></svg>