<svg xmlns="http://www.w3.org/2000/svg" viewBox="0 0 51.17 52.01"><defs><style>.cls-1{fill:#56308d;}.cls-2{fill:#000503;}.cls-3{fill:#8dc7be;}.cls-4{fill:#f0c430;}</style></defs><title>s</title><g id="Слой_2" data-name="Слой 2"><g id="Layer_1" data-name="Layer 1"><rect class="cls-1" x="35.83" y="43.92" width="8.03" height="2.09"/><rect class="cls-1" x="42.82" y="7.27" width="2.09" height="8.03"/><rect class="cls-1" x="36.87" y="7.28" width="8.03" height="2.09"/><rect class="cls-1" x="7.31" y="43.91" width="6.32" height="2.09"/><rect class="cls-1" x="6.64" y="7.28" width="7.6" height="2.09"/><path class="cls-2" d="M20.89,12.85h9.39V3.45H20.89ZM23,5.54H28.2v5.22H23Z"/><path class="cls-2" d="M30.28,40H20.89v9.4h9.39ZM28.2,47.31H23V42.09H28.2Z"/><path class="cls-2" d="M49.08,21.72H38.64v9.4H49.08ZM47,29H40.73V23.81H47Z"/><rect class="cls-3" x="18.27" y="0.84" width="14.62" height="14.62"/><rect class="cls-1" x="21.07" y="3.63" width="9.04" height="9.04"/><rect class="cls-1" x="13.06" y="3.45" width="5.22" height="9.4"/><rect class="cls-1" x="32.89" y="3.45" width="5.22" height="9.4"/><rect class="cls-1" x="39.16" y="13.9" width="9.4" height="5.22"/><rect class="cls-1" x="39.16" y="32.63" width="9.4" height="5.34"/><rect class="cls-1" x="13.06" y="40" width="5.22" height="9.4"/><rect class="cls-1" x="32.89" y="40" width="5.22" height="9.4"/><rect class="cls-1" x="2.61" y="13.9" width="9.4" height="5.22"/><rect class="cls-1" x="2.61" y="32.76" width="9.4" height="5.22"/><rect class="cls-3" x="18.27" y="37.39" width="14.62" height="14.62"/><rect class="cls-1" x="21.07" y="40.18" width="9.04" height="9.04"/><rect class="cls-3" x="36.55" y="18.01" width="14.62" height="14.62"/><rect class="cls-1" x="39.34" y="20.81" width="9.03" height="9.04"/><rect class="cls-1" x="6.27" y="7.28" width="2.09" height="6.62"/><rect class="cls-1" x="6.27" y="37.97" width="2.09" height="8.03"/><rect class="cls-1" x="42.82" y="37.97" width="2.09" height="8.03"/><path class="cls-2" d="M2.09,30.15H12.53v-9.4H2.09Zm2.09-7.31h6.26v5.22H4.18Z"/><rect class="cls-3" y="18.14" width="14.62" height="14.62"/><rect class="cls-1" x="2.79" y="20.93" width="9.04" height="9.04"/><rect class="cls-4" x="5.09" y="23.23" width="4.43" height="4.43" transform="translate(-15.85 12.62) rotate(-45)"/><rect class="cls-4" x="23.37" y="5.93" width="4.43" height="4.43" transform="translate(1.73 20.48) rotate(-45)"/><rect class="cls-4" x="41.81" y="23.11" width="4.43" height="4.43" transform="translate(-5.01 38.55) rotate(-45)"/><rect class="cls-4" x="23.34" y="42.67" width="4.43" height="4.43" transform="translate(-24.26 31.22) rotate(-45)"/><rect class="cls-3" width="2.14" height="2.14"/><rect class="cls-3" x="4.27" width="2.14" height="2.14"/><rect class="cls-3" x="8.54" width="2.14" height="2.14"/><rect class="cls-3" y="4.22" width="2.14" height="2.14"/><rect class="cls-3" y="8.49" width="2.14" height="2.14"/><rect class="cls-3" y="49.87" width="2.14" height="2.14"/><rect class="cls-3" y="45.6" width="2.14" height="2.14"/><rect class="cls-3" y="41.33" width="2.14" height="2.14"/><rect class="cls-3" x="4.22" y="49.87" width="2.14" height="2.14"/><rect class="cls-3" x="8.5" y="49.87" width="2.14" height="2.14"/><rect class="cls-3" x="49.03" y="0.02" width="2.14" height="2.14"/><rect class="cls-3" x="49.03" y="4.29" width="2.14" height="2.14"/><rect class="cls-3" x="49.03" y="8.56" width="2.14" height="2.14"/><rect class="cls-3" x="44.81" y="0.02" width="2.14" height="2.14"/><rect class="cls-3" x="40.54" y="0.02" width="2.14" height="2.14"/><rect class="cls-3" x="49.03" y="49.87" width="2.14" height="2.14"/><rect class="cls-3" x="44.76" y="49.87" width="2.14" height="2.14"/><rect class="cls-3" x="40.49" y="49.87" width="2.14" height="2.14"/><rect class="cls-3" x="49.03" y="45.65" width="2.14" height="2.14"/><rect class="cls-3" x="49.03" y="41.38" width="2.14" height="2.14"/></g></g></svg>