<svg xmlns="http://www.w3.org/2000/svg" viewBox="0 0 54.76 56.21"><defs><style>.cls-1{fill:#56308d;}.cls-2{fill:#f0c430;}.cls-3{fill:#fff;}.cls-4{fill:#8dc7be;}</style></defs><title>sdft</title><g id="Слой_2" data-name="Слой 2"><g id="Layer_1" data-name="Layer 1"><rect class="cls-1" x="25.72" width="3.39" height="23.39"/><rect class="cls-1" x="31.37" y="26.41" width="23.39" height="3.39"/><rect class="cls-1" y="26.41" width="23.39" height="3.39"/><rect class="cls-1" x="25.68" y="32.82" width="3.39" height="23.39"/><polygon class="cls-2" points="13.65 7.05 13.65 10.44 10.26 10.44 10.26 13.83 6.87 13.83 6.87 41.29 10.26 41.29 10.26 44.68 13.65 44.68 13.65 48.07 41.11 48.07 41.11 44.68 44.5 44.68 44.5 41.29 47.89 41.29 47.89 13.91 44.5 13.91 44.5 10.44 41.11 10.44 41.11 7.05 13.65 7.05"/><rect class="cls-1" x="41.11" y="7.05" width="3.39" height="3.39"/><rect class="cls-1" x="13.65" y="3.82" width="27.46" height="3.23"/><rect class="cls-1" x="47.89" y="13.83" width="3.23" height="27.46"/><rect class="cls-1" x="10.26" y="7.05" width="3.39" height="3.39"/><rect class="cls-1" x="44.5" y="10.52" width="3.39" height="3.39"/><rect class="cls-1" x="6.87" y="10.44" width="3.39" height="3.39"/><rect class="cls-1" x="10.26" y="44.68" width="3.39" height="3.39"/><rect class="cls-1" x="6.87" y="41.29" width="3.39" height="3.39"/><rect class="cls-1" x="13.65" y="48.07" width="27.46" height="3.23"/><rect class="cls-1" x="41.11" y="44.68" width="3.39" height="3.39"/><rect class="cls-1" x="44.5" y="41.29" width="3.39" height="3.39"/><rect class="cls-1" x="3.64" y="13.83" width="3.23" height="27.46"/><polygon class="cls-3" points="14.45 18.84 17.84 18.84 17.84 15.45 36.91 15.45 36.91 18.84 40.3 18.84 40.3 36.58 36.91 36.58 36.91 39.97 17.84 39.97 17.84 36.58 14.45 36.58 14.45 18.84"/><rect class="cls-1" x="23.39" y="20.16" width="7.98" height="3.23"/><rect class="cls-1" x="23.39" y="32.82" width="7.98" height="3.23"/><rect class="cls-1" x="20" y="23.39" width="3.39" height="9.43"/><rect class="cls-1" x="31.37" y="23.39" width="3.39" height="9.43"/><rect class="cls-4" x="23.39" y="23.39" width="7.98" height="9.43"/><rect class="cls-1" x="17.84" y="12.22" width="19.07" height="3.23"/><rect class="cls-1" x="17.84" y="39.97" width="19.07" height="3.23"/><rect class="cls-1" x="14.45" y="15.44" width="3.39" height="3.39"/><rect class="cls-1" x="36.91" y="15.44" width="3.39" height="3.39"/><rect class="cls-1" x="14.45" y="36.58" width="3.39" height="3.39"/><rect class="cls-1" x="36.91" y="36.58" width="3.39" height="3.39"/><rect class="cls-1" x="11.06" y="18.84" width="3.39" height="17.75"/><rect class="cls-1" x="40.3" y="18.84" width="3.39" height="17.75"/></g></g></svg>