<svg xmlns="http://www.w3.org/2000/svg" viewBox="0 0 111.09 58.3"><defs><style>.cls-1{fill:#fff;}.cls-2{fill:none;}.cls-3{fill:#5c0f8b;}.cls-4{fill:#f15b2a;}.cls-5{fill:#ff5100;}</style></defs><title>Ресурс 1</title><g id="Слой_2" data-name="Слой 2"><g id="Layer_1" data-name="Layer 1"><rect class="cls-1" x="46.35" y="52.74" width="17.17" height="4.83"/><rect class="cls-1" x="53.89" y="0.41" width="3.29" height="3.29"/><rect class="cls-1" x="15.43" y="4.66" width="50.58" height="44.17"/><rect class="cls-2" x="24.95" y="35.12" width="28.94" height="1.51"/><rect class="cls-2" x="19.58" y="35.12" width="4.31" height="1.51"/><rect class="cls-2" x="19.58" y="27.49" width="4.31" height="1.51"/><polygon class="cls-2" points="18.55 42.75 17.24 42.75 17.24 44.26 17.25 44.26 17.25 44.26 18.55 44.26 18.55 42.75 18.55 42.75 18.55 42.75"/><rect class="cls-2" x="19.58" y="32.58" width="34.3" height="1.51"/><rect class="cls-2" x="19.58" y="30.03" width="4.31" height="1.51"/><polygon class="cls-2" points="17.25 32.58 17.24 32.58 17.24 34.09 17.25 34.09 18.55 34.09 18.55 32.58 18.55 32.58 17.25 32.58"/><polygon class="cls-2" points="17.25 30.03 17.24 30.03 17.24 31.55 17.25 31.55 18.55 31.55 18.55 30.03 18.55 30.03 17.25 30.03"/><polygon class="cls-2" points="17.25 40.21 17.24 40.21 17.24 41.72 17.25 41.72 18.55 41.72 18.55 40.21 18.55 40.21 17.25 40.21"/><polygon class="cls-2" points="17.25 27.49 17.24 27.49 17.24 29 17.25 29 18.55 29 18.55 27.49 18.55 27.49 17.25 27.49"/><rect class="cls-2" x="19.58" y="25" width="4.31" height="1.51"/><polygon class="cls-2" points="17.25 37.66 17.24 37.66 17.24 39.17 17.25 39.17 17.25 39.17 18.55 39.17 18.55 37.66 18.55 37.66 17.25 37.66"/><polygon class="cls-2" points="17.25 35.12 17.24 35.12 17.24 36.63 17.25 36.63 18.55 36.63 18.55 35.12 18.55 35.12 17.25 35.12"/><rect class="cls-2" x="24.95" y="30.03" width="34.27" height="1.51"/><polygon class="cls-2" points="18.55 24.95 17.24 24.95 17.24 26.46 17.25 26.46 17.25 26.46 18.55 26.46 18.55 24.95 18.55 24.95 18.55 24.95"/><polygon class="cls-2" points="24.95 25 24.95 26.51 24.95 26.51 40.58 26.51 40.58 26.51 40.58 25 24.95 25 24.95 25"/><path class="cls-2" d="M55.54,2.83A.84.84,0,0,0,56.38,2,.84.84,0,1,1,54.7,2,.85.85,0,0,0,55.54,2.83Z"/><rect class="cls-2" x="24.95" y="27.49" width="24.49" height="1.51"/><rect class="cls-2" x="19.58" y="22.4" width="7.2" height="1.51"/><path class="cls-2" d="M55.54,1.15A.85.85,0,0,0,54.7,2,.85.85,0,0,1,55.54,1.15Z"/><path class="cls-2" d="M56.38,2a.84.84,0,0,0-.84-.84A.84.84,0,0,1,56.38,2Z"/><rect class="cls-2" x="19.58" y="7.15" width="4.31" height="1.51"/><rect class="cls-2" x="19.58" y="14.78" width="10.73" height="1.51"/><rect class="cls-2" x="19.58" y="19.86" width="4.31" height="1.51"/><rect class="cls-2" x="19.58" y="17.32" width="10.73" height="1.51"/><rect class="cls-2" x="19.58" y="9.69" width="10.73" height="1.51"/><rect class="cls-2" x="19.58" y="12.23" width="14.31" height="1.51"/><polygon class="cls-2" points="17.25 45.29 17.24 45.29 17.24 46.8 17.25 46.8 18.55 46.8 18.55 45.29 18.55 45.29 17.25 45.29"/><path class="cls-2" d="M49.39,55.52v.84h.84A.85.85,0,0,1,49.39,55.52Z"/><path class="cls-2" d="M50.23,54.68H60.86a.84.84,0,0,1,.83.82v-.82H49.39v.84h0A.85.85,0,0,1,50.23,54.68Z"/><polygon class="cls-2" points="19.58 42.75 19.58 44.26 19.58 44.26 28.39 44.26 28.39 44.26 28.39 42.75 28.39 42.75 19.58 42.75 19.58 42.75"/><polygon class="cls-2" points="19.58 39.17 19.58 39.17 40.58 39.17 40.58 37.66 19.58 37.66 19.58 39.17"/><path class="cls-2" d="M60.86,56.36h.83v-.82A.83.83,0,0,1,60.86,56.36Z"/><rect class="cls-2" x="60.25" y="30.03" width="4.3" height="1.51"/><polygon class="cls-2" points="17.25 22.4 17.24 22.4 17.24 23.91 17.25 23.91 18.55 23.91 18.55 22.4 18.55 22.4 17.25 22.4"/><rect class="cls-2" x="19.58" y="40.21" width="17.61" height="1.51"/><polygon class="cls-2" points="18.55 14.77 17.24 14.77 17.24 16.29 17.25 16.29 17.25 16.29 18.55 16.29 18.55 14.78 18.55 14.78 18.55 14.77"/><polygon class="cls-2" points="18.55 19.86 17.24 19.86 17.24 21.37 17.25 21.37 17.25 21.37 18.55 21.37 18.55 19.86 18.55 19.86 18.55 19.86"/><polygon class="cls-2" points="17.25 12.23 17.24 12.23 17.24 13.74 17.25 13.74 18.55 13.74 18.55 12.23 18.55 12.23 17.25 12.23"/><rect class="cls-2" x="19.58" y="45.29" width="7.2" height="1.51"/><polygon class="cls-2" points="17.25 17.32 17.24 17.32 17.24 18.83 17.25 18.83 18.55 18.83 18.55 17.32 18.55 17.32 17.25 17.32"/><polygon class="cls-2" points="17.25 7.14 17.24 7.14 17.24 8.66 17.25 8.66 18.55 8.66 18.55 7.14 18.55 7.14 17.25 7.14"/><polygon class="cls-2" points="17.25 9.69 17.24 9.69 17.24 11.2 17.25 11.2 18.55 11.2 18.55 9.69 18.55 9.69 17.25 9.69"/><path class="cls-1" d="M67.48,4.11V49.24H97.55V4.11H67.48Zm6,3.09H91.08v5.09H73.52Zm0,8.38H91.08V25.75H73.52Zm0,12.29H82.3v1.91H73.52Zm0,4H91.08v1.91H73.52Zm0,4H91.08v1.91H73.52Zm0,4H91.08v1.92H73.52Z"/><path class="cls-3" d="M100.75,52.74a2,2,0,0,0,.22-.92V0H10.11V51.82a2.19,2.19,0,0,0,.22.92H0v3.43A2.13,2.13,0,0,0,2.13,58.3H109a2.13,2.13,0,0,0,2.13-2.13V52.74ZM55.54,1.15A.84.84,0,1,1,54.7,2,.84.84,0,0,1,55.54,1.15ZM59.21,30v1.51H25V30Zm-9.77-1H25V27.49H49.44Zm-8.86-2.49H25V25H40.58Zm-21-19.36h4.31V8.66H19.58Zm0,2.54H30.31V11.2H19.58Zm0,2.54H33.89v1.51H19.58Zm0,2.55H30.31v1.51H19.58Zm0,2.54H30.31v1.51H19.58Zm0,2.54h4.31v1.51H19.58Zm0,2.54h7.2v1.51h-7.2Zm0,2.6h4.31v1.51H19.58Zm0,2.49h4.31V29H19.58Zm0,2.54h4.31v1.51H19.58Zm0,2.55H53.89v1.51H19.58Zm34.31,2.54v1.51H25V35.12Zm-34.31,0h4.31v1.51H19.58Zm-1,11.68H17.24V45.29h1.31Zm0-2.54H17.24V42.75h1.31Zm0-2.54H17.24V40.21h1.31Zm0-2.55H17.24V37.66h1.31Zm0-2.54H17.24V35.12h1.31Zm0-2.54H17.24V32.58h1.31Zm0-2.55H17.24V30h1.31Zm0-2.54H17.24V27.49h1.31Zm0-2.54H17.24V25h1.31Zm0-2.55H17.24V22.4h1.31Zm0-2.54H17.24V19.86h1.31Zm0-2.54H17.24V17.32h1.31Zm0-2.54H17.24V14.77h1.31Zm0-2.55H17.24V12.23h1.31Zm0-2.54H17.24V9.69h1.31Zm0-2.54H17.24V7.15h1.31ZM26.78,46.8h-7.2V45.29h7.2Zm1.61-4v1.51H19.58V42.75h8.81Zm8.8-1H19.58V40.21H37.19Zm3.39-2.55h-21V37.66h21ZM61.69,56.36H49.39v-.84h0v-.84h12.3v.82s0,0,0,0v.84Zm2.86-24.82h-4.3V30h4.3Zm33,17.7H67.48V4.11H97.55Z"/><polygon class="cls-4" points="50.23 56.36 60.86 56.36 60.86 56.36 50.23 56.36 50.23 56.36"/><path class="cls-4" d="M61.69,55.5v0S61.69,55.51,61.69,55.5Z"/><rect class="cls-5" x="73.52" y="27.87" width="8.78" height="1.91"/><rect class="cls-5" x="73.52" y="31.85" width="17.56" height="1.91"/><rect class="cls-5" x="73.52" y="35.83" width="17.56" height="1.91"/><rect class="cls-5" x="73.52" y="39.8" width="17.56" height="1.91"/><rect class="cls-5" x="73.52" y="15.58" width="17.56" height="10.17"/><rect class="cls-5" x="73.52" y="7.2" width="17.56" height="5.09"/><polygon class="cls-1" points="80.02 21.84 77.42 20.69 80.02 19.52 80.02 18.41 76.06 20.2 76.06 21.19 80.02 22.94 80.02 21.84"/><path class="cls-1" d="M80.52,24.5l.56.21a.22.22,0,0,0,.1,0c.07,0,.11,0,.15-.15l2.85-7.5a.22.22,0,0,0,0-.1c0-.09-.08-.12-.14-.14l-.5-.19a.28.28,0,0,0-.12,0c-.08,0-.11.05-.16.17l-2.86,7.44a.27.27,0,0,0,0,.14C80.39,24.43,80.47,24.47,80.52,24.5Z"/><polygon class="cls-1" points="88.55 20.2 84.57 18.42 84.57 19.52 87.19 20.69 84.57 21.84 84.57 22.94 88.55 21.19 88.55 20.2"/><rect class="cls-5" y="52.74" width="111.09" height="0.69"/></g></g></svg>