<svg xmlns="http://www.w3.org/2000/svg" viewBox="0 0 44.94 58.93"><defs><style>.cls-1{fill:#fff;}.cls-2{fill:#5c0f8b;}.cls-3{fill:#ff5100;}</style></defs><title>Ресурс 2</title><g id="Слой_2" data-name="Слой 2"><g id="Layer_1" data-name="Layer 1"><rect class="cls-1" x="2.3" y="2.75" width="40.33" height="52.33"/><path class="cls-2" d="M0,0V58.93H44.94V0ZM7.36,52.34A1.24,1.24,0,1,1,8.6,51.1,1.25,1.25,0,0,1,7.36,52.34Zm0-5.29A1.24,1.24,0,1,1,8.6,45.81,1.23,1.23,0,0,1,7.36,47.05Zm0-5.29A1.24,1.24,0,1,1,8.6,40.52,1.23,1.23,0,0,1,7.36,41.76ZM23.1,52.3H11.39V49.58H23.1V52.3ZM11.39,47V44.29h9.8V47ZM26,41.72H11.39V39H26Zm6.41-5.25H6.12V34H32.4Zm-25-12.79a1.25,1.25,0,1,1-1.24,1.25A1.25,1.25,0,0,1,7.36,23.68Zm-1.24-4a1.24,1.24,0,1,1,1.24,1.24A1.24,1.24,0,0,1,6.12,19.64ZM7.36,29a1.25,1.25,0,1,1-1.24,1.25A1.25,1.25,0,0,1,7.36,29ZM26,23.41v2.72H11.39V23.41Zm-14.6-2.57V18.12H21.68v2.72ZM23.1,28.7v2.72H11.39V28.7Z"/><rect class="cls-3" x="6.21" y="5.03" width="10.36" height="10.36"/><rect class="cls-1" x="7.48" y="6.42" width="7.81" height="7.59"/><rect class="cls-3" x="21.19" y="5.4" width="11.19" height="1.1"/><rect class="cls-3" x="21.19" y="7.77" width="8.21" height="1.1"/><rect class="cls-3" x="21.19" y="10.14" width="10.37" height="1.1"/><rect class="cls-3" x="21.19" y="12.51" width="4.83" height="1.13"/></g></g></svg>