<svg xmlns="http://www.w3.org/2000/svg" viewBox="0 0 59.75 62.24"><defs><style>.cls-1{fill:#fff;}.cls-2{fill:#ff5100;}.cls-3{fill:#5c0f8b;}</style></defs><title>Ресурс 3</title><g id="Слой_2" data-name="Слой 2"><g id="Layer_1" data-name="Layer 1"><rect class="cls-1" x="28.01" y="44.19" width="3.73" height="3.73"/><polygon class="cls-1" points="59.75 39.83 0 39.83 0 4.98 27.63 4.98 29.88 7.33 32.31 4.98 35.37 4.98 59.75 4.98 59.75 39.83"/><polygon class="cls-1" points="9.22 29.64 5.61 28.05 9.22 26.43 9.22 24.89 3.72 27.37 3.72 28.74 9.22 31.16 9.22 29.64"/><path class="cls-1" d="M9.91,33.32l.77.3.14,0c.1,0,.15-.07.2-.21L15,23a.2.2,0,0,0,0-.13c0-.12-.11-.16-.19-.2l-.69-.26a.53.53,0,0,0-.17,0c-.11,0-.15.06-.22.23l-4,10.3a.41.41,0,0,0-.06.19C9.72,33.23,9.83,33.29,9.91,33.32Z"/><polygon class="cls-1" points="21.02 27.37 15.51 24.91 15.51 26.43 19.13 28.05 15.51 29.64 15.51 31.16 21.02 28.74 21.02 27.37"/><rect class="cls-2" x="2.42" y="7.77" width="23.33" height="9.44"/><rect class="cls-2" x="25.75" y="43.55" width="9.1" height="5.29"/><path class="cls-3" d="M25.78,35.22l2.85,2.85V9.23L24.38,5H0V34.85H24.9A1.28,1.28,0,0,1,25.78,35.22ZM11.2,8.71H24.9V11.2H11.2Zm-5,0H8.71V11.2H6.22Zm-2.49,5H24.9v2.49H3.73Zm0,5H24.9v2.49H3.73Z"/><polygon class="cls-3" points="24.38 37.34 0 37.34 0 39.83 26.87 39.83 24.38 37.34"/><path class="cls-3" d="M53.53,28.05V2.49A2.49,2.49,0,0,0,51,0H49.79V27.39H51A4.86,4.86,0,0,1,53.53,28.05Z"/><path class="cls-3" d="M34.85,34.85H51a2.49,2.49,0,1,0,0-5H48.55a1.24,1.24,0,0,1-1.25-1.24V26.14H34.85V23.65H47.3V21.16H34.85V18.67H47.3V16.18H34.85V13.69H47.3V11.2h-5V8.71h5V5H35.37L31.12,9.23V38.07L34,35.22A1.28,1.28,0,0,1,34.85,34.85ZM37.34,8.71h2.49V11.2H37.34ZM34.85,28.63h8.72v2.49H34.85Z"/><polygon class="cls-3" points="35.37 37.34 32.88 39.83 59.75 39.83 59.75 37.34 51.04 37.34 35.37 37.34"/><path class="cls-3" d="M56,5V32.36a5,5,0,0,1-.7,2.49h4.43V5Z"/><polygon class="cls-3" points="23.18 52.28 18.2 62.24 41.55 62.24 36.57 52.28 23.18 52.28"/><path class="cls-3" d="M0,42.32v5a2.48,2.48,0,0,0,2.49,2.49H57.26a2.48,2.48,0,0,0,2.49-2.49v-5Zm31.12,5H28.63V44.81h2.49Z"/></g></g></svg>