<svg xmlns="http://www.w3.org/2000/svg" viewBox="0 0 44.13 69.88"><defs><style>.cls-1{fill:#fff;}.cls-2{fill:#5c0f8b;}.cls-3{fill:#ff5100;}</style></defs><title>Ресурс 4</title><g id="Слой_2" data-name="Слой 2"><g id="Layer_1" data-name="Layer 1"><rect class="cls-1" x="0.96" y="13.09" width="41.38" height="53.88"/><path class="cls-2" d="M31.26,11V7.36H28.45S25.3,0,22.33,0H19.78c-3,0-6.12,7.36-6.12,7.36H11V11H0V69.88H44.13V11ZM21.06,2.36a3,3,0,1,1-3,3A3,3,0,0,1,21.06,2.36ZM40.45,59.12l-5.81,5.24H33.1V58.84h7.35Zm0-2.12H31.26v7.36H1.84V14.71H11v1.84H31.26V14.71h9.19Z"/><path class="cls-3" d="M3.68,22.07v7.35H11V22.07Z"/><path class="cls-2" d="M3.68,34.94v7.35H11V34.94Z"/><path class="cls-3" d="M3.68,46v7.36H11V46Z"/><line class="cls-2" x1="14.71" y1="23.91" x2="34.94" y2="23.91"/><rect class="cls-2" x="12.87" y="22.24" width="23.91" height="1.67"/><line class="cls-2" x1="14.71" y1="27.75" x2="34.94" y2="27.75"/><rect class="cls-2" x="12.87" y="27.75" width="23.91" height="1.67"/><line class="cls-2" x1="14.71" y1="36.78" x2="34.94" y2="36.78"/><rect class="cls-2" x="12.87" y="35.11" width="23.91" height="1.67"/><line class="cls-2" x1="13.47" y1="40.63" x2="20.05" y2="40.63"/><rect class="cls-2" x="12.87" y="40.63" width="7.78" height="1.67"/><line class="cls-2" x1="14.71" y1="47.81" x2="36.78" y2="47.81"/><rect class="cls-2" x="12.87" y="46.14" width="25.74" height="1.67"/><line class="cls-2" x1="14.71" y1="51.49" x2="31.26" y2="51.49"/><rect class="cls-2" x="12.87" y="51.66" width="20.22" height="1.67"/></g></g></svg>