<svg xmlns="http://www.w3.org/2000/svg" viewBox="0 0 51.8 61.17"><defs><style>.cls-1{fill:#fff;}.cls-2{fill:#ff5100;}.cls-3{fill:#5c0f8b;}</style></defs><title>Ресурс 5</title><g id="Слой_2" data-name="Слой 2"><g id="Layer_1" data-name="Layer 1"><rect class="cls-1" x="2.52" y="3.66" width="47.32" height="7.25"/><rect class="cls-1" x="3.67" y="15.16" width="44.88" height="40.25"/><rect class="cls-2" x="10.83" y="16.24" width="7.08" height="14.5"/><rect class="cls-2" x="33.97" y="16.57" width="14.5" height="14.5"/><path class="cls-3" d="M50.52,3H15.13V.55h-2V3h-6V0H4.55V3H1.29v8.77H50.52ZM4.74,10A3.52,3.52,0,0,1,8,6.24H8A3.49,3.49,0,0,1,11.19,10Zm17.94,0A3.51,3.51,0,0,1,25.9,6.24,3.5,3.5,0,0,1,29.13,10Zm17.93,0a3.49,3.49,0,0,1,3.22-3.78A3.52,3.52,0,0,1,47.06,10Z"/><polygon class="cls-3" points="25.9 58.21 0 58.21 0 61.17 25.9 61.17 51.8 61.17 51.8 58.21 25.9 58.21"/><path class="cls-3" d="M2.52,56.47H49.28v-43H2.52ZM42.86,17.83h4.2v7.43h-4.2Zm0,8.55h4.2V29.1h-4.2Zm0,8.41h4.2v8.12h-4.2Zm0,11.13h4.2V54h-4.2ZM35.41,17.83H39.6v7.43H35.41Zm0,8.55H39.6V29.1H35.41Zm0,8.41H39.6v8.12H35.41Zm0,11.13H39.6V54H35.41ZM32.15,29.1H28V26.38h4.19ZM28,17.83h4.19v7.43H28Zm0,17h4.19v8.12H28Zm0,11.13h4.19V54H28ZM23.84,54H19.65V45.92h4.19ZM19.65,42.91V34.79h4.19v8.12Zm0-25.08h4.19v7.43H19.65Zm0,8.55h4.19V29.1H19.65ZM16.39,54H12.2V45.92h4.19Zm0-11.13H12.2V34.79h4.19ZM12.2,17.83h4.19v7.43H12.2Zm0,8.55h4.19V29.1H12.2ZM8.94,54H4.74V45.92h4.2Zm0-11.13H4.74V34.79h4.2ZM4.74,17.83h4.2v7.43H4.74Zm0,8.55h4.2V29.1H4.74Z"/></g></g></svg>