<svg id="Layer_1" data-name="Layer 1" xmlns="http://www.w3.org/2000/svg" viewBox="0 0 600 600"><defs><style>.cls-1{fill:#9b1d20;}</style></defs><title>Artboard 1</title><path class="cls-1" d="M297.07,85.4c.84-2,2.37-3.33,3.2-5.36,1.48,1.47,2.29,3.57,3.58,5.2-1,1.94-2.34,3.46-3.39,5.35-1.16-1.68-2.33-3.38-3.39-5.19m7.68-.16c-1.51-2.19-2.68-4.73-4.48-6.63C299,81,297.38,83.1,296,85.4c1.65,2.08,2.64,4.73,4.64,6.45,1.19-2.39,3-4.15,4.11-6.61"/><path class="cls-1" d="M300.3,87a9.18,9.18,0,0,0-1.09-1.62c.47-.62.82-1.3,1.25-2,.48.56.75,1.3,1.26,1.79-.37.71-.6,1.56-1.42,1.79m.16-4.64a23.61,23.61,0,0,0-1.8,3c.42,1,1.21,1.66,1.64,2.7a7.43,7.43,0,0,0,2.12-2.87c-.78-.83-1.21-2-2-2.85"/><path class="cls-1" d="M286.35,104c2.78-1.06,2.84,3.17.69,3.23a1.69,1.69,0,0,1-.69-3.23m1.23,3.76c2.33-.42,2.18-5.56-1.4-4.29-2.68.93-1.1,4.76,1.4,4.29"/><path class="cls-1" d="M312.24,107.38c-1.5-.23-1.72-2.66-.16-3.22,2.63-.92,2.78,3.63.16,3.22m-.36-3.75c-3.83,1.09,0,6.09,2.32,3.75,1.31-1.26.42-4.54-2.32-3.75"/><path class="cls-1" d="M281.52,104.52a1.54,1.54,0,0,1,2.14,1.78c-.38,3.86-5.53-.62-2.14-1.78m-.36,3.76c3.85,1.14,4-5.35.18-4.3-2,.55-2,3.75-.18,4.3"/><path class="cls-1" d="M315.83,106.3a1.75,1.75,0,0,1,3-1c1.24,3.28-3.08,3.6-3,1m.7-2c-3.12,1.21-.21,5.68,2.34,3.93,1.83-1.26.58-5-2.34-3.93"/><path class="cls-1" d="M277.4,106.66a1.51,1.51,0,0,1,2,1.43c.2,2.23-3.61,2.77-3.41,0a1.58,1.58,0,0,1,1.42-1.43m.2,3.93c2.78.1,3.17-5.16-.36-4.47-2.71.54-2,4.39.36,4.47"/><path class="cls-1" d="M320.29,107.73c.08-.25.36-.66,1.24-.89a1.53,1.53,0,0,1,2,.89c1,3.32-4.16,2.83-3.22,0m3.57-.52a2.18,2.18,0,0,0-2.5-.91,1.94,1.94,0,0,0-1.79,2.33c.25,3.72,5.94,2,4.29-1.42"/><path class="cls-1" d="M272.06,111.48c-.37-3.75,5.76-.85,2.5,1.45-1.95.17-2.44-.7-2.5-1.45m3,1.8c2.38-1.54.12-4.51-1.8-4.11-3.65.74-.94,5.86,1.8,4.11"/><path class="cls-1" d="M325.49,113.28a1.68,1.68,0,0,1-.72-3.23c2.73-1.1,2.85,3.13.72,3.23m-.91-3.76a2.24,2.24,0,0,0,.7,4.3c3.16.09,3-5.62-.7-4.3"/><path class="cls-1" d="M271.54,113.45c3.16,1.75-2.24,5.32-2.52,1.78-.07-.85.35-2,2.52-1.78m1.42,2a2.06,2.06,0,0,0-2.49-2.49c-1.7.22-2,1.09-2,2.13,0,2.84,4.17,3.14,4.47.36"/><path class="cls-1" d="M327.79,114c2.76-1,2.9,3.47.35,3.22a1.69,1.69,0,0,1-.35-3.22m2.86,1.44c-.07-2-1.6-2.44-3-2s-1.77,1.12-1.43,2.65c.42,2.2,4.52,2.09,4.46-.69"/><path class="cls-1" d="M268.67,118.11a1.48,1.48,0,0,1,2,1.6c0,4.27-6.31-.78-2-1.6m2.12.16a2.25,2.25,0,0,0-2.48-.73,2.17,2.17,0,0,0-1.63,1.8c-.52,4.81,6.44,2.39,4.11-1.07"/><path class="cls-1" d="M330.65,121.67c-1.63.08-2.48-2.43-.9-3.21,2.71-1.32,3.19,3.11.9,3.21m0,.54c2.65-.09,2.87-5-.36-4.46a2.24,2.24,0,0,0,.36,4.46"/><path class="cls-1" d="M258.86,120.06c2.17,2.45-2.14,4.56-2.69,2-.29-1.29.71-2.76,2.69-2m-.91,3.76c2.51-.14,2.68-4.82-.36-4.48-3.24.39-2,4.62.36,4.48"/><path class="cls-1" d="M343,120.24c1.81,2.82-2.46,4.08-2.85,1.6a1.74,1.74,0,0,1,2.85-1.6m-1.23,3.58c3,0,2.81-4.9-.2-4.48a2.25,2.25,0,0,0,.2,4.48"/><path class="cls-1" d="M253.14,122.56a1.63,1.63,0,0,1,2.31,1.43,1.7,1.7,0,1,1-3.39.18,1.41,1.41,0,0,1,1.08-1.61m1.42,3.75c2.16-.63,1.74-5.11-1.42-4.28-3,.77-1.35,5.08,1.42,4.28"/><path class="cls-1" d="M345.28,122.56c2.64-.92,2.82,3.64.19,3.21-1.51-.22-1.73-2.66-.19-3.21m-1.6,2.51c1.06,3.46,6.15-.29,3.74-2.7a2.21,2.21,0,0,0-2.3-.34c-1.14.34-2,1.15-1.44,3"/><path class="cls-1" d="M267.59,123.09a1.52,1.52,0,0,1,2,1.79c-.39,4-5.73-.84-2-1.79m.53,3.94c2.6-.14,2.67-5.22-.71-4.47a2.27,2.27,0,0,0,.71,4.47"/><path class="cls-1" d="M333,123.46c1.72,2-2.75,4.7-3,1.42a1.52,1.52,0,0,1,1.25-1.79,1.77,1.77,0,0,1,1.78.37m-2-.9a2.06,2.06,0,0,0-1.61,1.79c-.44,4,4.57,3,4.45.17,0-1.43-.88-2.5-2.84-2"/><path class="cls-1" d="M251.88,126.85c1.26,3-2.71,3.69-3,1.44a1.76,1.76,0,0,1,3-1.44m-1.43,3.39c2.78,0,3-5.1-.35-4.47-2.75.54-2,4.45.35,4.47"/><path class="cls-1" d="M348.32,126.49c2.68-1.23,2.92,3,.9,3.21a1.72,1.72,0,0,1-.9-3.21m.9,3.75c2.47-.13,2.77-5.07-.52-4.47-2.93.54-1.89,4.61.52,4.47"/><path class="cls-1" d="M268,128.09c2.58-.64,2.22,3.4.36,3.4-1.57,0-2.45-2.89-.36-3.4m-.18-.54a2.27,2.27,0,0,0,.54,4.47c2.74,0,2.87-5.2-.54-4.47"/><path class="cls-1" d="M330.82,128.09a1.5,1.5,0,0,1,2.14,1.44c.27,4.34-6.26-.24-2.14-1.44m0-.54c-2.84.61-1.91,4.6.54,4.47s3-5.2-.54-4.47"/><path class="cls-1" d="M248.84,134.17c-1.77.47-3.15-2.47-1.07-3.2,2.5-.91,2.83,2.72,1.07,3.2m1.43-3a2.18,2.18,0,0,0-2.69-.72,2.23,2.23,0,0,0-1.42,1.23c-1.31,5,6.45,3.17,4.11-.51"/><path class="cls-1" d="M352.45,132.73c-.42,3.73-5.7-.6-2.14-1.76a1.52,1.52,0,0,1,2.14,1.76m-2.33-2.3c-2,.54-2.05,3.75-.19,4.27,3.8,1.1,4.05-5.4.19-4.27"/><path class="cls-1" d="M269,133.1a1.51,1.51,0,0,1,2,1.8c-.34,3.91-5.94-.89-2-1.8m-.18-.53c-3,.62-1.47,4.6.74,4.45,2.57-.16,2.78-5.19-.74-4.45"/><path class="cls-1" d="M328.51,134.9a1.58,1.58,0,0,1,1.23-1.8,1.48,1.48,0,0,1,2.14,1.25c.32,2.22-3.17,3.07-3.37.55m1.23-2.33c-1.32.29-2.06.92-1.77,2.67.43,2.52,4.43,2.27,4.46-.54,0-1.45-.71-2.54-2.69-2.13"/><path class="cls-1" d="M294.21,134.18c-.07.61-.49.43-.18,1,.6.1.75-1,.18-1"/><path class="cls-1" d="M295.81,134.35c0,.35-.49.22-.37.72.29.05.33.29.56.36.09-.39.41-1-.19-1.08"/><path class="cls-1" d="M352.79,136.32c1.34,2.73-2.43,3.78-3,1.78a1.8,1.8,0,0,1,3-1.78m-.9,3.39a2.35,2.35,0,0,0,1.62-3.22,2.06,2.06,0,0,0-2.33-1.25c-3.39.43-2.07,5,.71,4.47"/><path class="cls-1" d="M273.68,140.24c-.63,4.44-7-1-2.7-2.32a2,2,0,0,1,2.7,2.32m-2.89-2.88c-4.39,1.31.55,8,3.06,4.13a2.69,2.69,0,0,0-3.06-4.13"/><path class="cls-1" d="M327.25,137.92c3.49-1.12,3.33,5-.19,3.93-1.75-.55-1.68-3.34.19-3.93m.72,4.64c3.22-.05,3.41-6.41-.91-5.19-2.82.83-1.95,5.25.91,5.19"/><path class="cls-1" d="M247.24,141c2.68-1.08,2.94,3.18.71,3.22a1.69,1.69,0,0,1-.71-3.22m1.78,3.58c1.69-.82,1.39-5.33-2-4.11-3.06,1.1-.62,5.34,2,4.11"/><path class="cls-1" d="M350.46,141a1.56,1.56,0,0,1,2.33,1.07c.9,4.58-5.93.56-2.33-1.07m-.15-.53c-2.67.95-1.17,4.62,1.24,4.28,2.62-.35,2.21-5.54-1.24-4.28"/><path class="cls-1" d="M249.54,149.88c-2.16.17-3.38-3.61-.52-4.09s3,3.9.52,4.09m-.7-4.63c-3.6.68-2,5.72,1.09,5.17,2.78-.48,2.57-5.88-1.09-5.17"/><path class="cls-1" d="M350.47,149.88c-2.29.19-3.39-3.59-.54-4.09s2.86,3.91.54,4.09m-.88-4.63c-1.45.33-2.24,1.12-2,3,.62,4.28,7.11,1.51,4.85-2.15a2.65,2.65,0,0,0-2.86-.88"/><path class="cls-1" d="M264.38,154c-.16-.57-.59-1.17-1.78-.7-3.39,1.34,2.79,4.3,1.78.7"/><path class="cls-1" d="M337.61,154.36c-.09-.92-.71-1.58-2-1.06-3.23,1.32,2.3,4.58,2,1.06"/><path class="cls-1" d="M289.93,168.64c-1.13,3.23-5.95,2.46-6.43-.35-.93-5.24,7.65-5.64,6.43.35m-3.58-4.81c-4.88.51-3.92,7.45.37,7.5,4.77.06,5.29-8.12-.37-7.5"/><path class="cls-1" d="M296,167c.9-1,2.27-1.53,3.22-2.5,1.42.42,2.16,1.51,3.54,2-.74,1.24-2.15,1.91-3.37,2.7A21.4,21.4,0,0,0,296,167m7.85-.55c-1.68-.71-2.91-1.94-4.63-2.66-1.3,1.22-3,2-4.29,3.21,1.64.92,3.11,2,4.82,2.86,1.14-1.37,3.07-1.93,4.1-3.41"/><path class="cls-1" d="M310.84,165.07c5-1.28,5.34,6.12,1.24,6.44-3.83.28-5-5.51-1.24-6.44m2.12,6.8c4.53-1.28,2.73-8-1.79-7.5-.11,0-.17.18-.17.18-4.95.91-3.05,8.72,2,7.32"/><path class="cls-1" d="M286.91,169.9c-2.39.13-3.82-4.2-.38-4.65s3.14,4.51.38,4.65m-1.1-5a2.41,2.41,0,0,0-1.77,1.61c-1.35,4.33,6.13,5.26,5.54.57-.26-2.1-2.05-2.67-3.77-2.18"/><path class="cls-1" d="M311.17,166c4.34-1,3.17,5.76-.36,4.47-1.23-.45-2.36-3.79.36-4.47m1.26,5c3-.55,2.56-5.91-.91-5.53-4.34.48-2.65,6.19.91,5.53"/><path class="cls-1" d="M277.6,172.58c-3.11-.38-3.94-5.65-.2-6.43,5.24-1.08,4.92,7,.2,6.43m0-7a3.7,3.7,0,0,0-2.68,1.47c-1.49,2.33.18,6.3,3.58,6.06,5-.39,3.91-8.19-.9-7.53"/><path class="cls-1" d="M300.64,166.68c-.18.47-.82.49-1.08.9a9.54,9.54,0,0,1-1.24-.72,1.54,1.54,0,0,1,2.32-.18m-3.23.18a15.63,15.63,0,0,0,2.15,1.24,8.61,8.61,0,0,0,1.79-1.42c-1.31-1.45-2.71-1.19-3.94.18"/><path class="cls-1" d="M286,168.82c-2.17-2.23,2-3.89,2.14-1.41,0,1-.61,1.55-2.14,1.41m.17-3a1.83,1.83,0,0,0,.36,3.54c2.74.26,2.61-4.5-.36-3.54"/><path class="cls-1" d="M317.25,168.64a3.21,3.21,0,0,1,2.67-2.15c2.28-.36,4.55,1.24,3.76,4.29-.9,3.59-7.48,2.54-6.43-2.14m2.86,4.83c5.62.41,5.3-8.84-.73-7.32-2,.5-2.89,1.42-2.67,3.91a3.87,3.87,0,0,0,3.4,3.41"/><path class="cls-1" d="M311.17,167c1-.44,1.82-.1,2,.87.53,3.48-5,.4-2-.87m.54,3c2.62.08,2.33-4.79-.71-3.57-1.88.76-1.09,3.55.71,3.57"/><path class="cls-1" d="M275.82,169a2,2,0,0,1,1.95-1.94,2,2,0,0,1,2.68,1.76,2.35,2.35,0,1,1-4.63.18m1.42-2.32c-3.28.94-2.11,6.29,1.78,5.36,3.2-.78,2.06-6.45-1.78-5.36"/><path class="cls-1" d="M319.57,167.58c3.9-1.4,3.94,4.29,1.08,4.46-2.54.14-3.46-3.62-1.08-4.46m.89,5c3.65,0,3.73-6.62-.7-5.51-3.27.77-2.47,5.49.7,5.51"/><path class="cls-1" d="M276.7,169.54a1.51,1.51,0,0,1,2.68-1.09,1.46,1.46,0,1,1-2.68,1.09m.9-2c-2.26.65-1.22,3.7.72,3.56,2.15-.13,2.22-4.44-.72-3.56"/><path class="cls-1" d="M321.88,169.35c.19,1-.47,1.9-2.13,1.61-2.32-1.88,1.73-4,2.13-1.61m-.7,2.16c1.81-.56,1.13-4.07-1.07-3.6-2.77.61-1.3,4.31,1.07,3.6"/><path class="cls-1" d="M333.49,168.64c1.72,1.87,2.88,4.28,4.47,6.25a75.1,75.1,0,0,1-7.5,1.61c-1.23-2.17-2.81-4-3.92-6.25,2.24-.61,4.76-1,6.95-1.61m5.74,7a67.33,67.33,0,0,0-5.36-7.88c-2.7,1-6.16,1.11-8.76,2.17q2.58,3.66,5,7.5c3-.63,6.07-1.2,9.13-1.79"/><path class="cls-1" d="M267.23,174.19c-1.37-.18-2.56-.52-3.91-.72.61-1.24,1.53-2.16,2.14-3.41,1.55.05,2.58.66,4.12.74-.75,1.15-1.53,2.29-2.35,3.39m-2-4.84c-.82,1.62-2.06,2.83-2.85,4.47a32.63,32.63,0,0,0,5.19.91c1-1.4,2-2.82,2.86-4.3-1.79-.32-3.5-.67-5.2-1.08"/><path class="cls-1" d="M332.79,170.43c1,.93,1.6,2.33,2.51,3.39-1.2.47-2.78.55-4.11.91-.42-1.35-1.95-2.42-1.95-3.57a12.21,12.21,0,0,0,3.55-.73m3.39,3.94c-1.21-1.11-1.48-4.08-3.22-4.47-1.33-.33-3.23.95-4.82,1.26,1.11,1.25,1.81,2.91,3.05,4.09,1.77-.17,3.15-.76,5-.88"/><path class="cls-1" d="M266.68,172.75a2.61,2.61,0,0,0-1.22-.17,1.16,1.16,0,0,1,1.77-.9c0,.54-.45.6-.55,1.07m-2.13.2c.88.06,1.54.35,2.53.34a18.32,18.32,0,0,1,1.23-2c-2-.92-3.23-.21-3.76,1.62"/><path class="cls-1" d="M333.14,173.13c-.57-.12-.82.1-1.26.16-.17-.47-.62-.66-.7-1.25,1.19-.39,1.71.1,2,1.09m.73.34c.07-.6-.77-1.69-1.44-2.14a6.73,6.73,0,0,1-2,.35c.06,1,.92,1.24,1.08,2.15a11.61,11.61,0,0,1,2.33-.36"/><path class="cls-1" d="M294.58,174.73c.05.82,1,.76,1.05,1.58a10.31,10.31,0,0,0-1.05,1.26c-.81-.13-1-1-1.62-1.26.48-.6.76-1.37,1.62-1.58m4.1,0a2.78,2.78,0,0,1,1.59,1.58c-.66.29-.78,1.13-1.59,1.26-.26-.65-.91-.88-1.08-1.61a2.51,2.51,0,0,0,1.08-1.23m6.07,1.41c-.16.69-.86.82-1.06,1.43-.87-.13-1-1-1.62-1.43.75-1.44,2.05-1.66,2.68,0m-10.17,2.51c.67-.87,1.38-1.71,2.12-2.51.51,1,1.47,1.52,2,2.51,1.3-.37,1.37-2,2.67-2.34a12.38,12.38,0,0,0,2.17,2.34c.56-1,1.7-1.39,2.13-2.51a28.51,28.51,0,0,0-2-2.48c-1.23.39-1.47,1.73-2.52,2.3-1-.57-1.28-1.91-2.49-2.3-.47,1-1.37,1.5-2,2.3-1-.64-1.5-1.82-2.68-2.3-.45,1.07-1.48,1.6-2,2.65,1,.65,1.34,1.91,2.53,2.34"/><path class="cls-1" d="M308.33,175.26a4.45,4.45,0,0,1,1,2,3.09,3.09,0,0,0-1.42,1.06,5.74,5.74,0,0,1-1.06-1.59c.13-.82,1.05-.87,1.44-1.43m2,1.6a19.82,19.82,0,0,1-1.64-2.49,7.19,7.19,0,0,0-2.85,2.13,11.2,11.2,0,0,1,1.6,2.68,5.35,5.35,0,0,0,2.89-2.32"/><path class="cls-1" d="M312.61,175.61A7.45,7.45,0,0,1,314,177c-.23.73-.92,1-1.24,1.61-.6-.37-.8-1.11-1.45-1.43a12.24,12.24,0,0,0,1.26-1.61m.19,4.12c.77,0,1.41-2,2.12-2.69a13.32,13.32,0,0,0-2.31-2.49c-.53,1.08-1.65,1.56-2.14,2.67,1,.46,1.38,2.53,2.33,2.51"/><path class="cls-1" d="M293.68,175.79c-.15.61.19.76.34,1.07,1.84.13.73-2.24-.34-1.07"/><path class="cls-1" d="M298.32,176.69c.13,0,.34,0,.34.17,2.34-.17-.73-2.86-.34-.17"/><path class="cls-1" d="M303.13,176.86c2.42,0-.38-2.85-.37-.36a.5.5,0,0,1,.37.36"/><path class="cls-1" d="M318.5,178.3c-.7.17-.9.88-1.79.88-.08-.74-.63-1-.72-1.78,1.21-1.2,2.33-1.18,2.51.9m3.6-.9c.47.44.56,1.33,1,1.78-.39.55-1.19.69-1.59,1.26a4.45,4.45,0,0,1-1.09-2,3.85,3.85,0,0,0,1.65-1.07m-2.53,1.07c.51.93,1,1.87,1.42,2.84a7.86,7.86,0,0,0,3.05-1.95,13.92,13.92,0,0,1-1.44-2.86c-1.28.35-2,1.38-3.21,1.8-.27-1.1-1-1.79-1.24-2.86a6.46,6.46,0,0,0-3,2c.46.94.95,1.91,1.42,2.86,1.18-.42,1.93-1.28,3-1.79"/><path class="cls-1" d="M290.45,176.14c-.69-.12-.69-.21-1.26.17-.08.82.29,1.18,1.1,1.09.25-.45.42-.7.16-1.26"/><path class="cls-1" d="M308.67,176.69c-.34-.57-.86-.89-1.42-.37-.11.81.26,1.17,1.08,1.08.11-.27.26-.47.34-.71"/><path class="cls-1" d="M285.81,177c-.14-.47-.57-.61-1.25-.54a1.46,1.46,0,0,0,0,1.26c.74.07,1.25-.06,1.25-.72"/><path class="cls-1" d="M313.5,177.4c.06-.35-.2-.39-.16-.71a1.63,1.63,0,0,0-1.1-.19,1.19,1.19,0,0,0,0,1.26,1.37,1.37,0,0,0,1.26-.36"/><path class="cls-1" d="M281.16,177.4a1.12,1.12,0,0,0-1.24,0,1.55,1.55,0,0,0,.18,1.07H281c0-.41.32-.54.17-1.07"/><path class="cls-1" d="M318,177.57c-.14,0-.22-.14-.16-.35-1.36-.15-1.44.71-.91,1.25.74.08,1.12-.2,1.07-.9"/><path class="cls-1" d="M270.26,181.15c0-.83.45-1.24.53-2,.88,0,1.26.55,2,.72-.09.73-.5,1.16-.55,1.95-.79-.08-1.2-.56-2-.7m3.42-1.61c-1.22-.33-2-1.09-3.21-1.42-.19,1.31-.89,2.08-1.08,3.38,1.29.2,1.89,1.06,3.21,1.25.3-1.15.76-2.09,1.08-3.21"/><path class="cls-1" d="M326.7,179c.61.32.39,1.43.92,1.8a4.2,4.2,0,0,1-2,1.06c-.09-.72-.51-1.15-.53-1.95.51-.33,1.19-.47,1.59-.91m1.62,2.51a7.13,7.13,0,0,0-1.26-3.38c-.78.64-2,.86-2.85,1.42.27,1.16.72,2.14,1.07,3.21,1.28-.17,1.87-1,3-1.25"/><path class="cls-1" d="M275.63,178.3a1.08,1.08,0,0,0,0,1.24c.46,0,.87,0,1.07-.18v-.89c-.4,0-.52-.31-1.07-.17"/><path class="cls-1" d="M322.44,178.47a.76.76,0,1,0-1.08,1.07c.88.16,1.22-.18,1.08-1.07"/><path class="cls-1" d="M326.73,181.15a1.76,1.76,0,0,0,.16-1.08c-.55-.53-1.49-.28-1.25.9.43,0,.54.32,1.09.18"/><path class="cls-1" d="M271,179.9c-.3.6-.16,1.35.71,1.25a1,1,0,0,0,.54-1.07c-.21-.24-.76-.18-1.25-.18"/><path class="cls-1" d="M266.54,182.76c.43,0,.51.3,1.07.17a1.6,1.6,0,0,0,.16-1.06c-.54-.56-1.48-.29-1.23.89"/><path class="cls-1" d="M330.29,182.93c.66.07,1-.13,1.07-.71-.25-1.35-2.12-.2-1.07.71"/><path class="cls-1" d="M263.14,184.54c1.86-.55-.87-2.57-.72-.34.36,0,.23.47.72.34"/><path class="cls-1" d="M334,184.2c2.41,1.41.54-2.92,0,0"/><path class="cls-1" d="M238,209.55a.51.51,0,1,1,.71-.73c.08.57-.16.81-.71.73m1.26-1.23c-4.66-1.39.37,4.91,0,0"/><path class="cls-1" d="M362.79,208.65c1.07-.12,1.07,1,0,.9a.72.72,0,0,1,0-.9m.54,1.62c.68-.13,1-.58.9-1.8-2.14-2-3.12,2.19-.9,1.8"/><path class="cls-1" d="M302.61,219.91c.11.89-.66,1-1.26.72-.23-.87.72-1.15,1.26-.72m-.19,1.6c.59-.3.86-1,.71-2-1.86-2.08-3.86,2.25-.71,2"/><path class="cls-1" d="M303.13,235.29c-.14.82.73.7,1.46.7.16-.42.6-.57.5-1.26-1.12,0-.65,1.07-2,.56"/><path class="cls-1" d="M301.88,243c.29-.28,1-.26.88.37-.25.27-1,.26-.88-.37m1.45-.54c-.84-.72-2.39-.33-2,1.27.83,1.22,2.62,0,2-1.27"/><path class="cls-1" d="M305.28,251.71c.81,4.29-5.14,4.38-5.7,1.42-.42-2,.17-2.88,1.95-3.38s3.46.36,3.75,2m-3.4-2.67c-4.68.68-3.64,7.13.73,7s4.3-7.73-.73-7"/><path class="cls-1" d="M303.68,251.54c1.08,2-1.74,3.07-2.68,1.59a1.58,1.58,0,0,1,2.68-1.59m.53,2.85c2.4-2.08-.35-5-2.68-4.28-3.88,1.14-.39,6.93,2.68,4.28"/><path class="cls-1" d="M276.7,262.78c-.17-.18-.66,0-.52-.53.54-.14.33.5.9.36.1-.54-.19-.66-.19-1.07-1.23-.27-1.07.84-1.63,1.24-.5-.5-1.34.19-1.41.71a1.78,1.78,0,0,0,2.85-.71"/><path class="cls-1" d="M325.82,263c.1-.91-.24-1.43-1.05-1.43-.34.17-.64.34-.56.9.35.58.76-.44.9,0,0,.27-.45.15-.34.53.27.43.78.62,1.05,1.08.82.15.87-.46,1.6-.35.28-1-1.23-1.43-1.6-.73"/><path class="cls-1" d="M328.87,264.58v-.89c-.68.18-.51-.45-1.08-.37-.29.31-.14,1.05-.17,1.61a9.21,9.21,0,0,0,1.78.73c.24-.12,0-.69.34-.73a1.28,1.28,0,0,0,.2.92c.8-.11.7-1,.35-1.45-.51,0-1.16-.09-1.42.18"/><path class="cls-1" d="M276,271.18a17.23,17.23,0,0,0-2-3.38,8.26,8.26,0,0,1,2.51-1.61,12.69,12.69,0,0,1,2.29,3.57c-1.09.33-1.59,1.26-2.85,1.42m-2.85-3.92a18.89,18.89,0,0,0,3.05,4.82c1.22-.67,2.32-1.48,3.56-2.15a24.45,24.45,0,0,0-3-4.8,17.75,17.75,0,0,1-3.57,2.13"/><path class="cls-1" d="M325.28,271.18c-1.24-.16-1.69-1.17-2.87-1.42.69-1.24,1.51-2.34,2.17-3.57,1.25.18,1.78,1.05,2.84,1.43-.69,1.19-1.5,2.28-2.14,3.56m-.87-6.05c-.82,1.74-2,3.13-2.88,4.79,1.41.66,2.42,1.66,4,2.16.93-1.53,1.85-3.14,2.82-4.66-1.29-.72-2.55-1.57-3.9-2.29"/><path class="cls-1" d="M325.28,267.42c-.26,1-1.11,1.4-1.24,2.53a.93.93,0,0,1,.54.16c.34-.86.95-1.42,1.25-2.31-.25,0-.32-.3-.55-.38"/><path class="cls-1" d="M275.63,267.61c0,.62.56,2.12,1.61,2.32a2.61,2.61,0,0,0-1.61-2.32"/><path class="cls-1" d="M239.9,281v-.72h-.53c0,.45-.06.9.53.72"/><path class="cls-1" d="M240.8,281v-.72h-.53c0,.45,0,.9.53.72"/><path class="cls-1" d="M241.33,280.31c0,.23-.24.34-.15.72h.51c0-.32.19-.91-.36-.72"/><path class="cls-1" d="M242.06,281c.46.05.77-.08.71-.56-.24,0-.25-.21-.53-.16-.06.23-.26.34-.18.72"/><path class="cls-1" d="M243.14,280.31c-.07.23-.28.34-.18.72h.69c.08-.47-.06-.77-.51-.72"/><path class="cls-1" d="M244,280.31c0,.23-.25.34-.15.72h.69c.07-.47-.06-.77-.54-.72"/><path class="cls-1" d="M244.91,280.31c-.06.23-.25.34-.17.72h.7c.06-.47-.05-.77-.53-.72"/><path class="cls-1" d="M245.8,280.31c0,.23-.25.34-.17.72h.71c.06-.47-.06-.77-.54-.72"/><path class="cls-1" d="M247.24,281v-.72h-.54c0,.45,0,.9.54.72"/><path class="cls-1" d="M248.12,281v-.72h-.54c-.05.45-.05.9.54.72"/><path class="cls-1" d="M249,281v-.72h-.53c0,.45-.06.9.53.72"/><path class="cls-1" d="M249.92,281v-.72h-.54c-.07.45-.08.9.54.72"/><path class="cls-1" d="M250.45,280.31c0,.23-.25.34-.18.72h.7c.08-.47-.06-.77-.52-.72"/><path class="cls-1" d="M251.34,280.31c-.05.23-.24.34-.18.72h.71c.06-.47-.06-.77-.53-.72"/><path class="cls-1" d="M252.23,280.31c0,.23-.25.34-.16.72h.72c0-.47-.09-.77-.56-.72"/><path class="cls-1" d="M253.14,280.31c0,.23-.26.34-.19.72h.72c.05-.47-.06-.77-.53-.72"/><path class="cls-1" d="M254,280.31c0,.09,0,.21-.17.16-.05.48.24.61.72.56,0-.47-.07-.77-.55-.72"/><path class="cls-1" d="M254.92,280.31V281h.53c.05-.47-.07-.77-.53-.72"/><path class="cls-1" d="M256.33,281v-.72h-.52c-.05.45-.06.9.52.72"/><path class="cls-1" d="M257.24,281v-.72h-.54c0,.45-.05.9.54.72"/><path class="cls-1" d="M257.78,280.31c-.06.23-.27.34-.19.72h.55c-.06-.32.15-.91-.36-.72"/><path class="cls-1" d="M258.51,281c.45.05.76-.08.7-.56-.22,0-.25-.21-.54-.16-.06.23-.27.34-.16.72"/><path class="cls-1" d="M259.38,281c.48.05.77-.08.71-.56-.23,0-.23-.21-.53-.16-.05.23-.26.34-.18.72"/><path class="cls-1" d="M260.46,280.31c0,.09,0,.21-.19.16,0,.48.24.61.72.56.05-.47-.06-.77-.53-.72"/><path class="cls-1" d="M261.34,280.31c-.06.23-.25.34-.19.72h.74c0-.47-.08-.77-.55-.72"/><path class="cls-1" d="M262.78,281v-.72h-.53c-.06.45-.06.9.53.72"/><path class="cls-1" d="M263.14,280.31V281h.52c.06-.47-.06-.77-.52-.72"/><path class="cls-1" d="M264.55,281v-.72H264c0,.45,0,.9.54.72"/><path class="cls-1" d="M265.46,281v-.72h-.55c0,.45,0,.9.55.72"/><path class="cls-1" d="M332.26,281v-.72h-.55c-.06.45-.06.9.55.72"/><path class="cls-1" d="M333.14,281c0-.33.17-.91-.36-.72,0,.23-.27.34-.19.72Z"/><path class="cls-1" d="M334.23,280.47c-.23,0-.27-.21-.54-.16-.07.23-.26.34-.17.72.44.06.74-.08.71-.56"/><path class="cls-1" d="M335.11,281c.06-.48-.06-.77-.53-.72-.06.23-.26.34-.18.72Z"/><path class="cls-1" d="M336,280.84c-.29-.06.24-.62-.52-.53-.06.23-.26.34-.17.72.26,0,.65.07.69-.19"/><path class="cls-1" d="M336.9,281c.06-.48,0-.77-.53-.72-.05.23-.27.34-.19.72Z"/><path class="cls-1" d="M337.79,281c0-.48-.06-.77-.53-.72-.08.23-.28.34-.2.72Z"/><path class="cls-1" d="M338.68,281v-.72h-.53c-.06.45-.06.9.53.72"/><path class="cls-1" d="M339.58,281v-.72H339c0,.45-.07.9.54.72"/><path class="cls-1" d="M340.48,281v-.72h-.56c0,.45,0,.9.56.72"/><path class="cls-1" d="M341.35,281v-.72h-.54c0,.45,0,.9.54.72"/><path class="cls-1" d="M341.73,280.31V281h.72c.06-.57-.14-.81-.72-.72"/><path class="cls-1" d="M343.31,281c.07-.48-.05-.77-.52-.72-.05.23-.24.34-.17.72Z"/><path class="cls-1" d="M344.21,281c.06-.48,0-.77-.53-.72,0,.23-.25.34-.17.72Z"/><path class="cls-1" d="M345.12,281c0-.48-.05-.77-.53-.72-.07.23-.27.34-.19.72Z"/><path class="cls-1" d="M346,281c.07-.48-.07-.77-.53-.72,0,.1,0,.21-.18.16-.07.48.24.61.71.56"/><path class="cls-1" d="M346.35,280.31V281h.55c.05-.47-.08-.77-.55-.72"/><path class="cls-1" d="M347.79,281v-.72h-.52c0,.45,0,.9.52.72"/><path class="cls-1" d="M348.7,281v-.72h-.56c0,.45-.06.9.56.72"/><path class="cls-1" d="M349.59,281c-.06-.33.18-.91-.37-.72,0,.23-.25.34-.16.72Z"/><path class="cls-1" d="M350.64,280.47c-.21,0-.25-.21-.52-.16-.06.23-.26.34-.19.72.46.06.76-.08.71-.56"/><path class="cls-1" d="M351.55,281c.05-.48-.06-.77-.55-.72-.06.23-.26.34-.17.72Z"/><path class="cls-1" d="M352.45,281c.05-.48-.09-.77-.56-.72-.06.23-.25.34-.16.72Z"/><path class="cls-1" d="M353.31,281c.06-.48,0-.77-.52-.72-.05.23-.26.34-.17.72Z"/><path class="cls-1" d="M354.23,280.31c-.57-.09-.8.15-.72.72h.72Z"/><path class="cls-1" d="M354.57,280.31V281h.55c.05-.47-.07-.77-.55-.72"/><path class="cls-1" d="M356,281v-.72h-.54c-.06.45-.06.9.54.72"/><path class="cls-1" d="M356.9,281v-.72h-.52c-.08.45-.08.9.52.72"/><path class="cls-1" d="M357.78,281c0-.33.19-.91-.35-.72,0,.23-.25.34-.16.72Z"/><path class="cls-1" d="M239.21,281.54v.73a1,1,0,0,0,.69-.18c.06-.47-.23-.57-.69-.55"/><path class="cls-1" d="M240.62,281.54h-.35c0,.14,0,.22-.18.19v.36c.11,0,.19,0,.18.18h.35c0-.12,0-.21.18-.18v-.36c-.1,0-.2,0-.18-.19"/><path class="cls-1" d="M241.69,282.28v-.73a1.26,1.26,0,0,0-.72.18c0,.46.26.6.72.55"/><path class="cls-1" d="M242.59,282.28v-.73a1.26,1.26,0,0,0-.72.18c-.05.46.27.6.72.55"/><path class="cls-1" d="M243.48,282.28v-.73H243c-.06.47-.08.89.51.73"/><path class="cls-1" d="M244.39,282.28v-.73h-.53c-.05.47-.08.89.53.73"/><path class="cls-1" d="M245.27,282.28v-.73h-.55c0,.47-.05.89.55.73"/><path class="cls-1" d="M245.63,281.54v.73a1,1,0,0,0,.71-.18c.06-.47-.25-.57-.71-.55"/><path class="cls-1" d="M246.54,281.54v.73a1.08,1.08,0,0,0,.7-.18c.06-.47-.24-.57-.7-.55"/><path class="cls-1" d="M247.41,281.54v.73a1,1,0,0,0,.71-.18c.06-.47-.24-.57-.71-.55"/><path class="cls-1" d="M249,282.28v-.73a1.21,1.21,0,0,0-.72.18c-.05.46.27.6.72.55"/><path class="cls-1" d="M249.38,281.54c0,.14,0,.22-.17.19-.06.46.23.6.72.54,0-.47-.08-.75-.55-.73"/><path class="cls-1" d="M250.81,282.28v-.73h-.54c-.05.47-.05.89.54.73"/><path class="cls-1" d="M251.69,282.28v-.73h-.53c0,.47,0,.89.53.73"/><path class="cls-1" d="M252.59,282.28v-.73h-.52c0,.47-.08.89.52.73"/><path class="cls-1" d="M253.49,282.28v-.73h-.55c0,.47,0,.89.55.73"/><path class="cls-1" d="M253.85,281.54v.73a1.14,1.14,0,0,0,.71-.18c.06-.47-.25-.57-.71-.55"/><path class="cls-1" d="M254.73,281.54v.73a1.12,1.12,0,0,0,.73-.18c0-.47-.27-.57-.73-.55"/><path class="cls-1" d="M255.63,281.54v.73c.56.09.79-.15.7-.73Z"/><path class="cls-1" d="M257.24,282.28v-.73a1.24,1.24,0,0,0-.72.18c0,.46.25.6.72.55"/><path class="cls-1" d="M258.14,282.28v-.73a1.23,1.23,0,0,0-.73.18c0,.46.24.6.73.55"/><path class="cls-1" d="M259,282.28v-.73h-.53c-.08.47-.08.89.53.73"/><path class="cls-1" d="M259.9,282.28v-.73h-.54c0,.47,0,.89.54.73"/><path class="cls-1" d="M260.81,282.28v-.73h-.54c0,.47,0,.89.54.73"/><path class="cls-1" d="M261.71,282.28v-.73h-.56c0,.47,0,.89.56.73"/><path class="cls-1" d="M262.06,281.54v.73a1.06,1.06,0,0,0,.71-.18c.05-.47-.24-.57-.71-.55"/><path class="cls-1" d="M263,281.54c-.14.65.38.9.7.55.06-.47-.25-.57-.7-.55"/><path class="cls-1" d="M264.55,282.28v-.73a1.21,1.21,0,0,0-.7.18c-.06.46.24.6.7.55"/><path class="cls-1" d="M265.46,282.28v-.73c-.93-.24-.83.89,0,.73"/><path class="cls-1" d="M332.43,282.28v-.73h-.71c-.07.58.16.81.71.73"/><path class="cls-1" d="M333.31,282.28v-.73a1.27,1.27,0,0,0-.71.18c0,.46.28.6.71.55"/><path class="cls-1" d="M334.23,282.28v-.73a1.28,1.28,0,0,0-.74.18c0,.46.25.6.74.55"/><path class="cls-1" d="M335.11,282.28v-.73h-.53c-.06.47-.06.89.53.73"/><path class="cls-1" d="M336,282.28v-.73h-.52c-.06.47-.06.89.52.73"/><path class="cls-1" d="M336.9,282.28v-.73h-.53c-.05.47-.05.89.53.73"/><path class="cls-1" d="M337.79,282.28v-.73h-.53c-.05.47-.08.89.53.73"/><path class="cls-1" d="M338.15,282.28c.47.05.77-.09.71-.55-.23,0-.24-.21-.52-.18-.06.25-.27.35-.19.73"/><path class="cls-1" d="M339,282.28a1,1,0,0,0,.72-.2c0-.45-.24-.56-.72-.53Z"/><path class="cls-1" d="M340.67,282.28v-.73a1.32,1.32,0,0,0-.75.18c0,.46.26.6.75.55"/><path class="cls-1" d="M341.53,282.28v-.73a1.28,1.28,0,0,0-.72.18c0,.46.25.6.72.55"/><path class="cls-1" d="M342.45,282.28v-.73a1.21,1.21,0,0,0-.73.18c-.05.46.25.6.73.55"/><path class="cls-1" d="M343.31,282.28v-.73h-.52c0,.47-.05.89.52.73"/><path class="cls-1" d="M344.21,282.28v-.73h-.53c0,.47,0,.89.53.73"/><path class="cls-1" d="M345.12,282.28v-.73h-.53c-.06.47-.08.89.53.73"/><path class="cls-1" d="M345.47,282.28a1,1,0,0,0,.72-.2c.07-.45-.26-.56-.72-.53Z"/><path class="cls-1" d="M346.35,281.54v.73c.92.24.87-.86,0-.73"/><path class="cls-1" d="M347.42,281.54c0,.14,0,.22-.15.19v.36c.09,0,.19,0,.15.18h.37c0-.12,0-.21.18-.18v-.36c-.1,0-.21,0-.18-.19Z"/><path class="cls-1" d="M348.86,282.28v-.73a1.28,1.28,0,0,0-.72.18c-.05.46.26.6.72.55"/><path class="cls-1" d="M349.77,282.28v-.73a1.14,1.14,0,0,0-.71.18c-.07.46.24.6.71.55"/><path class="cls-1" d="M350.64,282.28v-.73h-.52c-.06.47-.06.89.52.73"/><path class="cls-1" d="M351.55,282.28v-.73H351c0,.47-.06.89.55.73"/><path class="cls-1" d="M352.45,282.28v-.73h-.56c0,.47-.06.89.56.73"/><path class="cls-1" d="M353.31,282.28v-.73h-.52c-.05.47-.05.89.52.73"/><path class="cls-1" d="M353.68,282.28a1,1,0,0,0,.72-.2c.06-.45-.23-.56-.72-.53Z"/><path class="cls-1" d="M354.57,281.54v.73a1.1,1.1,0,0,0,.73-.18c.06-.47-.25-.57-.73-.55"/><path class="cls-1" d="M355.48,282.28h.71v-.73c-.56-.09-.81.16-.71.73"/><path class="cls-1" d="M357.08,282.28v-.73a1.09,1.09,0,0,0-.7.18c-.07.46.24.6.7.55"/><path class="cls-1" d="M358,282.28v-.73a1.16,1.16,0,0,0-.71.18c-.06.46.24.6.71.55"/><path class="cls-1" d="M258,289.59c-.77-.12-.77-1-2-.71-.35,0-.35.48-.53.71,0,1,1,.86,1.07,1.78-.43,0-.53.3-1.07.19-.18-.64-.16-1.5-.89-1.61-1.08-.05-1.18.84-1.77,1.25-1.39-.12-1-1.41-2.15-1.25-1,.16-.57,2-2,1.42-.42-.66,1-.84.87-1.78-.08-1.25-1.9-.64-2.13,0-1,.07-1-.92-1.61-1.25a2.32,2.32,0,0,1,1.44-1.6c.64.07.64.77,1.25.88s.55-.39,1-.35c.39-1.39-1.22-1.54-.87-2.3a1,1,0,0,1,.87-.19c.28.55.26,1.42.91,1.61,1.37.23,1.18-1.08,2.16-1.24.59,1.13,2.89,2,2.84-.37.54-.14.64.19,1.07.19,0,.95-1,.89-1.07,1.77.35,1.3,1.76.71,2.33,0a2.11,2.11,0,0,1,1.43,1.6,5.16,5.16,0,0,1-1.26,1.25m-.36-3.56c-.65-.08-.77,1.34-1.42.71.28-.67,1.08-.82,1.07-1.77a1.73,1.73,0,0,0-2.32-.73c-.19.46-.11,1.19-.55,1.42-1-.18-.76-1.49-2.15-1.27-.88.11-.62,1.28-1.58,1.27-.4-.26-.28-1.05-.54-1.42a2,2,0,0,0-2.15.37c-.37,1.43.82,1.31.89,2.31-.81,0-.64-1-1.6-.89a3.15,3.15,0,0,0-2.14,2.31c.65.83,1,2,2.48,2,.59,0,.75-1.29,1.26-.73-.17.85-1.22.81-.89,2.14a2.13,2.13,0,0,0,2.15.36c.26-.36.14-1.16.54-1.42,1.43,1.67,2.45,1.22,3.92,0a1.37,1.37,0,0,0,2.68.53c.1-.95-1.39-1-.91-1.77,1.19,1.84,3.14.18,3.77-1.09-.58-1-1-2.2-2.51-2.31"/><path class="cls-1" d="M338,288.34a2.12,2.12,0,0,1,1.43-1.6c.53.18.71.73,1.28.88a1.22,1.22,0,0,0,1.06-.7c.11-1.13-2.23-2,0-2.14.24.56.24,1.42.89,1.61,1.28.19,1.19-.95,2-1.24.83,1,2.93,2,3-.37.58-.13.66.19,1.07.19,0,.91-1.08.79-1.07,1.77-.06.6.54.53.72.88a2.2,2.2,0,0,0,1.45-.88c.94,0,1.06.83,1.6,1.25a2.1,2.1,0,0,1-1.44,1.6c-.34-.54-1.91-1.25-2.33-.17-.12,1.16,1,1,1.07,2-.41,0-.49.29-1.07.19-.26-.57-.23-1.43-.87-1.62-1.31-.16-1.18,1.07-2.15,1.25-.68-1.25-2.76-1.86-2.85.37-.44,0-.87,0-1.06-.19,0-.92,1.06-.8,1.06-1.79.11-.47-.38-.34-.38-.71a1.7,1.7,0,0,0-1.77.71c-.95,0-1.08-.81-1.62-1.25m1.8,2c.61-.12.42-1,1.26-.9,0,.95-1.1.83-1.1,1.78.23,0,.23.28.18.53a2.06,2.06,0,0,0,2.15.36c.21-.46.11-1.19.54-1.42,1.41,1.74,2.49,1.18,3.94,0,.08.51.26.92.36,1.42a2,2,0,0,0,2.13-.36c.37-1.42-.84-1.3-.9-2.31.81,0,.58,1,1.45.9,1.39-.18,2-1.14,2.31-2.33-.62-.83-1-1.86-2.31-2-.71-.11-.89,1.24-1.45.71.35-.67,1.22-.82.9-2.14a2,2,0,0,0-2.13-.36c-.21.46-.11,1.19-.55,1.42-1.39-1.73-2.49-1.16-3.92,0-.11-.48-.27-.92-.37-1.42a1.58,1.58,0,0,0-2.33,1.07c.23.71.94.87,1.1,1.61-.77-.09-.77-.9-1.63-.89-1.3.16-1.6,1.36-2.32,2.14.79.82,1,2.2,2.69,2.15"/><path class="cls-1" d="M252.61,289.43c-.7-.19-.73-1.79-.2-2.16.85,0,.65,1.87.2,2.16m-.92.36c.54-.07.57.39,1.1.35,1-.43,1.17-2.62.35-3.41-1.77-.74-2.07,1.83-1.45,3.06"/><path class="cls-1" d="M344.59,287.27c.82.15.56,1.72.18,2.16-.79-.13-.69-1.82-.18-2.16m-.19,2.87c.44.06.38-.34.89-.19a2.87,2.87,0,0,0,0-3.22c-2-1-2.28,2.84-.89,3.41"/><path class="cls-1" d="M246.7,287.8c-.09.81.27,1.18,1.07,1.08a.77.77,0,1,0-1.07-1.08"/><path class="cls-1" d="M257.41,288.88c.81.1,1.18-.27,1.1-1.08a.78.78,0,1,0-1.1,1.08"/><path class="cls-1" d="M340.1,288.17c-.14-1-1.59-.83-1.42.36.32.5,1.5.49,1.42-.36"/><path class="cls-1" d="M350.47,288a.76.76,0,0,0-1.41,0c-.05.43.26.57.34.89.73.07,1.14-.19,1.07-.89"/><path class="cls-1" d="M239.74,295.14c-.05.46.06.75.53.7,0-.24.26-.34.17-.7Z"/><path class="cls-1" d="M240.62,295.14c0,.75.23.7.71.53.06-.47-.24-.59-.71-.53"/><path class="cls-1" d="M241.52,295.14c-.05.46,0,.75.54.7.05-.24.24-.34.17-.7Z"/><path class="cls-1" d="M242.59,295.84c.48.05.58-.24.55-.7a1,1,0,0,0-.72.19.91.91,0,0,0,.17.51"/><path class="cls-1" d="M243.83,295.84c.08-.24.26-.34.22-.7h-.75c0,.46.09.75.53.7"/><path class="cls-1" d="M244.91,295.84v-.7h-.52c-.06.46-.09.88.52.7"/><path class="cls-1" d="M245.44,295.84c.05-.21.22-.1.35,0v-.7h-.53c0,.27-.06.64.18.7"/><path class="cls-1" d="M246.7,295.84v-.7h-.54c-.06.46.05.75.54.7"/><path class="cls-1" d="M247.24,295.84c0-.21.19-.1.34,0v-.7h-.53c0,.27,0,.64.19.7"/><path class="cls-1" d="M248,295.14c-.13.64.37.88.71.53.05-.47-.27-.59-.71-.53"/><path class="cls-1" d="M248.84,295.14c-.05.46.07.75.54.7.06-.24.25-.34.16-.7Z"/><path class="cls-1" d="M249.74,295.14c0,.46.06.75.53.7.06-.24.25-.34.18-.7Z"/><path class="cls-1" d="M250.64,295.14c-.07.46.06.75.52.7.05-.24.25-.34.18-.7Z"/><path class="cls-1" d="M251.54,295.14c-.07.46.06.75.53.7.06-.24.25-.34.16-.7Z"/><path class="cls-1" d="M253.14,295.84v-.7h-.55c0,.46-.05.88.55.7"/><path class="cls-1" d="M254,295.84v-.7h-.52c0,.46-.07.88.52.7"/><path class="cls-1" d="M254.92,295.84v-.7h-.55c-.05.46-.05.88.55.7"/><path class="cls-1" d="M255.81,295.84v-.7h-.54c0,.46,0,.88.54.7"/><path class="cls-1" d="M256.17,295.14c-.05.46.07.75.53.7.07-.24.25-.34.18-.7Z"/><path class="cls-1" d="M257.05,295.14c-.14.56.28.54.54.7.06-.24.27-.34.19-.7Z"/><path class="cls-1" d="M258,295.14c-.05.46.06.75.56.7,0-.24.23-.34.15-.7Z"/><path class="cls-1" d="M258.86,295.14c-.06.46.05.75.5.7.08-.24.29-.34.2-.7Z"/><path class="cls-1" d="M260.46,295.84v-.7h-.72c-.09.55.15.8.72.7"/><path class="cls-1" d="M261.34,295.84v-.7h-.53c0,.46-.05.88.53.7"/><path class="cls-1" d="M262.25,295.84v-.7h-.55c-.06.46-.06.88.55.7"/><path class="cls-1" d="M263.14,295.84v-.7h-.54c-.06.46.07.75.54.7"/><path class="cls-1" d="M263.49,295.14v.7a1,1,0,0,0,.71-.17c.06-.47-.24-.59-.71-.53"/><path class="cls-1" d="M264.38,295.14c-.06.46.06.75.53.7.07-.24.26-.34.18-.7Z"/><path class="cls-1" d="M265.27,295.14c0,.46.08.75.54.7.06-.24.25-.34.17-.7Z"/><path class="cls-1" d="M331.19,295.14c0,.46.06.75.53.7,0-.24.25-.34.17-.7Z"/><path class="cls-1" d="M332.78,295.84v-.7h-.53c-.05.46-.05.88.53.7"/><path class="cls-1" d="M333.69,295.84v-.7h-.55c0,.46,0,.88.55.7"/><path class="cls-1" d="M334.56,295.84v-.7h-.51c-.05.46-.07.88.51.7"/><path class="cls-1" d="M335.47,295.84v-.7h-.53c-.07.46-.07.88.53.7"/><path class="cls-1" d="M335.84,295.14c0,.46.05.75.53.7.07-.24.26-.34.16-.7Z"/><path class="cls-1" d="M336.72,295.14c-.06.46.07.75.53.7.06-.24.26-.34.18-.7Z"/><path class="cls-1" d="M337.61,295.14c-.05.46.06.75.52.7.08-.24.27-.34.22-.7Z"/><path class="cls-1" d="M338.5,295.14c0,.46.07.75.54.7,0-.24.27-.34.19-.7Z"/><path class="cls-1" d="M340.1,295.14a1,1,0,0,0-.71.19.78.78,0,0,0,.19.51c.46.05.6-.24.52-.7"/><path class="cls-1" d="M340.67,295.84c0-.21.19-.1.35,0v-.7h-.55c0,.27-.06.64.2.7"/><path class="cls-1" d="M341.9,295.14h-.55v.7c.47.05.6-.24.55-.7"/><path class="cls-1" d="M342.43,295.84c.06-.21.2-.1.36,0v-.7h-.54c.05.27-.05.64.18.7"/><path class="cls-1" d="M343.68,295.84v-.7h-.54c0,.46-.05.88.54.7"/><path class="cls-1" d="M344.05,295.14c-.07.46.06.75.54.7,0-.24.25-.34.18-.7Z"/><path class="cls-1" d="M344.93,295.14c-.15.64.4.88.72.53.08-.47-.24-.59-.72-.53"/><path class="cls-1" d="M345.82,295.14c-.05.46.07.75.53.7.07-.24.27-.34.19-.7Z"/><path class="cls-1" d="M347.42,295.14a1,1,0,0,0-.69.19,1,1,0,0,0,.16.51c.48.05.59-.24.53-.7"/><path class="cls-1" d="M348.32,295.14h-.72c-.05.46.07.75.54.7.08-.24.26-.34.18-.7"/><path class="cls-1" d="M349.22,295.84v-.7h-.52c-.06.46-.07.88.52.7"/><path class="cls-1" d="M350.12,295.84v-.7h-.53c0,.46-.08.88.53.7"/><path class="cls-1" d="M351,295.84v-.7h-.53c0,.46,0,.88.53.7"/><path class="cls-1" d="M351.89,295.84v-.7h-.53c-.05.46-.06.88.53.7"/><path class="cls-1" d="M353,295.14h-.69c-.17.56.25.54.52.7.06-.24.24-.34.17-.7"/><path class="cls-1" d="M353.15,295.14c0,.46.07.75.53.7.07-.24.27-.34.19-.7Z"/><path class="cls-1" d="M354.06,295.14c-.07.46.05.75.51.7,0-.24.27-.34.18-.7Z"/><path class="cls-1" d="M354.94,295.14c-.06.46.05.75.54.7,0-.24.24-.34.18-.7Z"/><path class="cls-1" d="M356.54,295.84v-.7H356c-.07.46-.07.88.52.7"/><path class="cls-1" d="M357.43,295.14h-.53v.7c.46.05.6-.24.53-.7"/><path class="cls-1" d="M239.55,296.37c-.05.49.25.58.72.54.15-.63-.47-.78-.72-.54"/><path class="cls-1" d="M240.62,296.21v.7h.56c0-.47-.09-.76-.56-.7"/><path class="cls-1" d="M241.52,296.21v.7h.54c.05-.47-.07-.76-.54-.7"/><path class="cls-1" d="M242.59,296.21c-.06.23-.25.34-.17.7H243c-.05-.32.18-.89-.37-.7"/><path class="cls-1" d="M243.48,296.21c-.06.23-.26.34-.18.7h.56c-.05-.32.15-.89-.38-.7"/><path class="cls-1" d="M244.39,296.21c-.07.23-.27.34-.19.7h.71c0-.47-.06-.76-.52-.7"/><path class="cls-1" d="M245.27,296.21c-.05.23-.26.34-.16.7h.69c.08-.47-.07-.76-.53-.7"/><path class="cls-1" d="M246.16,296.21c-.06.23-.24.34-.19.7h.73c.07-.47,0-.76-.54-.7"/><path class="cls-1" d="M247.05,296.21c0,.23-.24.34-.16.7h.69c0-.47-.05-.76-.53-.7"/><path class="cls-1" d="M248,296.21c-.07.23-.26.34-.18.7h.72c.06-.47-.06-.76-.54-.7"/><path class="cls-1" d="M249.38,296.91v-.7h-.54c-.05.46-.05.88.54.7"/><path class="cls-1" d="M250.27,296.91v-.7h-.53c0,.46,0,.88.53.7"/><path class="cls-1" d="M250.81,296.21c-.06.23-.26.34-.17.7h.52c0-.32.18-.89-.35-.7"/><path class="cls-1" d="M251.69,296.21c-.05.23-.24.34-.15.7h.52c0-.32.17-.89-.37-.7"/><path class="cls-1" d="M252.59,296.21c-.05.23-.26.34-.17.7h.72c0-.47-.07-.76-.55-.7"/><path class="cls-1" d="M253.49,296.21c-.07.23-.26.34-.18.7h.7c.07-.47,0-.76-.52-.7"/><path class="cls-1" d="M254.37,296.21c-.05.23-.24.34-.16.7h.71c.06-.47-.08-.76-.55-.7"/><path class="cls-1" d="M255.27,296.21a.82.82,0,0,1-.17.53c.23.05.34.25.71.17,0-.47-.08-.76-.54-.7"/><path class="cls-1" d="M256.7,296.91v-.7h-.53c-.05.46-.06.88.53.7"/><path class="cls-1" d="M257.05,296.21v.7h.54c.06-.47-.07-.76-.54-.7"/><path class="cls-1" d="M258.51,296.91v-.7H258c-.05.46-.06.88.56.7"/><path class="cls-1" d="M259,296.21c-.08.23-.27.34-.18.7h.52c-.05-.32.18-.89-.34-.7"/><path class="cls-1" d="M259.74,296.21v.7h.72c.08-.54-.17-.78-.72-.7"/><path class="cls-1" d="M260.63,296.91c.56.16.56-.27.71-.54-.23,0-.24-.22-.53-.16-.05.23-.24.34-.18.7"/><path class="cls-1" d="M261.71,296.21c-.07.23-.25.34-.2.7h.74c0-.47-.07-.76-.54-.7"/><path class="cls-1" d="M262.6,296.21c0,.11,0,.2-.18.16-.05.48.25.59.72.54,0-.47-.08-.76-.54-.7"/><path class="cls-1" d="M263.49,296.21c-.06.23-.26.34-.17.7H264c.05-.47-.05-.76-.52-.7"/><path class="cls-1" d="M264.38,296.21v.7h.53c.06-.47-.06-.76-.53-.7"/><path class="cls-1" d="M265.27,296.21v.7h.54c.05-.47-.06-.76-.54-.7"/><path class="cls-1" d="M331.88,296.91v-.7h-.52c0,.46,0,.88.52.7"/><path class="cls-1" d="M332.43,296.21c-.05.23-.26.34-.18.7.84.23.86-.7.18-.7"/><path class="cls-1" d="M333.31,296.21c0,.23-.23.34-.18.7h.74c0-.47-.08-.76-.56-.7"/><path class="cls-1" d="M334.23,296.21c-.05.23-.27.34-.19.7h.71c.06-.47-.05-.76-.52-.7"/><path class="cls-1" d="M335.11,296.21c-.06.23-.26.34-.17.7h.7c.06-.47-.05-.76-.53-.7"/><path class="cls-1" d="M336,296.21c0,.23-.24.34-.15.7h.7c0-.47-.06-.76-.55-.7"/><path class="cls-1" d="M336.9,296.21v.7h.54c.05-.47-.09-.76-.54-.7"/><path class="cls-1" d="M338.34,296.91v-.7h-.54c-.05.46-.07.88.54.7"/><path class="cls-1" d="M339.23,296.91v-.7h-.56c0,.46,0,.88.56.7"/><path class="cls-1" d="M339.76,296.21c-.06.23-.26.34-.18.7h.71c.06-.47-.07-.76-.53-.7"/><path class="cls-1" d="M340.67,296.21c-.07.23-.3.34-.2.7h.72c.05-.47-.06-.76-.52-.7"/><path class="cls-1" d="M341.53,296.21c-.06.23-.24.34-.16.7h.7c.05-.47-.07-.76-.54-.7"/><path class="cls-1" d="M342.43,296.21c-.05.23-.23.34-.17.7h.7c.05-.47,0-.76-.53-.7"/><path class="cls-1" d="M343.35,296.21c-.08.23-.3.34-.19.7h.7c.06-.47-.05-.76-.51-.7"/><path class="cls-1" d="M344.23,296.21v.7h.54c0-.47-.08-.76-.54-.7"/><path class="cls-1" d="M345.12,296.21v.7h.51c.06-.47-.05-.76-.51-.7"/><path class="cls-1" d="M346.19,296.21c0,.23-.28.34-.17.7h.52c0-.32.19-.89-.35-.7"/><path class="cls-1" d="M347.08,296.21c-.05.23-.27.34-.19.7h.53c.06-.37,0-.65-.34-.7"/><path class="cls-1" d="M347.79,296.21v.7h.71c.09-.54-.15-.78-.71-.7"/><path class="cls-1" d="M348.86,296.21c-.06.23-.24.34-.16.7h.71c0-.47-.09-.76-.55-.7"/><path class="cls-1" d="M349.77,296.21c-.07.23-.28.34-.18.7h.72c0-.47-.09-.76-.54-.7"/><path class="cls-1" d="M350.64,296.21c0,.23-.25.34-.17.7h.71c.06-.47-.07-.76-.54-.7"/><path class="cls-1" d="M351.55,296.21c-.05.23-.27.34-.19.7h.72c.06-.47-.05-.76-.53-.7"/><path class="cls-1" d="M352.62,296.21c-.07.23-.26.34-.17.7H353c.07-.37,0-.65-.34-.7"/><path class="cls-1" d="M353.87,296.91v-.7h-.56c0,.46,0,.88.56.7"/><path class="cls-1" d="M354.76,296.91v-.7h-.53c-.05.46-.06.88.53.7"/><path class="cls-1" d="M355.66,296.91v-.7h-.54c-.05.46-.06.88.54.7"/><path class="cls-1" d="M356,296.21v.7h.71c.08-.54-.16-.78-.71-.7"/><path class="cls-1" d="M357.08,296.21c-.07.23-.27.34-.18.7h.72c.05-.47-.07-.76-.54-.7"/><path class="cls-1" d="M267.23,312.27c-.55-.19-.42.28-.69.36-.21-.73.36-1.19,0-1.61H266a8,8,0,0,1-.36,2.51c-.14-.43.36-1.53-.35-1.42-.45.19-.34,1-.35,1.59,1.29-.5.2,1.32,1.06,1.27.59-.27.13-1.56.56-2,0,.34-.24,1.06.34.89s.28-1,.35-1.61"/><path class="cls-1" d="M271.34,311.39c.2,1.64-.89,3.83,0,5,.63-1.12.55-3.82.55-5Z"/><path class="cls-1" d="M279.38,317.1c.7-.92.27-3.87.35-4.83h-.53c.22,1.56-.75,3.75.18,4.83"/><path class="cls-1" d="M270.79,312.81h-.68c.16.6-.4,1.94.36,2s.17-1.36.32-2"/><path class="cls-1" d="M272.78,312.81h-.55c.32.79-.68,1.8.2,2,.74,0,.17-1.36.35-2"/><path class="cls-1" d="M278.5,315.68c.38-.39.06-1.49.18-2.15h-.53c.17.63-.42,2.07.35,2.15"/><path class="cls-1" d="M280.45,315.68c.62-.13.42-1.75.18-2.15h-.53c.19.63-.4,2.07.35,2.15"/><path class="cls-1" d="M272.06,330.13c.93.42,2-.38,2.33,1.1.41,2-3.23,4.6-5.37,4.64-.63-1,.36-1.27.55-2-1.13-.66-1.81,1-1.26,2.15-.4.38-1,.58-.9,1.39s1.46,1.46,1.8.56-1.33.13-1.09-.72c2.31-1.19,5.46-1.88,6.64-4.47.95-2.15-.93-4.44-2.7-2.68"/><path class="cls-1" d="M330.46,334.07c-.27.69.79.07.71.53v1.08c-2.85.46-6.9-3.17-4.63-5.55.79,0,1.11.69,1.43-.18a2.07,2.07,0,0,0-2.86.37c-.26,3.74,2.51,5.78,6.06,6.26.26.35.86.32.71,1.07-.37.39-1-.44-1.06.35.41.91,2,.13,1.78-.72-1.13-.62-.22-4.36-2.14-3.21"/><path class="cls-1" d="M264.55,336.05c0-.57,0-1.07.36-1.26.95-.23.8.64,1.44.7.47-2.34-3.67-1.3-2.34,1.08-1.95,1-3,3.39-3.2,5.9-.05.74.72,1.61-.35,2-.77.16-.19-1-.9-.89-1,1.84,2.21,2.11,2.14.36,1.45.5,2.67-1,1.6-1.8-.48.42,0,1.26-1.24,1.26-1.65-2,1.24-6.9,3.21-6.43,1.22.28.36,1.31,1.27,1.77,1-1.39-.66-2.49-2-2.65"/><path class="cls-1" d="M335.3,334.79a3.63,3.63,0,0,1,.17,1.44c-1.63-.32-3.09,1.55-1.76,2.47.62-.12,0-.54.16-1.24,2.87-1.45,4.67,2.35,4.63,5.55-.5.37-.73.32-1.43.16-.22-.54.19-.73-.35-1.07-.69-.15-.22.86-.35,1.26a2.45,2.45,0,0,0,2.13.54c-.29,2,3.1,1.27,2-.36-.47-.16-.21.84-.89.89-1.06-.43-.3-1.42-.35-2.15A7.9,7.9,0,0,0,336,336.4c.38-.64-.08-.95,0-1.8-.62-1.21-3.2,0-2.12.89.38-.34.49-.92,1.43-.7"/><path class="cls-1" d="M258.32,345c-2.17-.57-5.06,1.42-6.25,3.2-.68,1-.18,1.95-1.63,1.8-.17-.73.53-1.23-.34-1.23-.4.16-.36.8-.36,1.42,1.31,1,2.28-.41,3.94.53.4-.25,1-.82.68-1.26-.79-.14-.45.84-1.42.54-.24-.16-.57-.26-.52-.73a5.81,5.81,0,0,1,6.09-3.55c.14.36.53.52.53,1.07.24.8-1,.61-.38,1.26,1.72,0,1.08-2.67-.34-3"/><path class="cls-1" d="M341.35,347.82c.53-.37-.63-.5-.33-1.25.17-.34.31-.74.71-.9,3.28-.06,4.95,1.47,5.87,3.77-.14.26-.26.57-.7.53-.86.24-.44-.76-1.25-.53-.31.43.28,1.15.89,1.26.8.08,1.06-.38,1.6-.54a1.83,1.83,0,0,0,2,.35c.19-.5.43-1.77-.35-1.81-.67.12.2.89-.36,1.27-1.12.12-1.09-1.37-1.81-2.32-1.1-1.47-4.36-3.56-6.41-2.53-1.09.58-1,3.48.16,2.7"/><path class="cls-1" d="M252.59,352.11c-.57.68.65.68.35,1.61-.35.31-1.43.26-1.6-.19.65-1.16-1-3.18-2.13-1.95,4.63,1.77-3.26,6.05-5.35,3.21-.13-1,1.27-.37,1.41-1.07-.26-.51-1.14-.37-1.6-.19a2.73,2.73,0,0,0-.36,1.61c-1.1,0-1.78.52-1.62,1.79.29.16,1.33,1,1.42.17.09-.66-1-.14-.69-1.05,2.94.34,6.89.46,8.55-1.8,1.82,1.49,4-1.6,1.62-2.14"/><path class="cls-1" d="M348.67,353.72c-.4.12-1.46.47-1.59-.19s.94-.77.34-1.42c-2.36.58-.15,3.65,1.64,2.14,1.55,2.49,5.93,1.84,8.56,2,.12.76-1,.36-.72,1.25.86.12,1-.41,1.43-.69.16-.65-.26-.71-.17-1.26a3.38,3.38,0,0,1-1.43-.56c.13-.73-.35-.82-.35-1.42-.51-.18-1.63-.39-1.63.37.55.31,1.58.1,1.44,1.05-2.21,1.59-6.87.36-7-2.49.2-.58,1.11-.45,1.61-.69-1-1.6-2.89.62-2.16,2"/><path class="cls-1" d="M239.37,359.45c1.06.21.4-1.29,1.6-.91,1.32,2.34-1.7,4.61-4.63,4.47-.17-.39-.54-.53-.54-1.07-.05-.85.95-.61,1.08-1.26-1.24-1.16-2.39,2.19-.9,2.87a1.38,1.38,0,0,0,.36,1.78c.74,0,1.39,0,1.42-.72-.31-.44-1.28.5-1.24-.52,2.77-.77,6.72-2.54,5.17-5.91a1.41,1.41,0,0,0-2.32,1.27"/><path class="cls-1" d="M361.56,363.52c.76.28,2.2-.2,2,1.1-.66.13-.87-.42-1.27,0,0,.68.7.73,1.42.69a1.58,1.58,0,0,0,.39-1.95c1.63-.45.23-4-.89-2.68.21.62,1.12.52,1.06,1.44-1.82,2.57-7.23-1.56-5-3.58,1.07-.28.38,1.18,1.44.91.09-1.37-1-1.87-2.16-1.45-1.72,2.68,1.23,4.68,3.06,5.52"/><path class="cls-1" d="M217.24,372.48c3.15-2.21,5.12-3.46,7.47-5.19,3.34.66,6.58,1.43,10,2a78.1,78.1,0,0,1-9.3,5.89c-3.44,1.9-7.27,4.13-10.71,4.5-1.94.19-4.12-.19-4.11-1.82,0-1.38,5.54-4.63,6.62-5.34m2.29,6.24a77.62,77.62,0,0,0,14.31-8c.81-.56,2.27-1.13,2-1.78-3.64-.84-7.52-1.42-11.09-2.33-2.63,1.51-4.45,3.16-7.65,5.35-1.37.95-6.7,3.74-7,5.37-.86,5.1,7.31,2.31,9.44,1.42"/><path class="cls-1" d="M386.19,375c1.44,1,5.11,3,2.16,4.46a7.5,7.5,0,0,1-2.87.19c-3.59-.36-7.26-2.56-10.7-4.5s-6.9-3.95-9.47-5.71c3.16-.88,6.72-1.35,10-2.14,3,2,7.1,5,10.88,7.7m-5.89,3.56c2.26.94,10.55,3.93,9.66-1.26-.18-1.09-2.11-2.09-3.24-2.84-4-2.79-7.42-5.21-11.06-7.69-3.55.32-7.78,1.5-11.6,2.16,3.71,3.47,10.33,7.17,16.24,9.63"/><path class="cls-1" d="M312.72,146.16l.17.12h0l-.17-.11"/><path class="cls-1" d="M308.33,139.89c.63.67,2,2.42,2.84,2.68-.21.25-.55.34,0,.55-.29.49-1-.1-1.26-.19.48-.67,0-.33.19-.9a7.05,7.05,0,0,0-1.61-1.07c-.37.13-.73.53-.37.89.24,0,.15-.32.21-.54.62-.14.74.2,1,.37-.66.89.26.31.38.89-.38-.06-.55,0-.53.36a27.87,27.87,0,0,1-5.7-5.57c.66-.08.86.35,1.57.22-.86,1.26,1.08,1.59.91,2.13.86.08.67.13,1.25-.17.17.2.69,1.37,0,.88-.23.6.7,1,.87.54,0-.2-.17-.09-.17,0-.05-.7-1.28-2.74.38-1.07m3,3.92a.35.35,0,0,0,0-.69c.74,0,1.64,1.46,2.69,1.78-2,1.42-3.29-.85-4.67-1.62a2.29,2.29,0,0,1,2,.53m-8.21-6.61a7.23,7.23,0,0,0-1.44-1.43c0-.34.5-.2.37-.7.61,0,.77.42,1.07.7-.1.41-.28-.2-.55.19a.91.91,0,0,0,.93.36c.11.54-.51.33-.38.88m-3.22-.52c-.41-.72-.05-2.2-.17-3.21.95-.32,2.09-1.38,2.84-1.27a4.36,4.36,0,0,1-2.67,4.48m-.34,0a5.05,5.05,0,0,1-2.69.34v-2.49a10.62,10.62,0,0,1,2.69-.89Zm-4.65,0c-.14-1.33.27-2.1.18-3.4h1.23c.5,1.55,1,4.72-1.41,3.4m-7.67,8.72c.09-.14.49-.24.17-.34a5,5,0,0,0,1.06-.7c-.09-.27-.25-.44-.35-.71-.16.07-.32.13-.35.35.51-.11.35.8-.53.73.09-.19.2-.35,0-.37-.06-.78.82-.58.88-1.24.26,1,2.23.16,2.67-.36-.42-.38-.42.45-.71-.38,0-.44.6,0,.71,0,.08-.3-.14-.32-.36-.35.26-.38.49-.82,1.26-.72-.22.23-.09.29,0,.54a1.47,1.47,0,0,1,1.07-1.07c-.61-.22-.36-1.34.37-1.24-.17.82.46-.26.53.35.3-.64,1.11-.78,1.43-1.43a.77.77,0,0,1-.18-.54h-.54c.76.38.05,1-.37,1.25-.21-.46-.67-.45-.53.37-.52-.27-.14-.41-.34-1.08.77-.41,1-1.35,2-1.61.19.47-.55.86,0,1.07.19,0,.08-.17,0-.17.05-.2.88-.07,1.27-.37a31.4,31.4,0,0,1-9.12,8m-2.33,0c.61-.76,1.69.47,2.5.21.23.76-2,0-2.5-.21m2-1.22c.29.3-.06.46.13,1.08-.51.12-.51-.34-1-.2.11-.46.81-.35.91-.88m5.51-5c.34,1.25-1.79,2.48-2.49,2.68-.17.79-.05.48.17,1.08a2.76,2.76,0,0,1-1.25.35c.34-1.62,2.62-2.56,3.57-4.11m0-3.74a12.72,12.72,0,0,1,.36-2c.45-.11,1.36,0,2.15-.19a15.08,15.08,0,0,0-.17,3.21,16.75,16.75,0,0,1-2.34-1.06m4.65-2.33a1.89,1.89,0,0,1,2.14.18,4.22,4.22,0,0,1-2.14.72Zm1.06-1.24c.76-1.48,4.25,0,4.46-.71-.6,1.4-3.13,2.64-4.46,1.24.14-.14.29-.5,0-.53m4.46-3.75c-.52.92-3.24.55-4.27.34.74-.82,2.94-.13,4.27-.34m-4.27-1.26c1.36.11,3.21-.24,4.27.17v.53c-.72.82-2.93.15-4.27.38Zm4.27-.54c-1.06.42-2.91.06-4.27.18,1.07-.42,2.9,0,4.27-.18m-.89-.35c.14.36-1.91.08-2.68.17.37-.58,1.64,0,2.68-.17m.89-1.26c-1.08.55-2.93.37-4.27.18,1.07-.42,2.9-.07,4.27-.18m0-.71c-.33.87-3.95.87-4.27,0a38,38,0,0,0,4.27,0m-.89-2c-.42-.11-.39-.68-.53-1.07.33.25.87.74.53,1.07m2.89,7.5c-.27.41-1.26.08-1.83.17.38-.54,1-.09,1.83-.17m.34,7.15c-.23.24-.55.34,0,.52-.36.53-1-.24-1.25-.35.57-.55,0-.31,0-1.08-.61.45-.53-1.05-1.42-.87.07-.28.25-.46.33-.72.85.77,1.47,1.75,2.34,2.5m1.77,2.49c.16,0,.19-.07.2-.17.44.46-.79.43-.73-.19,0,.74-.59-.06-1.08-.35a.51.51,0,0,1,.56-.35c-.49-.42-.18-.53-.56-1.09.57.69,1.92,1.19,1.61,2.15m-10.53-9.64h.17c.76.09-3.3-.2-.17,0m-1.78-.36c-.23-.22-.08-.29,0-.54.68-.07-.18,2.89,0,.54m-.71-4.29c-1-.2,1.27-1,1.61-1.6.42.68-2,1-1.61,1.6m-1.08-4.27v-.9c.22.38.69.52.7,1.06a1.07,1.07,0,0,0-.7-.16m.7,1.42c-.33-.07-.43-.39-.88-.34a1.15,1.15,0,0,0,.18-.92,1.06,1.06,0,0,0,.7.19Zm-1.59-.54c-.32-.31.15-.46,0-1.08.32,0,.39.24.71.2.07.42-.32.38-.19.88Zm-.18-2.5c-.59.17-.59-.24-.53-.72h.53Zm-.72.17h.54a1.14,1.14,0,0,1,.18.9c-.51,0-.84-.22-.72-.9m-3-5.88a1.29,1.29,0,0,1,.7,1.24c-.56-.07-1.06-.81-.7-1.24m3.92,6.06a1,1,0,0,0,.71.2v.87a1.12,1.12,0,0,0-.71-.17Zm2,1.79c.2.14.92.59.53.71-.12.27-.22,0,0,0-.12-.52-.38.18-.72,0-.06-.37.14-.47.19-.71m-.53,9.47h-5.36v-2.15h1.95c0,.5-.5.48-.71.72.53,1.71,1.71,1.08,2.86.71.25-.91-.45-.86-.7-1.25.3-.4,1.36-.07,2-.18a1.33,1.33,0,0,0,0,2.15M306.9,121c.32,0,.37-.22.72-.19,0,.28-.11.7.15.72,0,.38-.65.16-.69.54-.41,0-.11-.76-.18-1.07m.52-1.25c.58.33-.12.94-.34,1.06-.51-.29.38-.65.34-1.06m.35-.17c.26,0,.5,0,.56-.2.38,0,.08.65.16.9-.24,0-.49,0-.54.17-.38,0-.09-.63-.18-.87m.9,1.59a.78.78,0,0,1-.72.36c0-.28.1-.67-.18-.72,0-.25.56,0,.56-.36.48-.12-.14.86.34.72m0-2.86h.55V119c-.6.17-.58-.24-.55-.72m0,1.79a1.23,1.23,0,0,1,.18-.9h.52c.16.68-.17.88-.7.9m3.57-6.78c.72.21,0,1.21-.52,1.24-.09-.68.36-.85.52-1.24m-3.91,16.78c-.18-.23-.08-.58,0-1.07.62.14.24.84,0,1.07m1.42-.72a.85.85,0,0,0-.17.54c-.54,0-.18-.9-.73-.89.14-.41.52.4.9.35m-3.58-.89h3.41c-.46.64-1.75-.23-2.16.89.77,1.6,1.39.27,2.33.9.27-.19.45-.52.72-.71,0-.58-.56-.51-.72-.9.24-.4,1.25-.07,1.78-.18.21.53-.13,1.24,0,2.15h-5.36a1.19,1.19,0,0,0,0-2.15m0,9.13c-1.65-1.81-4.82-4.17-2.65-7,1.07.63,1.6.09,2.48-.36v1.42c1.9-.09,4.27.23,5.88-.17v-3.74c-1.61-.41-4-.08-5.88-.2-.12.4.22,1.18-.17,1.27-.26-.32-.51-.57-.74-.89.91-1.62,1.35-1.82,1.81-3.4,0,.12,0,.35.18.35.82-1.84,2.48-3.8,2.5-5.89.25.08.28.22.52,0,.52-2.75,3.4-4.11,3.24-7-1.6.36-2.09,2.07-2.87,3.21-2.57,3.69-5.45,7-7.71,10.9v-3.75c-1.45-1-1.81-3-1.41-5.54.4-.25.6-.72,1.41-.53a3.36,3.36,0,0,0-2.49-2.49c-.88.59-1.9,1.06-2.14,2.3,2.13.1,1.74,5.35.89,5.72-.2-.46.78-.62.19-.88-1.69.81-.76,4.26-1.25,6.25-2.64-5.57-7.15-9.28-9.82-14.82-.52,0-.74-.34-1.23-.37-.63,1.34.59,2.09,1.23,3,2.21,3.34,3.3,8,5.71,10.36-.51.25.31.62.17,1.07.33.35.58-.23.74.36-.93-.27.41.86.35,1.43-.84-.65-1.19.41-1.81.54v-1.27h-5.72v4.11h5.72c.13-.43-.2-1.28.19-1.42,1.36,1.2,4-.55,4.47,2.33-1.71,1.22-6.27-.44-7.33,1.43.49,1.71,2.68,1.71,3.76,2.85-3.1,2.74-5.6,6.06-9.46,8.05-.71,1.47-3.54,1.65-3.21,3.55.51-.76.42.2.34.18a4,4,0,0,0,3.75-1.59c.05.74,2.38-1.3,3.22-2,3-2.34,6.09-5.47,8.39-7.7a7.26,7.26,0,0,0,4.11-1.4,48.68,48.68,0,0,0,11.19,10.2c-.27-.19-.58-.47-.29-.55,1.23,0,1.78-.77,2.49-.21-.57.42-1.68.25-2.12.73a1,1,0,0,0,.08.14l.08,0-.07,0c.72,1.05,3.89,3.42,5.45,1.63-3.32-3.07-8.71-6.54-12.17-10.33"/><path class="cls-1" d="M312.43,145.26c.69.16.72-1.08.18-1.08-.07.3.27.46,0,.53-.53,0-.67-.41-.89-.72.29-.07.45.27.52,0-.27,0-.13-.44-.52-.34-.66.82.55,1,.71,1.61"/><path class="cls-1" d="M274.76,179.36c.07-.75.61-1,.69-1.79.93,0,1.16.76,1.95.9a13.05,13.05,0,0,0-.88,2,18.32,18.32,0,0,1-1.76-1.07m5.33-3c.68.28,1.12.79,1.8,1.08a11,11,0,0,0-.9,2,8.38,8.38,0,0,0-1.79-1.09,14.36,14.36,0,0,1,.89-2m4.84-.71c1.65.95,1.68,1.93.16,3-1.42-1.13-1.43-1.75-.16-3m4.46-.35a8.63,8.63,0,0,0,1.61,1.06c0,.92-.74,1.15-.91,2-.67-.29-1-1-1.76-1.23a11.3,11.3,0,0,0,1.06-1.78m-11.07,3.21c1.11.5,1.79,1.4,3,1.79a10.45,10.45,0,0,1,1.6-3,10.39,10.39,0,0,0,2.35,2.51,11.25,11.25,0,0,1,2.14-2.51c1,.57,1.68,1.53,2.86,2,.44-1,1.31-1.65,1.62-2.86a17.62,17.62,0,0,0-2.72-2.13,20.56,20.56,0,0,1-1.76,2.85c-1-.67-1.43-1.9-2.5-2.49a21.15,21.15,0,0,1-2.32,2.67,8.38,8.38,0,0,0-2.88-1.78,8.39,8.39,0,0,1-1.59,2.83,12.35,12.35,0,0,0-2.88-1.77c-.39,1.14-1.2,1.89-1.41,3.23,1.25.29,1.68,1.4,3,1.58a12.6,12.6,0,0,1,1.43-2.84"/><path class="cls-1" d="M248.31,135.77c1.44,1,.9,3.34-.73,3.4-2.08.08-2.71-3.86.73-3.4m-3,2.15c.5,1,.89,1.69,2,1.79,3.6.34,3-4.94-.19-4.47-.79.12-1.46.43-1.61,1.77,0-13.29,7.73-20.48,20.37-21.78-.18,1.44-.92,2.3-1.07,3.76-3.31-4.41-6.73,4.73-1.08,3,.28,2-2.28,1.83-3.2,2.14a13.41,13.41,0,0,0-9.12,13.94,17.07,17.07,0,0,0,2.86,8.21,14.21,14.21,0,0,0-3.39,5.37c1.21,1.18,3,1.72,4.65,2.49-.32,1.21-1,1.6-1.1,2.68-.59,5.5,7.28,6.1,8.24,1.23h1.25c-.06,4.27-4.52,7.47-8,5.2-2.12-1.38-2.46-4.55-2.5-8.22-.73,0-1.24.3-2,.36-1.79-2.08-3.19-4.55-5.18-6.42,0-4-1.16-6.82-.89-11.09m15.88-17c-.25-2.25.91-2.61,1.81-2.5,3.07.41.11,5.46-1.81,2.5m13.77,26.25c-.72,0-.47-.45-.36-.88.4,0,.37.45.36.88m18.56-40.71c.29,4.27-6.19-.24-2.13-1.43a1.48,1.48,0,0,1,2.13,1.43m-1.59-4.1a11.14,11.14,0,0,0,1.79,2.67c-1.08-1.19-4.17-.74-4.11,1.6.09,3,5.49,3.12,4.28-1.07a66.27,66.27,0,0,1,3.57,5.71c-1.17,1.55-2.49-.1-3.57-.71a14.31,14.31,0,0,0-7.13-2.13c-12.94,0-18.59,20.39-9.65,29.29-1,1.46-2.16,3.4-1.78,5.37s3.42,2.56,4.1,4.26c-3.7,6.67,7.39,10.16,7.52,2.86a9.21,9.21,0,0,0,2.12-.35c1.17,1.17,1.49,2.76,2.86,3.4,4.3,1.93,7.74-4.19,4.28-7.33a7.87,7.87,0,0,1,1.79-1.6c.36-.28,1.43-1.6,1.79-1.6.94-.06,2.71,2.76,3.77,3-5.37,5.76,5.15,11.5,6.78,4.1a20.08,20.08,0,0,0,2.5.35c.32,7.45,11.12,3.78,7.49-3.2a29.22,29.22,0,0,0,4.08-3.58,8.27,8.27,0,0,0-1.93-5.89c11.05-10.31.62-34.81-15.19-27.68-1.55.69-2.94,2.44-4.64,1.6.11-1.7,2-3.1,2.67-4.83.14,3.06,4.57,3,4.66.18a2.29,2.29,0,0,0-3.24-2.15,7.92,7.92,0,0,1,1.42-2.13,20,20,0,0,1,17.52,3.74c5.1,4,8.88,8.65,9.47,16.63.49,6.6-2.33,11-2.52,17.66a10.54,10.54,0,0,0-5.17,4.47,29,29,0,0,0,1.63,4.12c-1.09,1.34-2.63,2.08-2.87,3.93a4.26,4.26,0,0,0,7.13,3.75c.63.29.79,1,1.63,1.06-5.48,7.88-14.69-4.46-8.76-9.82-.35-1.13-1-2-1.41-3-.76.81-1.4,1.74-2.17,2.5,2.64,4-1.74,10-6.24,9.48-2.93-.36-3.78-3.13-4.65-5.9-1.39,1.11-1.41,2.85-2.49,3.75a6.45,6.45,0,0,1-2.14,1.09c-4.77.89-8.76-6.11-5.55-9.85-.53-.82-1-1.69-1.61-2.48a7.79,7.79,0,0,0-1.6,2.31c2.49,3.61.18,9.45-3.74,10-3,.4-4.86-1.83-6.25-3.95-1.16,4-5.26,6.37-8.59,4.11-2.45-1.67-5-6.6-3.4-9.27-.36-1.31-1.48-1.87-2.31-2.69-.42.88-.58,2-1.07,2.86.36,1,1.31,1.41,2,2.14,2.73,7.56-4.91,14.25-10.54,8.74A3.52,3.52,0,0,0,266,157c5.81,4.32,10.15-5.49,4.28-7.68.38-1.59,1.71-2.72,1.63-4.11-.16-2.34-3.4-3.57-5.21-4.66.17-6.16-3-10.9-2.3-16.6,1.48-12.21,12.54-24.41,27.51-21.6m31.62,40.73c-1.22,1.37-2.95,2.29-4.13,3.75,3.38,6.2-5.87,9.87-5.7,2.67a34.35,34.35,0,0,0-3.74-.53c-1.08,1.44-1.56,3.61-3.59,3.75-3.74.21-4.39-5.2-1.42-7-1.62-1.42-3.4-2.67-5-4.11-1.9,1.14-3.25,2.81-5.18,3.93,2.78,1.93,2.4,7.17-1.26,7.15-2,0-2.79-2.06-3.55-3.75-1.33,0-2.35.4-3.76.35.32,7.09-9.53,3.94-5.73-2.32-1.27-1.46-3-2.52-4.28-3.92.1-2.54.86-4.41,2.34-5.55-9.56-7.46-4.11-27.75,7.67-28.23,4.49-.17,7.18,2.07,10,3.94,1.51-1.79,5.94-2.69,7.16,0,2.94-1.71,5.38-3.91,9.63-3.94,12.21-.08,17.92,20.66,8.22,28a8.39,8.39,0,0,1,2.33,5.75m-16.26-37.87c1.51-.47,2,.37,2.12,1.24.54,4.55-6.33,0-2.12-1.24m-10.18-12.7c1.17.8,1.67,2.25,2.49,3.4a52.19,52.19,0,0,1-3,4.81c1.11,1.95,2.41,3.69,3.59,5.54,1.7-1.38,2.58-3.6,3.93-5.35a27.37,27.37,0,0,0-3-4.83c.78-1.28,1.63-2.51,2.52-3.74,1.64,2.51,3.36,5,4.81,7.68-2.06,3.58-4.5,6.82-6.61,10.34-.92.35-2.51,0-3.4.38-1.9-3.51-4.29-6.56-6.27-10,1.49-2.92,3.43-5.39,5-8.21m5.87,8.21a15.3,15.3,0,0,1-2.83,4.12A24.79,24.79,0,0,0,297.6,101a44.17,44.17,0,0,1,2.67-4.29,31,31,0,0,1,2.67,4.1M294,85.58c1.8-3.6,4.3-6.52,6.25-10,2.49,2.94,4.32,6.56,6.63,9.66-2,3.41-4.44,6.41-6.44,9.82-2.31-3-4.24-6.37-6.44-9.48m41.44,33.58c2.76-3,4.5,3.74.53,2.52-.31-.7-.28-1.73-.53-2.52m.18,32.69c4-.74,4,5.23.9,5.54s-4.58-4.85-.9-5.54m-2.86,4.48c-2.69,1.89-6.08.12-5.73-3,.26-1.9,2-2.63,3.41-3.75-.68-1.3-2.06-2.74-1.95-4.13.13-2.13,3.32-3.26,5-4.27.07-6.37,2.56-10.33,2.5-16.78,9.89.64,14.69,13.87,7.87,22.32a8.36,8.36,0,0,1,3.56,4.8c-1.6.77-3.06,1.68-4.81,2.34,2.27,2.4,1.75,7.31-2.13,6.79-1.42-.19-1.91-1.33-2.69-2.52,2.58-1.37,2.62-6.38-.54-7.12-2.22-.52-3.78.74-4.66,2.49a18.18,18.18,0,0,0,.19,2.87m22.34-21.09c.26,3.61-.55,7.39-.89,11.63a10.69,10.69,0,0,1,0,2c-.73,2.37-4.1,3.6-5,6.24a14.82,14.82,0,0,0-2.68.36c.27.85.88,1.38,1.06,2.31-1.86,2.45-2.39,6.36-6.41,6.44-3.19.06-5.4-2.34-5.73-6.09,2.47-.1,2.23,3,4.46,3.41a4.2,4.2,0,0,0,3.94-7,46.53,46.53,0,0,1,4.81-2.69,11.85,11.85,0,0,0-3.55-5.35c5.73-7.75,2.27-18.68-5.2-22-.61-.27-1.56-.45-2.31-.7-.47-.19-1.91-.06-1.62-1.27,1.43-.16,3.08-.72,3.05-2.5a2.15,2.15,0,0,0-3.58-1.61,21.62,21.62,0,0,1-.9-3.22c11.56.71,19.71,8.42,20.56,20M348,156.68c0-.32-.23-.37-.17-.7h.71c-.05.33-.05.76-.54.7m-4.65,9.64c-1.06-.27-1.74-1-2.83-1.25,1.24-.28,2.83-.27,3.57-1.06.27.57-.57,1.57-.74,2.31m-13-5c1.71-.4,3.44-.8,4.46-2,.56,1.45.92,3.14,2.14,3.94-1.94-.24-4.23-1.61-6.6-2m-58.07-1.4c2.41-1.31,3.89-3.55,3.75-7.35,1.13,1.32,1.46,3,3,4.12,3.14,2.26,8.26.76,9.3-2.86,3.2,4.7,10.3,3,11.78-2.34.16,6,9.85,7.09,11.24,1.45,1.2,6.73,10.49,5.89,12.16-.17.47,3.32,1.27,6.3,3.91,7.49-11.94-2.83-31.28-4.26-46.25-2-3,.45-7,1.2-8.94,1.62m-10,3.74c.46-1,2-2.37,2.13-4.3a10.38,10.38,0,0,0,5,1.43c-2.34,1-5,1.66-7.13,2.87m-1.79-8.4c-.4-2.14.61-3.07,2.14-3.4,2.37-.52,3.7,1,3.38,3.22-.42,3-5,3-5.52.18m-8.57-3.77c.81-1.91,1.68-3.75,3.57-4.61-6.31-8.72-2.92-20.76,7.68-22.51.15-.06.16.07.18.17.13,6.17,2.46,10.14,2.49,16.43a15.75,15.75,0,0,1,5.17,4.1,16.75,16.75,0,0,1-2,4.48c1.38,1.21,3.3,2,3.41,4.1a3.46,3.46,0,0,1-5.89,2.5c2.31-6.56-8.4-6.68-6.8-.55a3,3,0,0,0,2,2.15c-.7,1.26-1.16,2.62-2.48,2.87-4,.75-5.09-4.46-2.34-6.62-1.66-.83-3.33-1.66-5-2.51M255.62,164a4.94,4.94,0,0,0,4.28.36c.26.68-2.95,1.49-3.57,2.49a8.89,8.89,0,0,0-.71-2.85M339,167.58c-18.6-9.43-59.43-9.43-78.41-.17-1.28.62-2.64,2.25-4.3,1.41,0-1.65,1.91-2.07,3.05-2.67,8.43-4.52,19.25-7.28,31.79-7.86,18.26-.85,35.82,1.72,48.22,7.3,1.63.75,4.14,1.3,4.12,3.41-1.64.75-3.17-.77-4.47-1.42m-40-5c2.62.95,4.35,2.8,6.8,3.93-1.78,1.78-4.07,3.07-6.07,4.65-2.35-1.18-4.35-2.69-6.6-3.93,1.58-1.93,4.16-2.87,5.87-4.65m-38,12.17c1.11-2.37,2.58-4.34,3.75-6.63,2.56.48,5.08,1,7.49,1.62-1.15,2.37-2.82,4.21-4.1,6.42-2.43-.43-4.68-1-7.14-1.41m78.77.35c-.59,1.59-1.76,3.39-2,4.83-.13,1,.69,4.16-.54,3.92.45-3.51-3.44-4.84-6.95-6.26-18.54-7.51-52.73-7-67.7,2.86-.34-1.35-1.32-3.4-1.79-5.18,2.73-.19,5.14,2,7.32,1.44,1.1-.29,2.05-2.63,2.66-3.57,1-1.47,1.79-2.61,2.51-3.77-2.77-.73-5.85-1.14-8.56-1.94-1.74,2-2.68,4.81-4.47,6.77a45.12,45.12,0,0,0-1.61-4.28c9.94-6.2,24-8.27,40.2-8.22-2.23,1.94-4.84,3.51-7.13,5.38a73.89,73.89,0,0,0,7.83,5c2.85-1.51,5.06-3.62,7.69-5.36-2.36-1.75-5-3.25-7.5-4.82,16.49-.53,31.4,2.09,41.77,8.2-.56,1.46-1.07,3.17-1.76,5m-5.53,10.18a6,6,0,0,1-.74-2.17,2.53,2.53,0,0,0,1.62-.69c.7.27.57,1.32.88,2-.54.34-1.22.54-1.76.89m-4.3-.53a8.77,8.77,0,0,1,2.85-1.43,19.39,19.39,0,0,1,.71,2.49c-1.77.21-2.47-.63-3.56-1.06m-30.54,9.81a63.52,63.52,0,0,1-31.79-8.4c16.46-8.37,48.16-8,64.12.54-8.25,4.87-19.4,7.86-32.33,7.86m32.5-11.78c-.64.24-1,.78-1.79.89a13.07,13.07,0,0,1-.7-2,3.15,3.15,0,0,0,1.59-.89c.56.42.66,1.26.9,2m-66.08,0a12,12,0,0,0,.73-1.79c1-.12,1.08.69,1.95.71-.08.8-.73,1.06-.7,2a11.21,11.21,0,0,1-2-.89m-1.26,3c-.34-.78.45-1.8.54-2.7a26.93,26.93,0,0,1,2.7,1.64c.77-.72,1-2,1.43-3-.58-1-1.92-1.18-2.87-1.77a18,18,0,0,0-1.26,2.85,20.09,20.09,0,0,1-2.49-1.08c16.55-11.34,55.91-10.73,73-.37a10.12,10.12,0,0,1-2.86,1.45c-.46-.92-.79-1.94-1.23-2.85-1.2.29-1.81,1.15-3,1.4a12.88,12.88,0,0,0,1.23,3.06c-15-6.3-41.5-7.17-58.21-1.07-2.39.85-4.45,2.49-7,2.49m-.89-.53c-.6-.3-1.18-.61-1.77-.89,0-.81.43-1.23.53-2a14.63,14.63,0,0,1,2,.9c-.29.59-.41,1.35-.72,2m-12-29.12h.74c-.15.73.28.92.17,1.6a4.3,4.3,0,0,1-.91-1.6m-.71.72c1.26,2,4,6.68,4.3,9.1.12,1.16-.48,2.22,0,3.22.4.85,1.66,1.07,2.68,1.43,1.27,4.47,4.64,8.38,3,14.12,1,.21,1,1.16,2,1.6s2.15,0,3.58.35c2.25.55,4.56,2.56,7,3.58a69.34,69.34,0,0,0,26.61,5.18,64.75,64.75,0,0,0,26.43-5.18c2.43-1.06,4.63-2.63,7.15-3.58,1.67-.61,3.35-.34,4.44-1.77s.44-2.94.74-5c.41-3.17,3-6.11,3.39-9.3,2.25-.14,3-2,1.95-4.12a62.17,62.17,0,0,1,7.68-13.38c1.11-1.4,2.87-2.78,3.23-3.93a13.88,13.88,0,0,0,0-2.14c.36-4,1.17-8.63.9-12.34-1-12.78-9.61-19.39-22-20.35-5-7.52-12.07-14.81-25.19-13,.11-.58,1-1,.52-1.61-1.65-2.86-3.63-5.4-5.16-8.41,1.22-2.09,2.8-3.85,3.91-6.05-2.73-3.73-4.95-8-7.85-11.61-2.37,4-5.12,7.72-7.49,11.77,1.11,2.18,2.72,3.83,3.74,6.08-1.59,3.32-4.9,6.71-5.52,9.83-13.07-1.77-19.57,6-25,13-13.69,1-21.81,9.59-21.79,23.76,0,4,1,7.1,1.08,11.25a58.63,58.63,0,0,1,5.7,7.5"/><path class="cls-1" d="M209.72,376.59c.81-1,2.72-1.87,4.1-2.87A117.86,117.86,0,0,0,226,364.26c1.21.44,2.79.06,3.75,1.06.6.32,1-.16,1.79-.18a9.57,9.57,0,0,0,1.43,1.08c1.77-.49,2.5.25,3.57.89,6-.88-1.18,3.73-2.49,4.63a67.32,67.32,0,0,1-11.8,6.62c-2.75,1.25-6.37,3.59-10.9,2.5a2.66,2.66,0,0,1-1.61-4.27m64.13-53a415.31,415.31,0,0,1-33.4,31.07c-3.88,3.22-7.72,6.75-12.33,9.12,16.73-11.92,31.24-26,45.73-40.19m-11.6-5.91A33.78,33.78,0,0,1,264,307.1c3.9.13,7.23-.29,11.09-.17A123.33,123.33,0,0,0,274,323a83.9,83.9,0,0,1-11.78-5.36m-1.1-.53A17.73,17.73,0,0,1,263,306.93c.14,1.82-.92,4.91-1.25,7.67-.11.88.23,1.91-.56,2.5M259,312.81c-.72.06-.61,1.56.17,1.61-.41.26-.35.95-.89,1.07-.18-2.11.34-3.57.54-5.36.35.24,0,1.18.88.9-.39.33-.86.59-.7,1.42a.71.71,0,0,0,1.23.19c.19-.53-.41-.33-.71-.37.16-.61.33-.07.9-.16,0-.52-.11-1.18.17-1.42-.05-.64-.54-.81-1.07-.91.36-.52,1.47-.26,1.73-.87-.2,1.8-1.25,4.83-1,7.67-1.26-.6,1.11-3.37-1.23-3.77m-1.26-.36c-.53-.07-1.29-.84-1.08-1.06s.77-.18,1.25-.18c.11.57-.13.83-.17,1.24m-.19,2.52c-.26-.29-.93-.15-.89-.71.34,0,.59-.12.71-.38.41,0,.06.77.18,1.09m-1.8-3.05c.76.23,1,.9,1.62,1.26a3.37,3.37,0,0,1-1.43.7,2.52,2.52,0,0,1-.19-2m-1.23-2.14c.54,0,.9-.16,1.06-.56.47.37-.39.92-.16,1.64-.36-.31-.84-.49-.9-1.08m2-.56c.55.19.58.86,1.07,1.08-.24.51-1.14.32-1.61.56.19-.56.38-1.08.54-1.64m1.26-2.29c.61-.08.54.53.88.71-.44.34-1.22.31-1.78.53.14-.58.64-.79.9-1.24m1.08,1.43a6.33,6.33,0,0,0-.54,1.59c-.42-.36-1-.59-1.08-1.24a16,16,0,0,0,1.62-.35m.7-1.8a.8.8,0,0,0-.18.54c-.5.13-.37-.35-.72-.35,0-.39.64-.1.9-.19m.9.19c-.37.35-.14,1,0,1.42-.57-.15-.7.16-.9.35s.25-1.71.9-1.77m1.05.52c.2,0,.16-.21.2-.34.54.21-.22.61,0,1.06-.07-.47-.67-.4-.72-.89a.81.81,0,0,0,.52.17M282.43,306c-.2,1.91.21,4.63,1.77,5.36-.26,4.62-.7,9.06-.71,13.94-3.41-.14-5.92-1.21-8.76-2a108.31,108.31,0,0,1,1.08-16.59,36.27,36.27,0,0,0,6.62-.72m.7,0c2.76-1.37.93,2.43,1.26,4.27-1.51-.33-1.25-2.43-1.26-4.27m14.64,1.79a84,84,0,0,1,0,16.25,29.33,29.33,0,0,1-13.57,1.42,132,132,0,0,1,.73-14.1c4.65-.15,8.88-2.17,12.84-3.57m-12.31-2.32a31.4,31.4,0,0,0,5.18-1.26c2.35.92,4.62,1.92,7,2.86-3.83,1.47-8,3.52-12.67,3.59.24-1.66.2-3.63.53-5.19m3.22-8.76c.85-1,2.6-1.09,4.28-1.25-.07,1.84-2.77,1.9-4.28,1.25m-.54.71c.86.09,2,1.41,2.31,2.7-.94-.71-1.4-1.94-2.31-2.7m-2.33-1.78c-.43-.39-1.16-.48-1.25-1.25,2.18-1.31,6.1-3.22,9.29-1.77-2.94.58-6.88.55-8,3m-2.15-2c1.16-.49,2-1.29,3.6-1.42-1.3.24-2.7,2-3.6,1.42m-1.05-.53a4.61,4.61,0,0,1,4.3-1.79,15.1,15.1,0,0,1-4.3,1.79m-.72-1.6h-8c.06-.2.31-.44.36-.19,2.3-.05,4.46,0,7.13,0,.24-.05,1.11,0,.55.19m-11.78.36c0-.18.21-.14.36-.19,1.07,1.19,1.72,2.37,3.56,2.14.93-.08,1.46-1.36,2.67-.88-1.36,2.9-5.91,1.23-6.59-1.07m-5.37-.9c-.83.12-.83-.31,0-.17h4.83c.52-.25.77.08,1.59,0-1.77.4-4.34.07-6.42.17m1.61,2.85h-27.5V283.35h27.5v2H263.3v6.25c.67.42,2.09.07,3.05.17Zm-.19,4.13c-9-.25-18.92.46-27.31-.37.92-1.21-.46-1.61.52-2.14.18-.65-.87-.08-.52-.89h27.5c-.27,1.24.13,2.19-.19,3.4M239,279.78c8.67-.19,19-.52,27.34.18-1.25.69.79,1.45-.73,1.77-.22.8,1,.21.73,1.09h-27.5c.16-1.14,0-2.14.16-3m32,6.42c-2,.42-4.68.07-7,.19,1.58-.72,5.12-.36,7-.19m-7,1.07c.86-.42,2.45-.07,3.59-.18h3.56c-2,.42-4.81.07-7.15.18m0,.9c.86-.41,2.45-.06,3.59-.18h3.56c-2,.41-4.81.07-7.15.18m7.15,1.62a14.91,14.91,0,0,1-7.15,0Zm-7.15-.91h7.15a14.43,14.43,0,0,1-7.15,0m10.2-4.45c.35.54-1,.61-1.08,1.23-.26,2-.44,5.27.37,6.8-.59.11-.85-.12-1.27-.19-.93-1.79.37-5.82-1.07-7.12.08-1.25,2.31-1.77,3-.72m2.31.51c-1.6-.61-2.65-3.4-5.16-2,1.14-1.83,5.23.39,5.16,2m1.44,1.45h4.47a44.94,44.94,0,0,1-6.62.18c-1.14,0-2.9-.06-1.08-.18.72-.05,2,0,3.23,0m1.6-4.85c-.53-.16-1.3-.12-1.41-.7.45-1.08,1.82-1.11,1.41.7m-2.16,1.28a13.34,13.34,0,0,0-1.77-2.86c3.44-2.41,7.31-4.37,10.72-6.81.29.88,4.29,5,4.46,6.27.06.41-.29.82-.17,1.23-2.05.81-3.35,2.37-5.55,3.06,1.4-1.42,3.39-2.23,5-3.4-.58-2-2.64-4.13-3.92-6.1-3.29,1.76-6.25,3.77-9.28,5.75a35.31,35.31,0,0,0,3,4.82c-1.4.62-2-1.09-2.52-2m8.41-10.55c.38.11.39.27.19.54-3.75,1.86-7.25,4.89-10.9,6.23,3.38-2.47,7.25-4.42,10.71-6.77m-19.46-7.69c3.78-2,7.16-4.51,11-6.45,2.9,4.33,5.34,9.14,8.23,13.41-3.42,2.41-7.3,4.38-10.71,6.79-3.05-4.38-5.74-9.15-8.57-13.75m-.89-1.25c3.2-2.61,7.32-4.36,10.7-6.78.51,0,.46.5.73.7-2.33,1.91-5.84,3.75-8.76,5.52-.76.49-2,1.83-2.67.56m-.72-1.24c.31-.93,1.61-1.25,2.49-1.79,1.88-1.17,3.72-2.41,5.73-3.59.84-.49,1.93-1.52,2.85-1.06-.22,1-1.58,1.22-2.51,1.78-1.85,1.12-3.7,2.37-5.7,3.57-.82.49-1.93,1.6-2.86,1.09m-.36-4.84c1.08.6,1.93,1.41,3,2a12.44,12.44,0,0,1-3,1.77c.3-.86-.18-2.39,0-3.75m-.53,3.23a16.72,16.72,0,0,1-1.43-2.35c1.2-2.09,1.53.64,1.43,2.35m3.75-2c-1-.52-1.89-1.23-2.86-1.8.65-.8,1.77-1.09,2.49-1.77.82.5.15,2.46.37,3.57m.89-4.12c.79-.54,1.92-1.59,2.87-1.42a20.64,20.64,0,0,0,.18,3.21,21.62,21.62,0,0,1-3.05-1.79m-.36.55a24.54,24.54,0,0,0,3.23,2,22.72,22.72,0,0,1-3.05,1.77,29.7,29.7,0,0,0-.18-3.73m-4.47.36c2.5-1.5,5.71-3.51,8.23-5,.36.05.34.48.71.53a83.75,83.75,0,0,1-10.71,6.44c-.78-1.11,1.11-1.56,1.77-1.95m-1.41-4.13c1.28.54,2.52,1.18,3.73,1.8a31.85,31.85,0,0,1-4.83,2.86c.34-1.57.89-3,1.1-4.66m-3.93-1.42c1,.38,2.11.74,3.19,1.06.12,1.71-.56,2.65-.7,4.13a49.6,49.6,0,0,1-2.49-5.19m.19-5.73c1.5.07,2.26.93,3.74,1.08a27.28,27.28,0,0,1-.54,5.18A29.08,29.08,0,0,0,258,249c.13-1.7.29-3.39.56-5m-4.15-2.33a10.77,10.77,0,0,1,.2-4.1c1.25.18,2.15.7,3.39.89a35.9,35.9,0,0,1-.17,4.49,33.94,33.94,0,0,1-3.42-1.28m3.05,6.08c-.92-1.57-1.58-3.4-2.5-5a13.64,13.64,0,0,1,2.87.91c0,1.44-.27,2.71-.37,4.09m-3.21-15.53c-1.06-.26-2-.58-3-.91.38-.69.1-2,.16-3.05a28.09,28.09,0,0,1,2.88.75Zm-.36,4.28c-2.64.12-3.21-1.86-2.68-4.47a20.12,20.12,0,0,0,2.85.73,17.41,17.41,0,0,1-.17,3.74m-.16,3.22a11.06,11.06,0,0,1-1.45-2.87c.71,0,.91.42,1.61.37.13,1-.29,1.47-.16,2.5m-4.84-16.26a6.68,6.68,0,0,1,.18-2A2.63,2.63,0,0,1,251,224c-.77-.09-1.32-.45-2.13-.52m2,3.94a8,8,0,0,0-2.15-.56,14.93,14.93,0,0,0,.18-2.68,15,15,0,0,1,2.13.56c.08,1-.3,1.6-.16,2.68m-.17,3.75a5.87,5.87,0,0,1-2.15-.73,25.91,25.91,0,0,1,.17-3,20.79,20.79,0,0,1,2.15.7,17.54,17.54,0,0,0-.17,3m-.19,2.49c-.53-.57-.75-1.38-1.24-2,.23-.44.91.17,1.24.2Zm-2.14-13c-.59-.18-1.23-.35-1.8-.55.39-.94,2.18-1.36,1.8.55m0,2.48a4.12,4.12,0,0,1-2-.53c.34-.33.13-1.18.17-1.78.6.18,1.23.33,1.8.54Zm-.19,3.41a5.05,5.05,0,0,1-2-.53,8.77,8.77,0,0,0,.18-2.69,5.54,5.54,0,0,0,1.78.54Zm-.17,2.69a14.17,14.17,0,0,1-1.25-2.35c.5,0,.74.34,1.25.37Zm-2.16-6.82a6,6,0,0,1-2-.52c.72-.85,2.51-2.11,2,.52m-.17,2.52a8,8,0,0,1-1.07-2.15,2.65,2.65,0,0,0,1.24.35c.08.73-.3,1-.17,1.8m-2.48-4.65c1.54-.14,3.22-3.23,4.28-1.59a20.74,20.74,0,0,0-3.76,2.48c-.36-.13-.46-.47-.52-.89m3.37-3a20.32,20.32,0,0,1-3.74,2.5,14.23,14.23,0,0,1,3.74-2.5m-10.71-9.12a12.55,12.55,0,0,0,2.67-1.78c1.85,2.64,3.35,5.6,5.19,8.22-.55.71-1.52,1-2.15,1.61a92.31,92.31,0,0,1-5.71-8m-.72.71a52.13,52.13,0,0,1,5.72,7.89,34.08,34.08,0,0,1-5.72-7.89m3-3.2c-.7.79-1.83,1.17-2.52,1.95a8.21,8.21,0,0,1-.35-2.85c1.19.05,1.84.68,2.87.9m6.26,8.57a51.83,51.83,0,0,1-5.18-8.4,39.47,39.47,0,0,1,5.18,8.4m1.23,2.52c.57-.1-1.76,1.23-2.33,1.77-.65,0,1.72-1.3,2.33-1.77m5.92,8.2c1.55.55,2.18,2,2.82,3.37a12.94,12.94,0,0,1-2.82-.68Zm3.19,8.23c1.12.26,2,.68,3.22.9v3.74c-1.27-.16-2.18-.69-3.39-.91-.13-1.44.28-2.31.17-3.73m.18-3.93a7.53,7.53,0,0,1,3,4.1,18.67,18.67,0,0,1-3.22-.91,23.23,23.23,0,0,0,.18-3.19m3.75,9.62c1.43.33,2.48,1,3.94,1.26-.36,1.21-.11,3-.18,4.49-1.28-.53-2.73-.86-3.91-1.44-.16-1.64.23-2.75.15-4.31m0-4.45c1.88,1.12,2.92,3,3.94,5-1.49-.23-2.51-1-3.94-1.26Zm8.76,12.69c-.32,1.76-.45,3.74-.74,5.53a23.43,23.43,0,0,0-4.26-2c.17-1.76.39-3.42.54-5.19,1.48.55,3.06,1,4.46,1.62m-4.28-6.61c2,1,2.84,3.22,4.46,4.64a3.14,3.14,0,0,0-.18,1.25c-1.4-.62-3-1-4.46-1.62a26.48,26.48,0,0,0,.18-4.27m8.4,9.11a18.43,18.43,0,0,1-4.12,2.51c.23-1.56.4-3.19.53-4.84a5.37,5.37,0,0,1,3.59,2.33m-3.41-3.75c.45.16.56.62.89.87-.29.42-1.14-.12-.89-.87m6.79,8.94a22,22,0,0,1-2.69,1.61c-.27-1-.11-2.53-.34-3.59a26.74,26.74,0,0,0,3,2m-.53-1.27c-.54.06-1.46-1-2.33-1.25.32-.24.48-.58,1.07-.53a11.59,11.59,0,0,0,1.26,1.78M290.81,284c-.23.55-1,.57-1.78.57a5.79,5.79,0,0,1,1.78-1.09c-.12.12-.28.5,0,.52m2.87,6.81c-.58.59-3.16.2-3.75-.37a21.9,21.9,0,0,1,3.75.37M288.85,288a17.08,17.08,0,0,1,3.57.54c-1.11.45-2.59-.24-3.57-.54m-5.72-2.84a.91.91,0,0,1-.17-.54c1.23.2,1.65,1.66,2.67,2.48,2,1.6,4.82,1.93,7.68,2.7-4.25.84-7.84-2.39-10.18-4.64M284,290v-1.42a11.33,11.33,0,0,0,4.64,1.79c-1.31.35-2.87-.63-4.64-.37m1.77.72c.77.3-.81.14-.88.18-.71.27-2.08.71-2.32,1.42,0-1.25,1.94-2.09,3.2-1.6m-2.48-.72h-9.66v-2h9.66Zm-.72-4.29c1.27.64,2.58,2.76,4.43,3.39-1.91,0-3.43-1.89-4.43-3.39m.52,1.61c-2.79.42-6.35.07-9.45.18,2.38-.71,6.77-.36,9.45-.18m2.33-2.49c.4-.32,1.8,1.71,1.58,1.42-.61-.36-.94-1.05-1.58-1.42m1.07,2A6.75,6.75,0,0,1,284,284c1.09.63,1.48,2,2.49,2.7m.9-7.48v-1.1h.9c0,.22,0,.31.16.36a1.8,1.8,0,0,1-1.06.74m-3.23,1.94a4,4,0,0,1-1.59,1.08V281c.74-.16.89.25,1.59.17m-1.42-.89V279c.72-.14.93.3,1.61.22v1.39c-.38-.26-1.21-.12-1.61-.34m1.42-3.41c.19.46.65,1.25.19,1.79a4.9,4.9,0,0,1-2-.71c1.14-.94,2.61-1.54,3.74-2.49a1.69,1.69,0,0,1,.74,1.77c-1.21.1-1.87-1.11-2.71-.36m2.33,2.88a2.25,2.25,0,0,1-1.44.87v-1.23c.37.24,1,.16,1.44.36m-1.44-.92c0-.46,0-1,.2-1.23.57-.05.74.31,1.43.16a2.93,2.93,0,0,1,0,1.25c-.69.11-.88-.31-1.63-.18m3.94.73c.37.1.39.29.16.53-2.8,1.58-5.2,3.62-8.38,4.82,2.55-2,5.54-3.5,8.22-5.35m-8.94,2.85c.77-.11,1,.32,1.8.2-.31.65-1.16.76-1.62,1.23-.39-.13-.07-1-.18-1.43m-.17-2.85a20.47,20.47,0,0,1,1.8-1.26c.49.22.3,1.11.34,1.79a3.56,3.56,0,0,1-2.14-.53m.35.88a7.49,7.49,0,0,0,1.79.37v1.07c-.44.32-1.2-.24-2-.18-.15-.61.29-.67.18-1.26m13.22,16.09c1.91-3.72.95-9.22-3.4-10.36-.88-.21-1.94.31-2.66-.54.07-.18.15-.33.36-.35,5.75-.75,11,7.3,5.7,11.25m-2.14-25.9c.85-.5,2.73-.06,3.94,0,5.85.27,13.15-.45,17.86.17.28,1.43-1.39,1-2.15,1.07-4.91.53-12.68.81-17.85,0-.87-.12-2.29.29-1.8-1.24m1.61-1.8c-.83.05.19-.63-.36-.88-1.35.86-.07,1.57.55,1.6,1,.08,1.93-2.44,2.66-1.06,0,.84-.31-.31-.88,0-.27,1.19,1.38,1.24,2.14.88-.43-.52-.54-1.38-1.07-1.79,1-.39,2.81-.07,4.11-.19-.25.68-1.09-.15-1.61.38-.05.38.13.58.52.54-.13.38-.41.63-1.06.52V268c-.76-.17-.76.43-.71,1,1.36,2,2.62-1.74,3.75-.51,0,.87-.53-.5-.89.17-.19,1.07,1.45,1.07,2.15.71-.32-.52-.56-1.1-.91-1.6.3-.53,1.83.16,2.17-.38.18.27-.22,1.49-.73,1.61-.09.87,2.49.89,2-.34-.16-.7-.68.59-.71,0,.61-1.5,1.7.67,2.31.89,1.27.37,1.87-1,1.07-1.6-.58-.18-.28.55-.34.88-.63.16-.77-.2-1.08-.34,0-.36.59-.14.53-.54-.11-.76-1.21,0-1.44-.37,1-.39,2.68-.07,4-.19-.52.39-.37,1.44-1.09,1.61.08,1.05,2.15.53,2.15-.17-.11-.87-.81.22-.88-.17,1-1.7,2.13,2.18,3.74.55,0-.59.17-1.39-.53-1.26s.25.68-.19.88-.67-.23-1.07-.34c-.09-.75.47.17.54-.54-.24-.76-1.19,0-1.61-.37.48-.66,2-.23,3-.34v2.49a180.18,180.18,0,0,1-21.8,0v-2.49c1.15-.15,2.76.19,3.39,0,.42.61-.64.42-1.25.34-.39.55.65,1.12-.53,1.25m-1.44-4.09a202.68,202.68,0,0,0,21.63,0v1.42c-6.3,1.27-14.64.58-21.8.35.12-.56-.23-1.54.17-1.77m21.63-3.23v2.51a159.32,159.32,0,0,1-21.63,0c-.1-.73.25-1.9-.17-2.33,7.07-.16,14.47.28,21.8-.18m-21.63-3h1.63c-.29.26-.2.8.34.72-.15.36-.53.52-1.07.52v-.89c-.74-.16-.76.44-.69,1.07,1.42,1.95,2.5-1.8,3.71-.54,0,.86-.49-.49-.86.19-.23,1,1.76,1.23,2.12.54a5.06,5.06,0,0,1-.89-1.8c.53.38,1.69.08,2.51.19.05.31-.17.88.34.72-.14.38-.42.62-1.06.52-.1-.27.19-.93-.19-.89-.54,0-.52.53-.52,1.07,1.38,2,2.6-1.77,3.75-.54,0,.84-.25-.22-.72,0v.73c.26.52,1.22.31,2,.36a5.27,5.27,0,0,0-.88-1.81c.3-.51,1.84.18,2.13-.35.31.42-.31,1.45-.69,1.8.28.65,2.26.49,2.15-.37s-.84.24-.91-.17c.25-1.65,4.5,3.22,3.4-.72-.67.14,0,.62-.38.89-.61.14-.74-.21-1.05-.36.41-.31.66-.48.35-1.07.53.38,1.69.08,2.49.19a3.4,3.4,0,0,1-.87,1.61c.3.69,2.17.44,2.13-.37s-.84.24-.9-.17c1.1-1.79,2.15,2.21,3.76.54v-1.26c-1-.13-.47.6-.73.89-.54.09-.68-.27-1.05-.36.15-.31.7-.22.52-.88.76.12,1.5-.24,1.8,0v2.32a175.39,175.39,0,0,1-21.63,0c-.27-.6.06-1.17,0-2.32m0-5.2a1.77,1.77,0,0,0,1.08-.88c.45.34-.21,1.08-.37,1.42a3.81,3.81,0,0,0,2.7,2.52c1.26-.15,1.23-.59,2.32-.72-.16-.85.23-1.19.35-1.8.64,1.4,1.4,2.66,3,3-2.68.42-6.13.05-9.12.17Zm2.33.37c.19,0,.11-.37.36-.37-.19-.34-.78-.26-.72-.88.77.58,1.24.59,1.44-.55.39,0,.37.47.36.9.2,0,.32,0,.35.19.36,0,.36-.48.53-.73.7.42-.48,1.31.9,1.44,0,.4-.44.39-.9.36a.66.66,0,0,0,.53.9c-.53.21-1.21,0-1.77.89.06-1.23-.62-.74-1.25-.53.21-.77.62-1.37-.72-1.26,0-.78.3-.32.89-.36m3.92-7.68c.52.79.81,1.81,1.79,2.14-1,1.28-2.31,2.33-2.15,4.83-.06-1.32-2.58-1.9-3.73-1.26,1.44-1.81,3.19-3.34,4.09-5.71m2,.54v-.91h.71c0,.22.05.33.18.37-.27.2-.42.53-.89.54m-1.25-1.44c.16,0,.13-.2.16-.37.85-.55,2.13.32,2.69,0,0-1-1.08-.92-1.08-2,.08-1.35,3.8-1.23,4.12-.16.1,1.08-.93,1.07-1.06,2,.3.71,1.82-.49,2.67.15a2.1,2.1,0,0,1-.7,2.42c.45-1.26-.93-3.51-2-1.15,0,.86,1,.65.71,1.77-.42,0-.67-.27-1.25-.17.15-.25.49-.34.54-.71-.07-1.69-2.69-.47-1.45.55a2.46,2.46,0,0,1-1.24.33c-.25-1,.48-1,.53-1.59,0-2.6-3.51-.33-1.61.89-.44.16-1.19-.94-1.06-2m0-15.57c.13-1.25-.73-2.06-.35-3a1.65,1.65,0,0,0,2,.71c-.25.32-.64,1.38-.19,1.8-.24.41-.95.33-1.42.5m-.73-4.79c-.36.17-.09-1.82-.17-2.5.38-.2.09,1.78.17,2.5m-1.07-8.24c1.09-.4,2.93-.05,4.3-.15-1.37.65-2.75,1.3-2.85,3.2-.68-.82-.67-2.32-1.45-3.05m.19,8.59c-.36-2.32-.48-5.65-1.6-7.68,1.81,1.27,1.6,4.58,1.6,7.68m-1.8-3.05c-.26-1-.26-2.36-1.07-2.84.22-.74,1.1,1.23,1.27,2.31.21,1.57-.3,3.32-.2.53m-.7,1.61c-1.34-.09-.36-2.5-1.24-3,0-.54.39-.55.34-1.08.92.76.93,2.4.9,4.1m-1.61.19h-.89c-.8-.78-.13-2.3.34-2.86.92.22,1.22,2.19.55,2.86m7-8.94c1.29,0,2.88,0,4.29,0,1.26,0,2.81-.23,3,.72-2.69.17-7.1.54-9.48-.17,0-.75,1.42-.52,2.15-.55M304,214c-.76.41-2.32.08-3.4.18.31-1.86,2.82-1.58,3.4-.18m3.73,2.34a15.68,15.68,0,0,0-1.77,8c.41,1.15-.78-1-1.41-1.09,2.32-1.61,1.5-6.65-1.65-6.8,1.27-.4,3.29-.05,4.83-.15m1.08.88a.5.5,0,0,1,.37.35c-1.17,1.79-1.58,5-1.45,7.51-.87-2.57.06-6,1.08-7.86m.52,4.11a19,19,0,0,0,0,2.5c-.72-.31-.13-3,0-3.39.38-.94,0,.87,0,.89m-2.47,3.75c-.4-.1-.1-2.43-.2-3.4.39.11.1,2.43.2,3.4m-.9,4.44a4.34,4.34,0,0,0-1.61-.32c.46-.68.23-1.24,0-2,.54.26,1.84,0,1.78-.88.68.73-.14,2.1-.17,3.18m-7.14,12a3,3,0,0,0,.16-1.25c1.81-.21,6.59-1.38,6.63,1.25a18,18,0,0,0-6.79,0m.89.55c-.17.69-.26,1.46.36,1.76-.43.35-.81-.11-1.45.19.22-.81-.1-2.15,1.09-2m2.86-6.08c.11-.32.86-.89.33-1.26.18-.42.46.49,1.1.18.14-.68-.39-.69-.71-.87a5.17,5.17,0,0,1-3.06.16c-.23.07-.29.3-.52.36,0,.32-.19.89.36.73-.13.58-1.18-.23-1.09.16-.39-.19,0-1.11-.16-1.61a14.3,14.3,0,0,1,6.79,0v2.52c-.95-.19-2.13-.18-3-.37m2.85,2.49v1.07a17.87,17.87,0,0,0-6.44,0c.26-2.33,4.55-.88,6.44-1.07m-1.61-1.77c-.77.4-2.32.07-3.39.16.79-.41,2.3-.05,3.39-.16m-3.21-1.8c.4-.18,1,.28,1.62.19-.13.4-1.12,0-1.26.35a.48.48,0,0,0,.53.35c-.18.37-.69.38-1.26.35.14-.28,1-.8.37-1.24m5.18-3v1.26a16,16,0,0,0-7,0c.06-.44-.34-.39-.2-.9,1.52-1.3,5.19-1,7.16-.36m0-.71a14.58,14.58,0,0,0-7.16,0c1.42-1.16,5.8-1.33,7.16,0m-3.94-2.89v-.52c.38-.07.5.12.73.19-.05.32-.32.4-.73.33M300,221.73c-.93-.94-1.2-2.32.43-3.44a3.18,3.18,0,0,1,1-.42,2.78,2.78,0,0,0-1.42,3.86m.61,3.9h-.72v-.72c.26.21.8.16.72.72m3.57.18c-.61-.15-.24-.64,0-.9.64.13.2.63,0,.9m-3-3.29a3.3,3.3,0,0,0,1.24.06c1.68-.25,2.84-3.09,1.08-4.29a2.73,2.73,0,0,0-1.28-.5,2.39,2.39,0,0,1,2.35,2.84c-.28,2.2-2,2.49-3.39,1.89m2.48-3c1,3.09-3.82,3-3.41.36.08-.42.19-1,1.45-1.24a1.55,1.55,0,0,1,2,.88M298.32,222c1.27,1,1.23,1.52.18,2.7-.42-.56-.08-1.85-.18-2.7m.54,4.48a2.65,2.65,0,0,1,.7-2.34c.36.16-.32.75-.35,1.1-.1,1.29,1.87,1.38,2.14.35.07-.84-.8-.74-.71-1.63,1.24-.21.25,1.79,1.62,1.46.73-.05.78-.88.53-1.46.28,0,.68.1.73-.16.66.64-.45,1-.39,1.62.41,1.9,3.1.28,1.8-1.07a2.14,2.14,0,0,1,.72,2c-.63.77-1.9-.16-2.71.35.16.76,1,.74,1.1,1.58s-.67.79-1.43.75a1.16,1.16,0,0,0,.52-1.27c-.06-.9-1.67-.9-2-.16,0,.58-.07,1.26.55,1.24-.41.49-1.36,0-1.45-.35.07-.86.77-1,1.08-1.63-.4-.86-1.77.26-2.49-.34M306,243.83c-.16.67-.92-.43-1.07.19-.44-.57.46-1.19,0-2,.31,0,.39.2.72.15a2.46,2.46,0,0,0,.35,1.61m.53,2.52c1.57,1.76,2.69,4,4.64,5.36-1.51-.05-2.84-.09-3.92.89a4.41,4.41,0,0,0-2.16-4.29c.52-.63,1.33-.93,1.44-2m5.18,7.5c0,.46-.65.29-.88.54-.21.67.66.28.52.91-.27.27-1.56-.84-1.25.71-.82-.44-.67-1.16-1.77-.55.51-.86.31-1.27-.71-1.42,0-.77.79.23,1.05-.36.28.5.19,1.35,1.08,1.26,2.42-1.7-1.26-1.26-1.6-2.34.57.24,1.28,1,1.22-.36h.57c-.16.57.12.69.36.89.44,0,.17-.75.87-.53-.34.64-.17,1.21.54,1.25m-7.67-8c.63-.57,1.09.33.71.87-.16-.34-.78-.3-.71-.87m-1.6,10.89c-4.86,0-6.11-7.51-.72-8.4,6.24-1,6.4,8.4.72,8.4m10.71-3.22v3.58h-8.94c1.11-.69,2.28-1.31,2.69-2.68.78.11.6,1.15,1.05,1.62a4.81,4.81,0,0,0,3.76,0c.44-1.34.79-1.9.17-3.41.49.26.84.62,1.27.89m-9.3,36.65c.38-1.22,1.73-.76,2.5-.89a11.07,11.07,0,0,0,6.8-3.94h.53a12.93,12.93,0,0,1-9.83,4.83m10.91-17c3.7,2.13,7.21,4.47,10.88,6.63-.29,1-1.15,2-2,2-.36-.42.73-1,.73-1.61-2.61-2.35-6.07-3.83-8.94-5.91-1,.16-.83,1.46-1.79,1.63a5.5,5.5,0,0,1,1.08-2.69m.88-.71c3.6,2.06,7,4.27,10.55,6.42-.81.23-1.87-.55-2.68-1.07-2.55-1.53-5.39-3.56-8-5,0-.19-.23-.15-.36-.19-.06-.2.53-.62.53-.18m7.49-7.51c.39.28-.48.81-.53,1.26-.31-.49-1.32-.49-1.8-.37.16-.32.46-.51.56-.89.59,0,1.58.7,1.77,0m5.74,3.76c-.15-.54.48-.34.37-.89.5.3.62,1,1.22,1.23-.08.39-.36.6-.53.92-.5-.27-.28-1.29-1.06-1.26m-3.38,4.3a46.86,46.86,0,0,1-4.69-2.7c1.15-2,2.48-3.84,3.61-5.89,1.78.58,2.95,1.8,4.64,2.5-1.08,2.13-2.53,3.92-3.56,6.09m2.65-3.41c.37.05.17.67.56.71-.57-.16-2,1.41-.56,1.79.37.09.65-.88,0-.71.3-.77.23.21.91,0a14.85,14.85,0,0,0-1.08,2c-.55-.35-.52-1.6-1.43-1.07a21,21,0,0,0,1.6-2.69m2.32-3.92c-.24.68.5.32.36.88-.27-.3-.83-.51-.89.19-2.23-1-4-3-6.42-3.24-.1-.72.37.09.9-.16-.08-.42-.2-.77-.55-.89-.69-.09-.8.36-1.07.72-.14.55.31.5.16,1.08-.19-.22-.3-.53-.85-.39.64-1.08,1.27-2.12,1.94-3.2,3,1.52,5.7,3.33,8.55,5a14.59,14.59,0,0,0-1.4,2.49c-.21-.27-.5-.44-.55-.88.45,0,.55-.28.9-.37.13-.92-.07-1.47-1.08-1.24m-9.28,1.41c.28,0,.66.08.7-.17,0,.7-1,1.83-1.42,2.68-.07-.4-1.38-.51-1.43-.34-.33-.67.85-1.31.89-2.17.08.47.66.42.72.91a.61.61,0,0,0-.88,0c.34,1.36,2.12.31,1.42-.91m-1.26,4.83c-.93.81.45,1.29.88,1.78.73.06.68-.64,1.45-.53,0-.75-1.06-1.36-1.45-.71-.36-.55-.36-1.51-1.6-1.26.16-.47-.25-.45-.17-.89,2.14.64,4.25,2.48,6.46,3.56.43-.24.6-.78.87-1.23s-.22.91.18,1.23c-.75,0-1.09.36-1.05,1.1,0,.36.47.35.7.54.87-.27-.31-.73.17-1.08.18.11.18.4.53.37-.21.77-.78,1.23-1.06,1.94-1.18-.35-1.79-1.3-3-1.61.61-.33,1.31.57,1.79-.33a.45.45,0,0,0,0,.71.69.69,0,0,0,.7-.71c.07-.93-1.19-.82-1.77-.57.46-.61-.34-1.22-1.26-1.06.21.8-.05.93.19,1.63-1.73-1-3.4-2.12-5.19-3,.09-.47.54-.55.54-1.07.21.27.74.21.72.71-.36-.09-.35-.54-.72-.19.16,1.22,1.45.95,2.13.72M324,258.13c3.77,2,7.24,4.33,10.9,6.45-2.56,4.78-5.62,9-8.21,13.75-3.6-2.36-6.32-3.42-8.94-5.34-1.11-.83,1,.35,1.08.35,2,1.19,4.82,2.92,6.77,4.29,3.09-3.59,5.1-8.24,7.85-12.15-3.08-2-6.29-3.94-9.63-5.73-2.55,3.94-4.91,8.06-7.5,12,.05.37.47.35.7.54-.27.36-.8-.49-1.23-.54,2.68-4.58,5.27-9.25,8.21-13.6m.89-1.58c3.85,2,7.15,4.49,11.06,6.41-.15.37-.35.73-.53,1.09-3.81-2-7.17-4.51-11-6.42,0-.57.36-.7.52-1.08m9.31,3.75c.85.5,2.08.82,2.29,1.79-.91.43-2-.55-2.84-1.09-1.88-1.12-3.73-2.38-5.72-3.57-.86-.5-2.48-.8-2.33-2,2.73.92,5.82,3.16,8.6,4.84M329.05,253c.92.65-.12,2.22.19,3.4-1-.39-1.74-1-2.7-1.43.61-.87,1.86-1.11,2.51-2m-.74-1.43c.33.14.53.43.93.54-.6.69-1.56,1-2.18,1.6-.1-.52,1.08-1.33,1.25-2.14m1.62,4.64a28.34,28.34,0,0,1,.17-3.4c1,.48,2.17.83,2.68,1.79-1.15.34-1.78,1.19-2.85,1.61m3.21,2.49c-1.24-.29-1.89-1.19-3-1.6.8-.82,2-1.21,2.86-2,.43.84.07,2.45.18,3.56m-4.09-8.2c.16-.14.48-.29.52,0,2.55,1.43,5.39,3.08,8,4.64.72.43,2,.87,2,1.79-.94.55-1.9-.62-2.67-1.07-2.55-1.49-5.79-3.09-8-5,.15,0,.12-.21.18-.34m4.44-3.23a21.18,21.18,0,0,0,.55,4.84c-1.23-.29-2.87-1.68-4.3-2.33a5.22,5.22,0,0,1,3.75-2.51m-.35-1.42c.25.05.16.45.17.72a4.25,4.25,0,0,1-1.06.35c.21-.46.71-.61.89-1.07m5-.37c.82,1.24.4,3.68.91,5.19-1.82.33-2.88,1.41-4.48,2,0-2-.46-3.65-.52-5.71a24.61,24.61,0,0,0,4.09-1.44m-.17-5c.48,1.14.34,2.86.38,4.47a17.94,17.94,0,0,0-4.3,1.42c-.2-2.76,2.55-4.13,3.92-5.89m.91-.37c1.43-.29,2.43-1,3.92-1.26a22.13,22.13,0,0,0,.16,4.31c-1.19.53-2.57.85-3.72,1.44a14.66,14.66,0,0,1-.36-4.49m3.92-5.71v3.75c-1.42.3-2.49.93-3.92,1.26.89-2.1,2-4,3.92-5m.72-.34c.93-.34,2-.5,2.84-.9.87.56,0,2.84.54,3.73a15.75,15.75,0,0,0-3.38,1.07c-.46-1.16-.08-3.1,0-3.9m2.84-4.66c.38.68.11,2.05.19,3a22.34,22.34,0,0,1-3,.91,5.82,5.82,0,0,1,2.84-3.93m.73-.35c1.06-.14,1.78-.59,2.85-.75,0,1.2.32,2,.19,3.24a17.58,17.58,0,0,0-2.84.72c.11-1.26-.33-2-.2-3.21m2.33-4.12c.65.41.3,1.8.52,2.69a15.65,15.65,0,0,1-2.85.68c.34-1.54,1.42-2.35,2.33-3.37m-2,11.61a31.34,31.34,0,0,0-.14-3.56c1-.18,2.13-1,3-.72.42,2.77-.19,4.28-2.89,4.28m5-15v2c-.8.08-1.34.46-2.13.52.29-1.23.79-2.26,2.13-2.49m.17,5.35a15.5,15.5,0,0,0-2.14.56v-2.68a6.21,6.21,0,0,1,2.14-.56Zm-1.78,4.31a15,15,0,0,1-.19-3.22,4,4,0,0,0,1.8-.53c.87,1.58.66,4-1.61,3.75M353.51,219c.51.26.76.77,1.43.89-.42.49-1.33.49-2,.72-.17-.9.35-1.08.55-1.61m.89-1.08c1.17,1,3.74,1.46,3.57,3.21-1.45-.68-2.49-1.78-3.91-2.48-.15-.5.34-.38.34-.73m4.29,2c-1.28-.82-2.45-1.71-3.75-2.5a8.44,8.44,0,0,1,3.75,2.5m.37-1.08c-.68.09-1.72-1.05-2.52-1.42.64,0,1.62,1.09,2.52,1.42m2.84-13c.3,0,.35.14.35.35-2,2.49-3.15,5.79-5.35,8.05a90.74,90.74,0,0,1,5-8.4m3.75,2.32c-1.75,2.84-3.89,5.28-5.72,8-.71-.47-1.4-.95-2.15-1.46,1.44-2.88,3.39-5.28,4.83-8.19,1.31.23,1.87,1.22,3,1.6m.56-3.2a9.21,9.21,0,0,0-.2,2.66,25.42,25.42,0,0,1-2.68-1.78c.7-.47,1.89-1.26,2.88-.88m.14,4.26c-2,2.4-3.42,5.41-5.68,7.54,1.2-2.62,3.79-5.38,5.54-8.06.18,0,.13.33.14.52m-10.69,13.22c-.14-.47.21-1.41-.18-1.59.64-.3,1.72.54,1.95,1.24-.71,0-1.05.35-1.77.35m.16,2.7c-.4-.31-.05-1.37-.16-2,.29-.14.88-.05,1.06-.35.36.71-.87,1.4-.9,2.33m-2.67-2v-2c1.51-.48,2.09-.35,1.79,1.61-.76,0-1,.47-1.79.35m2,3c-.83-.1-1,.42-1.81.37.14-1.05-.28-1.59-.16-2.68.76,0,1-.47,1.79-.36a17.25,17.25,0,0,1,.18,2.67m-1.44,2.69a2.63,2.63,0,0,1-.37-1.61c.3-.15.92-.07,1.09-.37.63.19-.64,1.36-.72,2m-2.5,4.65c-.35-.3-.37-.93-.35-1.61.48,0,.74-.33,1.25-.36-.14.83-.7,1.21-.9,2m-3.58,6.06v-2.31a11,11,0,0,1,1.62-.37c-.59.85-.72,2.16-1.62,2.68m-.71,2.32c-1.16.32-2.2.77-3.38,1.1-.11-1.33.24-3.12-.2-4.14.79-.7,2.16-.83,3.23-1.24a5.81,5.81,0,0,1,.35,4.28m-3,5.73c.06-1.47-.33-2.55-.18-4.11a8.12,8.12,0,0,0,2.34-.72c.18,1.12-1.23,3.67-2.16,4.83m-4.29,2.68c-.2-1.64-.34-3.33-.53-5,1.11-.61,2.65-.81,3.75-1.45.46,1.54.35,3.61.72,5.19a35.59,35.59,0,0,0-3.94,1.26m.73,5.55c-1.86-.66-3.14-1.87-4.84-2.7a7.39,7.39,0,0,1,3.77-1.78,16.44,16.44,0,0,0,1.07,4.48m.52-1.07c-.78-.92-.82-2.52-1.06-3.95a9.68,9.68,0,0,0,3-1.06c0,1.62-1.57,3.18-2,5m-3,5.54c-.44-.72-.06-2.21-.18-3.23.44.33,1,.56,1.43.89-.34.86-1,1.43-1.25,2.34m-4.1-1.79a20.25,20.25,0,0,0,.18-3.57c1,.44,1.81,1.15,2.85,1.61a13.37,13.37,0,0,1-3,2M336.9,261c-1-.49-1.9-1.07-2.86-1.61.73-.93,2-1.34,2.86-2.14.24.8-.18,2.47,0,3.75m-15,19c.3-.29.91.61,1.44.69,0,.73-.82.63-1.22.89-.64-.26.23-1.48-.22-1.58m4.48,3a6.51,6.51,0,0,0-2.5-.34c-1.57.24-1.87,2.15-3.22,2.3.58-2,3.62-3.59,5.72-2m6.95,3c-1.66.82-4.86.12-7.12.36,1.68-.83,4.84-.15,7.12-.36m-2.49-4.49c.35-.74.79-1,0-1.58,8.35-.7,18.69-.37,27.33-.18a21.78,21.78,0,0,1,.18,3H330.82c-.27-.81.76-.34.72-.91s-.7,0-.72-.37m27,13.95c.91.57-.28.93.55,2.32-8.74.29-18.76.29-27.51,0a11.49,11.49,0,0,0,0-3.21h27.51c.33.81-.71.24-.55.89M330.1,291h-3.74c-1-.17.7-.23,1.06-.17h5.36c.22,0,.33-.06.36-.18.67.52-.84.35-1.25.35Zm-9.64,2.14c1-.65,1.91.36,2.49.71,2.24.27,2.78-1.15,3.78-2.14.58,2.12-4.81,4.26-6.27,1.43m-5.35-1.6c.07-.2.31-.44.36-.19,3.15,0,4.35,0,7.48,0,.64-.06.25.34-.16.19Zm-.19,3c-.23-.06-.15-.44-.16-.73h.71c-.05.39-.51.37-.55.73m-4.62-2.87c1.48-1,3.38.5,4.27,1.26-1.5.35-2.46-1.34-4.27-1.26m-8.77,3.41c-1.55.64-4.06.28-5.89.19,1-.38,4.58-.18,5.89-.19m-.72-2c-1.44-.09-3.31.23-4.47-.17-.15-1.36,4.92-1.55,4.47.17m-.17-2.14c-.59.61-3.54.61-4.12,0Zm-4.3-.7V290c.7-.59,3.79-.59,4.47,0-.78.83-3.08.14-4.47.37m-.53-2.33h5.72c-.43,1.7-3.74.57-5.53.89.07-.4-.33-.38-.19-.89m7-2c.18.31-.77,1-1.07,1.42-3.23,0-6.93.48-8-1.61,2.6-.36,6.62.42,9.11.19m-6.27-.88c1.87-.43,6-.09,8.76-.21-2.2,1.15-5.94.12-8.76.21m7,5.87c.68-.59,3.09-.46,3.73-.54-.68.64-2.76.8-3.73.54m5,5.54c-1.14,1.06-4.28.69-4.28-1.07a9.18,9.18,0,0,1,4.28,1.07m1.81-4.1c.36-.23,2.61.67,3.2,1.41-.95.09-2-1.19-3.2-1.41m2.5,2.14c-.41.28-.67.65-1.09.89-1.85-1.84-4.81-2.57-8.38-2.69.56-.94,2.14-.77,3-.71a14,14,0,0,1,6.45,2.51m.55-6.07V290a22.91,22.91,0,0,0-4.68.53,28.76,28.76,0,0,0,4.68-2m1.06-3a5.73,5.73,0,0,1-4.31,3.77c1.54-1.14,3.25-2.14,4.31-3.77m4.1-.7a6.24,6.24,0,0,1-4.64-2.87,50.15,50.15,0,0,0,4.64,2.87M314,287.45c2.45-.83,6.42-.11,9.47-.36-2.45.84-6.41.13-9.47.36m.72,4.64c-.35-.28-3.08-1.74-3.59-1.42,1.17-.74,2.92.33,3.59,1.42m-.89-4.1h9.64v2h-9.64Zm9.64-1.6a44.94,44.94,0,0,1-6.62.18c-1.14,0-2.91-.06-1.06-.18.7-.05,2,0,3.2,0Zm1.59,5.7c-.53.06-.61.56-1.42.37.6-1.79,1.45-7.21-.89-7.68.33-1.31,2.8-1.06,3.21,0-1.08,1.62-.47,5-.9,7.31m.9-4.82c2.1-.42,4.93-.07,7.31-.18-2.06.42-4.93.07-7.31.18m7.31,2.87c-2.31-.24-5.58.46-7.31-.35,2.31.22,5.59-.49,7.31.35m-7.12-2c1.33-.41,4.93-.06,7.12-.18-1.37.47-4.86,0-7.12.18m7.12,1.08c-2.31-.23-5.58.44-7.31-.37,2.31.23,5.59-.46,7.31.37m-2.49-3.94c.11-.61-.24-1.67.18-2h27.33v10.52H330.82v-2.14h3.05v-6.25c-.66-.42-2.09-.05-3.05-.17m-11.62-5.19c-.12-.84.22-1.23.18-2,.5.47,1.93,1,1.8,1.43-.22.63-1.3.4-2,.53m.18,2v-1.25c.53-.19,1.27-.16,1.8-.37v1.26a9.25,9.25,0,0,0-1.8.36m2,.35c.25.81-.61.47-.56,1.08-.55-.14-1.06-.32-1.23-.88.72.06,1-.32,1.79-.2m-1.44,2.34c-2.24-1.15-4.56-2.22-6.05-4.13,2,1.36,4.47,2.33,6.05,4.13M314.57,279v-1.25c.75.15.93-.25,1.61-.16v1.23c-.68-.09-.86.34-1.61.18m1.79,1.61c-.72,0-.94-.59-1.6-.69.06-.54,1-.15,1.23-.54.69-.16.25.84.37,1.23m.53-2c.54-2.66-.64-2-2.32-1.43a2.68,2.68,0,0,1,.35-1.77c1.44.64,2.53,1.63,3.95,2.3-.36.61-1.21.72-2,.9m1.79,2.34v1.25c-.57-.26-1-.67-1.62-.9a3.56,3.56,0,0,1,1.62-.35m-1.79-.56v-1.21c.74.12.93-.3,1.62-.22,0,.43.27.69.17,1.27a4.4,4.4,0,0,1-1.79.16m-8.4,7.33a7.11,7.11,0,0,1-3.74.89c.49-.79,2.62-.27,3.74-.89M304,296.37c-1.55-.05-2.58-2.31-2.69-3.91-.25-4.51,4.58-6.95,8.59-7.52.78.25-.82.91-1.09,1.26-5.52-.72-7.64,6.41-4.81,10.17m6.21-10.08c.31-.34.51-1.39,1.46-1.68-.76.55-1,1.37-1.46,1.68m2.9-2.25c-.33,1.2-1.39,1.61-2,2.53a7.35,7.35,0,0,1,2-2.53m-21.8-2.66a155.46,155.46,0,0,0,21.8,0v1.78c-1.71,1.61-4.39,1.09-7.69,1.08-4.55,0-9.66.39-14.11.19Zm.17-6.43h21.63v5.7a139.17,139.17,0,0,1-21.8,0c.14-1.84-.23-4.16.17-5.7m0-2.51a148.72,148.72,0,0,0,21.63,0v1.41c-6.51.86-14.59.14-21.8.36.12-.53-.23-1.51.17-1.77m22.35,26.08c-2.81,2.28-7.28,4.54-11.26,6.44-1.34.65-2.83,1.77-3.95,1.79-2.32,0-5.12-2.7-7.49-3.05v-5.89a6,6,0,0,0,4.12-2,15.65,15.65,0,0,0,6.43,0c2.87,3.34,10.37,1.78,12.15-1.6.54,1.28-.19,2.81,0,4.28m-15.21,25.37c0-5.07.2-10.77,0-16.43a67.61,67.61,0,0,0,15-8c.3,12.74-5,21.38-15,24.47M314.92,311A338.44,338.44,0,0,0,341,338a323.36,323.36,0,0,1-27.68-28.24c.27-.42,1.13.73,1.57,1.25m55.9,53.06c-.31,1-1.38.54-2.48.52-1.24,1.36-3.8.24-4.82,1.8-.92,0-1.72-.41-2.52,0a337,337,0,0,1-44.82-39.47c.53,0,2.71.55,2.69-.9,1.46,1.56,4.79,1.41,7.32,1.41.19.88-.69.64-.91,1.09,1.63,1.39,2.26-2.16.21-2,.13-1.46-.78-2.22-2-1.79-.23,1,1.45.1,1.26,1.07v.37c-2.17,1.62-6.48-.18-6.62-2.88.22-.71,1.17-.58,1.61-.7-.92-1.42-2.25,0-2.33,1.07s.89,1.42.91,2.33c-.33.45-1.24.42-1.81.18-.28-1,.44-1,.53-1.63-1-.61-1.63,1-1.07,2-2.6-2.5-4.91-5.34-7.5-7.86.67-1.26,1.66-2.16,2.34-3.39,2.54.54,4.74,2.39,4.81,4.82-.87.67-1.18-.41-1.77-.53-.57.47.11,1.3.54,1.44,1.65-.53,1.75,0,3.21.36.74-.05.91-1.37.53-2-1,0,0,1.1-.72,1.24-1-.06-.94-1.23-1.25-2-1.1-1.87-2.4-3.55-5-3.92.64-1.38,1.26-2.79,1.79-4.29,17.78,19.39,36.3,38,57.86,53.59m1.09-.54c-1.71-.23-3-1.57-4.3-2.52-8.74-6.43-16.78-14-24.79-21.36a351.63,351.63,0,0,0,29.09,23.88m2,.71c2.09,1.71,5,4.25,8,6.43,2.8,2,6.41,3.67,8.22,5.72,2.64,3-1.1,4.89-5.35,4.45s-9.24-3.11-13.25-5.53a60.35,60.35,0,0,1-10.71-7.86c.62-.92,1.68-.18,2.51-.36.62-.14,1.17-.95,1.79-1.05,1.26-.26,2.77.5,3.38-.92a4.22,4.22,0,0,1,1.44.37c.88-.14,1.19-.82,2-1.08s1.59.57,2-.17m-66.11-45.18c16.23,17.42,33.47,33.8,52.9,48-19.85-13.81-37.11-30.18-52.9-48m-22.31,7.49a301.61,301.61,0,0,1-45.91,40.54c.58-1.14,1.93-1.64,2.87-2.33,15.4-11.18,29.77-24.78,42.87-38.56.44,0,.23.13.17.35m-9.3.72c-1.83-.19-1.49,2.64.18,2.31.28-1.11-1.35-.62-.71-1.61a12.6,12.6,0,0,0,5-.7c1.21-.52,1.75-1.72,3.42-1.07.28.63-.59.93-.91,1.23-2.91,3.06-6,6.47-9.28,9.48-10.93,10.17-22.4,20.8-34.84,29.48-1.69-.11-3.07,0-4.09-1.09-.76-.16-1.18.56-1.61.19-.85-1.32-3.14-.33-4.12-1.25,16.59-12,31.05-26.1,45.37-40.37a47.84,47.84,0,0,0,7,2,5,5,0,0,1-4.82,1.25c-.36-1.32.82-1.11,1.26-1.61-1-1.14-2.41.66-1.8,1.8m34.67-107.74c.4-.06.18.51.52.53-.1,1.32-.92,1.91-.73,3.57-.15-.1-.3-.2-.32,0-.87-1,0-3.29.53-4.1m1.05,1.43a1.84,1.84,0,0,1,.73,2.86c-.61.13-.68-.28-1.26-.19a4.46,4.46,0,0,1,.53-2.67M214.73,381.57c4.05-.29,8.41-2.58,11.6-4.27,7.17-3.76,12.47-8.7,18.59-13.21,3.19-2.35,6.2-4.71,8.92-7,9.9-8.24,20.13-17,28.94-26.62,1.19-1.28,2.92-3.79,3.94-4.11,2-.6,4.4,0,6.43-.34a32.7,32.7,0,0,0,14.27-6.25c15.86,17.48,32.73,34,52.51,47.5,2.94,3.3,7.15,6.25,12.15,9.12,4.31,2.45,9.2,4.92,13.4,5.16,3.39.22,5.65-.64,6.06-3s-2.24-3.43-3.74-4.49a101.62,101.62,0,0,1-13.23-10.34c-.59-.06-1.43.13-1.77-.18-11.25-7.83-21.34-16.93-31.28-26.09a286.3,286.3,0,0,1-28-29.29A93.24,93.24,0,0,0,314.57,296c.85-1.81,2.88-2.47,5-3,1.58,2.79,4.71,2.64,6.62.88,1.23-1.14,1.57-2.75,4.1-2.14.11,2.14-.23,4.76.17,6.63a221.6,221.6,0,0,0,28.23,0c.3-6,.3-13.15,0-19.1-9-.33-19.23-.33-28.23,0-.85,1.77.79,5.53-.72,6.22s-1.53-1.35-2.32-2.32-1.57-.84-2.14-1.62c6.18-10.06,13.18-20.11,18.4-31.26a356.63,356.63,0,0,1,17-32.7c2.54-2.2,4-5.47,6.21-8,0-1.93.9-5.29-1.06-5.71-1.48-.24-2.84,1.19-4.46,1.42a137.81,137.81,0,0,1-10.72,16.61C345.28,229,340,237,334.4,243.49c-1.94,2.27-4.18,4.32-5.89,6.63-5.56,7.4-9.35,15.61-14.83,23.22v-20c-1.84-2.47-6.8-5-7.33-10-.58-5.77-1.05-17.77,3.59-18.93,1.12-.29,2.36.35,3.41-.39,1.08-2.05-.85-3.55-1.64-4.63-1.37-1.9-3.54-3-4.46-5-2.66.93-3-2.24-4.81-2.3s-2.31,3.1-5,2.3c-.52,1.69-2.41,2.26-3.56,3.59-.65.76-1.31,1.85-2,2.69s-1.52,2.05-.72,3.37c2.85.12,4.88.62,5.9,2.52,1.59,3,1.67,11.72,1.25,15.89a13.49,13.49,0,0,1-3.58,7.16c-1,1.15-3.59,2.78-3.93,3.92-.44,1.54,0,4.15,0,6.09v18.58c-7.64-10.94-13.37-22.62-22-32.53s-15.53-20.84-23.57-31.08c-1.33-3.42-3.53-6-5.19-9.1-1.62-.28-3-2.07-4.47-1.79-2,.37-1,3.13-1.24,5.71,2.2,2.74,3.87,6,6.43,8.4,6.51,10.88,12.29,22.57,17.86,34.31s13.34,22.07,19.11,32.86c-1.18-.72-2-2.85-3.74-3.21-2.21-.45-3.45.6-4.64,2-.25,1.06-.44,2.17-2.16,1.77-.55-1.69.3-4.83-.55-6.22-8.9-.22-19.57-.56-28.21.16-.3,5.89-.28,13,0,18.94a226.94,226.94,0,0,0,28.21,0c.89-1.52-.05-4.84.55-6.63,2.51-.53,2.42.92,3.41,2a4.49,4.49,0,0,0,7.13-.7,7.49,7.49,0,0,0,5.19.7,8,8,0,0,0,4.3,3.4c1,2.3,3.68,2.88,3.19,6.61-6.9,2.08-18.16,3.23-27.31,2.68-1.42-.07-3.16-.74-4.48-.52-1.05.17-1.75,1.16-2.49,2-.9,1-1.79,1.4-2.33,2.13,1.26,1.17.72,3,1.62,4.31.58.83,2.72,2,3.92,2.66A90.19,90.19,0,0,0,273,323.17c-14.19,14.65-29.15,28.48-45.91,40.56h-1.61a56.5,56.5,0,0,1-8.76,7.15c-1.89,1.34-8.42,4.45-8.21,7.68.18,2.45,3,3.26,6.26,3"/><path class="cls-1" d="M295.44,254.76a1.52,1.52,0,0,0,.37-1.45c-1.46-1.43-2.66,1.75-.37,1.45"/><path class="cls-1" d="M281.52,271.9c.59.32,1.93.08,2.14-.52-.19-.22-.49-.33-.33-.9a2.23,2.23,0,0,1,.7,1.25,17.14,17.14,0,0,0-2.87,1.8c-.37-.53,1.36-.89.36-1.63m-.71.72c-.4-.79-1.25-.43-1.61.19.22.61.88.81,1.61.72-.44.67-1.51.73-2,1.42-.14-.11.44-1,.2-1.8-.79,0-1.4.16-1.26,1.05-1.11-.69-2.46.64-1.25,1.29.22,0,.62-.53.18-.54.44,0,.92.57,1.8,0a12,12,0,0,1-3.05,1.77,2.44,2.44,0,0,0-.69-1.23c.13-.17.73,0,1.06-.38v-.51c0-.72-.67-.65-1.06-.92a.8.8,0,0,0,.16-1.06c-.16-.45.57,1,.9,1.26,1.88-1.16,4.06-2.05,5.52-3.59a1.16,1.16,0,0,0,.91.19c0,1.22-1.95.45-1.44,2.14m-7.51.53a3.74,3.74,0,0,0-1.07-1.61c.16-.25.59-.25.91-.35-.07.22-.32.29-.37.54s.2.17.2.35c.44.05.54-.28.88-.35.21-1.05-.44-1.22-1.08-1.44a.83.83,0,0,0,.2-.53c.91.44,1,1.68,1.79,2.32-.61-.2-.79.85-1.46,1.07m-2.51-3.92c.42-.5,1.13-.7,1.1-1.62.3.23.2.87.71.91a2.4,2.4,0,0,0-1.06,1.43c-.33-.19-.3-.67-.75-.72m-2-3.74c3.05-1.41,5.44-3.51,8.56-4.84.46,1.23,1.35,2,1.8,3.19-1.26.34-.32-1.56-1.43-1.4a.67.67,0,0,0-.7.71c.21.56.65-.26.89.18.06.43-.82-.09-.56.51-1.88-.37-4,2.1-5.86,2.89-.4-.62-.44-.46-1.07-.19,0-.34.47-.21.32-.72s-.92-.14-1.06,0c-.08.93.25,1.43,1.06,1.45-.05.33-.51.31-.32.88a6.93,6.93,0,0,1-1.63-2.66m11.63.33a2.46,2.46,0,0,0-1.8.37c-.05-.42-.17-.77-.54-.9.7-.25,1.14-.14,2-.36-.12.56.49.35.38.89m0,4.66a34.69,34.69,0,0,0-4.29,2.51,36.59,36.59,0,0,1-3.75-6.08c1.58-.79,2.82-1.94,4.64-2.51.9,2.23,2.57,3.75,3.4,6.08m-.2-2.33c-.3.41-.53-.77-.89-.88-.13-.5.84.14.71-.36.53.06-.44,1,.18,1.24M281,268c-.62-.29.46-.36.35-.7.55.46.72,1.3,1.27,1.76-.05.2-.18.12-.18,0-.71.4-1.4-.31-1.44.56-.34-.21-.37-.71-.72-.9.42-.38,1.13.38,1.25-.72,0-.21-.53-.24-.53,0m-3.39-8.21c-3.44,1.62-6.36,3.77-9.65,5.53,2.23,4.33,5,8.09,7.31,12.34,3.41-1.73,6.41-3.83,9.67-5.73-2.26-4.23-5-8-7.33-12.14"/><path class="cls-1" d="M271.16,265.85c1.2-.2,3.36-.84,2.52-2.53a1.62,1.62,0,0,0-1.45,1.26c-.89-.79-2,.66-1.07,1.27"/><path class="cls-1" d="M219.2,372.47c-.77,1.66,2.74,3.2,3.58.88.38.17.22.86.7.9,1.91.51,1.78-2.41.17-2.14.38-1.44,2-3.47,3.4-1.79a2,2,0,0,1-.35,1.42,1.11,1.11,0,1,0-2.14-.35c0,2.16,3.65,1.15,3.56-1.07.23.56.38,1.18,1.07,1.26-3.91,2.71-8.56,4.66-13.22,6.61-.06-.3.4-1.25-.15-1.77,1.34-.05,4.26.42,4.07-1.43a1.13,1.13,0,0,0-1.94-.74c.12.42-.32,1.39.36,1.25-2.22.05-6,.92-3.4,3.05-1.24,0-2.47.07-2.86-.73,2-2.19,4.91-3.42,7.15-5.35m2.33-1.43c-.5.68.51,1.57,1.25,1.07a2.9,2.9,0,0,1-1.62,1.8c.55-.19.88-2.26-.71-2.17.37-.21.51-.65,1.08-.7m7.14-1.79a3.64,3.64,0,0,1-1.26.72c-.65-1.78-3.57-.68-3.76.72-.51,0-.54-.42-1.07-.37,1.12-1.79,3.74-1.76,6.09-1.07m3.21.53c-.39.59-1.17.73-1.62,1.26-.25-.27.22-1.26-.53-1.42.39-.33,1.54.12,2.15.16m-16.63,9.32c6-1.4,13.6-6.45,18.24-9.67-2.55.12-7.42-2.29-9.31-1.07s-4.1,2.76-6.6,4.47c-.91.62-6.21,3.61-6.25,4.82,0,1.62,2.52,1.76,3.92,1.45"/><path class="cls-1" d="M370.28,369.43c-.16.4-.58.58-.51,1.26,0,.15.05.19.17.19-.47.27-1.09-.81-1.78-.91.35-.55,1.5-.29,2.12-.54m1.46,1.07c.91.46.79,1.91,1.76,2.15,4.11,1,.06-5.31,0-1.07-.29.39-.57-.7-.52-1.26,1.35-1.62,3,.31,3.39,1.79a1.13,1.13,0,0,0-1.25.89c-.09.92.34,1.34,1.25,1.25.55,0,.61-.45.72-.89.62,1.73,4.49,1.61,3.56-.89a87.46,87.46,0,0,1,7.32,5.18c-.13,1-2.08,1.07-3,.71,2.76-1.53-.75-3.16-3.22-2.68.36-.13.41-.64.36-1.23a1.09,1.09,0,0,0-2,.88c.22,1.57,2.64.71,3.74,1.26.74-.09-.58,1.15.35,1.42-4.58-1.23-9.2-4-13.39-6.24.22-.51,1.13-.33.92-1.27m5.7-.34a1.79,1.79,0,0,1-1.07.53c-.36-1.52-3-2.49-3.76-.72-.63,0-.63-.54-1.24-.54,2-1,4.89-.82,6.07.73m1.24.88c.43.06.34.62.92.54-.47.39-1.13.54-1.27,1.25.1.45.14.92.73.89-.76.31-1.55-.84-1.79-1.61,1,.43,1.38-.49,1.41-1.07m-3.56,3.74c3,1.63,6.49,3.61,9.48,4.29,1.36.34,3.81.34,3.92-1.24s-5.59-4.79-6.42-5.36c-1.68-1.15-5.44-4.3-7.32-4.46-2.53-.21-5.95,1.34-8.24,1.61a70,70,0,0,0,8.58,5.16"/><path class="cls-1" d="M255.06,504.38c-6.41-9.17-1.92-23.46.67-33.7,3.1,5.15,8.6,12.67,7.68,20.69-.68,5.77-4.8,9.52-8.35,13m168.14-57c-1.67,4.11-1.26,9.58-1,15,.45,9.57,1.24,20.38,3.69,27.69.53-10-1.86-21.92-2-33.35,6.25,7.38,13.63,18.39,12.68,30-1,12.2-15.54,25.13-29.69,22.68-9.52-1.68-14.48-16.27-9.33-27,3.36,2.63,8.25.9,10.67-1.33,5.35-5,7.52-18.78,6.65-30.36-.82-11.27-8.64-18.53-12-23.7,0-.19,0-.39-.33-.33-1.41,2.47-.83,5.41-.67,8.69.26,6-.43,11.42-.33,16.34.06,3.34-.48,7.12,1.67,9,.11-8-.3-15.39.32-24,3.93,5.37,10.93,11.87,10,23-.62,7.41-5.48,17.09-12.69,16.35-4.11-.42-6.26-4.24-5-8.69-5.29,3.23-8,9.22-12.34,14a84.4,84.4,0,0,1-54.05,27c-17,1.79-32.07-2.49-41-10.36-2.69-2.34-7.69-5.65-9-8.33-2.29-4.65-1.8-9.84-5.32-13.67-5.23,9.1,6,16.62,4,26.35-1.4,6.73-11.78,14.73-18.34,6.67,9.94-11.43,5.17-40.59-4.35-47.38.11,7.63-2.28,12.47-3.64,18.68-1.93,8.74-3.91,20,0,27.69-6.22,3.46-11.13,8.24-20.69,8.34.83,1.88,4.05,1.57,6.32,1.68,8.25.35,14.15-1.31,18-4,3.35,3.31,6.88,7.54,13,6.34,7.72-1.53,10.5-13.42,11.32-22,10.7,11.85,26,20.14,48.39,17.69a86.23,86.23,0,0,0,54-27.05c4.37-4.76,6.83-11,12-14.66-.21,3.55,1.35,5.32,2.35,7.67-6.82,14.75-2.41,35.8,14.68,35.68,19-.1,28.21-17.67,27-39-.75-13.13-7.84-24.88-15-31.36"/><path class="cls-1" d="M66.28,442.34c-.37-3.16,1.7-5.25,1-7.67-1.8-.66-2.93-2-5-2.34-.5,2.5-1.76,4.22-1.34,7.68,1.91.65,3.32,1.79,5.35,2.33"/><path class="cls-1" d="M390.84,434c-.06-.39-.38-.52-.68-.66-13.79,30.1-73.41,16.21-78.71,53.71,9.91-34.24,68-20.27,79.39-53.05"/><path class="cls-1" d="M287.76,438.31c-8.45,5.75-23.23,7.45-25,19.71,2.47-2.82,4.36-5.49,7.68-7.7,8-5.24,20-6.38,22-16.65h-1c-.46,2.35-1.8,3.37-3.68,4.64"/><path class="cls-1" d="M109.31,509.39c-.31-7.2,6.14-10.56,12-12.69,1,6.68-6.69,10.16-12,12.69M188,475c1-14.88-7.1-28.29-12.68-41.05-1.48,5.42,0,12.05.35,19.34.27,6.91-.81,14.61,2.67,18.35.18-6.89-1.54-16.48-.68-24,2,7.31,10,17.13,7.68,26.69a23.1,23.1,0,0,1-8,12.35c-.07-1.27.19-2.87-1-3-.92,4.09-1,8.95-5,10,.89-1.22-.38-2.56,0-4.32-2,1.26-1.16,4.13-2,6-1.08,2.33-3.26,3.67-5.35,4.67-.29-1.61.68-4.44-.66-5-.41,7.07-8.88,11.42-15.67,9-1.88-.66-3.9-3.18-5-5-5.24-8.6-6-26.36-8.34-36.35-3.33,3.6-.43,9.63.36,14.68.55,3.72,1.85,8.23,1.66,11.65-.24,4-3.67,9.44-5.69,12-3,3.86-7,6.16-11.33,8.67,2.79-4.92,6.4-13.52,3.68-20.7-4.19,0-5.62,2.84-9,3.68,3.28-21.63-2.72-39.48-13-49.69-2,7.31.24,15.17,1.31,22.67.84,5.6.69,11.69,3.7,15.36-.7-10-3.4-19.75-3.7-29,7.91,9.47,12.93,25.18,10.36,42.05-4.21,3-4.59,9.85-6,15.67-18-.79-13-27.49-16.68-43.7-2.86,5.16-.95,12.93-.34,21.66,1,14.3,3.12,26.67,12.66,30,1.13.24,3.13-.41,3.7.36.41,2.71-1,7.18,1,8.31.65-2.77.65-6.24,1-9.33,2.66-.79,7.44-2.58,9.67-1.66-.5.06-1.25-.11-1.33.34,3,1.65,5.33-1.2,6-1.67.46-.32,1.7-.64,2.35-1,7.13-4.13,10.66-11.55,12.34-20.69.77,4.59,2.72,8,3.33,12.69,3.36,4.5,6.18,8.61,13.66,7.32,6.31-1,12.07-5.42,15.7-8.68,8.5-7.57,17.4-14.51,18.35-28.65"/><path class="cls-1" d="M447.18,438.31c1.09-.19,1.57.24,2.39.36.37-1.14.54-2.55,1-3.69-6.15-3.52-5.5,7.07-6.67,11.69-1.45-3.1-2.93-6.18-6.67-7a9,9,0,0,0-1.68,6.34,17.19,17.19,0,0,1,3,1.66c.6-.4,0-2,1-2,2.29,2,2.72,5.94,5,8,1.94-4.06.3-11.7,2.64-15.36"/><path class="cls-1" d="M473.53,462.35c8.59-5.2,17.63-10.74,26-16,2.7-1.7,7-3,7.33-7h-.69c-10.56,6.78-22.06,12.6-32.34,19.67.24,1.48-.56,1.89-.34,3.35"/><path class="cls-1" d="M124.65,448.67c.46-.2,0-1.28.66-1.33,2.78,2.35,3.8,6.41,6.33,9,1.07-4.26.23-10.47,3.33-12.67.92.21,2.18,1.81,3,1-.34-1,1-3.42-.66-4.35-6.1-.62-4,6.91-6.35,10-1.38-2-4.25-9.13-7.65-8.33-1.54.36-2.94,4-1.36,6.32.79-1.06,1.89.34,2.68.35"/><path class="cls-1" d="M242.73,442.34c-1.72,2.58-5,12.06,1.66,11.67.42-1.26,1.11-2.21,1-4-1.2.11-1.61.52-2.66,0-2-2.15.69-5.81,0-7.66"/><path class="cls-1" d="M533.24,457.68c1.14-.6,1-2.51,1.66-3.67-5.26.39-2-8.95-1.35-11-2.59,2.81-5.78,12.64-.31,14.7"/><path class="cls-1" d="M490.56,501.69c-5.94-5.33-4.61-19.27-2.35-27.67,7.06,5.84,8.39,19.73,2.35,27.67m51.67-28.32c-14.75-8.61-22.44,25.49-9.34,29.33a23.46,23.46,0,0,0,.66-7.68c-7-3.1-6-15.42,3.68-14.67,4.55.35,8,5.56,7.64,10.34-.39,6.42-6.91,13.08-12.29,17-7.82,5.66-15.85,7.36-25,9,6.07-5.92,7.43-16.55,7-29,7.43-9.42,8.35-33.74-3.65-38.68-.82,5.36-.82,14.24,1.34,18.68a42.06,42.06,0,0,0,0-9.66c7.41,4.3,7.41,19,.31,23.67-1.07-2.42-2.91-5.12-6.32-4.32-2.52.56-6,11.68-2,14.66,2.59,1.9,5.25-.24,7.71-1,5.42,12.81-10,26.8-18,15.36,5.58-12.18,2.69-32.87-5.33-40.37-2.73,11.35-7,28.31-1.34,39.35-5.38,6.61-13.09,10.91-25.32,10.7,7.25-2.91,12.6-16.24,11.32-28.05-.58-5.33-3.8-10.46-10.34-9.65-3.24,1.35-3.53,8.25-2.32,12,1.58-7.23,10.56-2.89,11,2.35.36,4.41-4.11,11.54-8.34,13.69-9.73,4.9-15.76-3.43-16.67-12-2.22-20.66,13.6-24.16,15.35-41.05,4.72-3.56-.94-7.69-4-9.33-.82,2.51-2.68,4-3,7,1.37,1.95,3.81,2.86,5,5,.11,8-5.72,10.53-8.66,15.36A45.06,45.06,0,0,0,444.56,496c.25,7.57,2.77,15.21,7.65,18.67,2.34,1.67,4.72,1.22,7.66,1.67,1.29.2,2.71,1.14,4,1.32,10.46,1.59,21.49.42,27-6,2.59,3,6.32,7.44,11.34,7.34,1.67,0,2.81-1.75,4.69-.67-.23.69-1.57.22-1.68,1,6.7-1.12,10.55.13,16.32,0,16.47-.44,25-18.92,26-33.35.42-6.1-1.33-10.36-5.32-12.68"/><path class="cls-1" d="M313.11,448c-4.56-4.67-8.92,5.28-9,9.68-2.7-3.09-3.05-8.54-8.68-8.69a19.58,19.58,0,0,0-1.67,6.32c2.09,0,4.5,2.83,5.65.69,2.41,2.82,3.75,6.71,4.7,11,2.68-4.4-.43-14.64,4.64-16.69,1.76.26,2.32,1.73,4.35,1.68,0-2.23,1-3,0-4"/><path class="cls-1" d="M159.67,451.35a3.48,3.48,0,0,1,2.67-.67,3.52,3.52,0,0,0-2.67.67m4-3.68c-5.54-.8-7.65,7.64-3,9.34-1.47,3.21-4.94,4.39-6,8,4.22-2.7,11.46-10.13,9-17.35"/><path class="cls-1" d="M199,507c6.2-6.6,8.4-15.7,8.32-26,0-13.52-6.89-21.49-12.32-31.7-1.9,2.22-1.15,5.33-1,8.68.48,11-.84,27,2.65,34,.33-10-1.56-22.44-1-32.69,3.59,8.13,11.16,15.82,9.67,27-1.3,10-11.7,17.28-20.66,22.69-7.91,4.78-16.25,7.17-26,8,2.34,2.94,7.69.52,10.67.67,1.07.06,2.15.85,3.34,1,11.38,1.68,21.18-6.14,26.35-11.67"/><path class="cls-1" d="M162,471.37c-.47,2.07-.33,4.75-3.65,4-.9-.66-.73-2.39-1.34-3.33-1.37,3.39-.62,7.06,2,7.32,2.08.24,2.18-1.55,3.69-2.66s3-.85,3.67-2c.45-2.53,1.18-5.53-1-6.67-.82,1-.34,3.22-1,4.35-1.53,1-.89-1.05-2.35-1"/><path class="cls-1" d="M354.46,473c-2.33,2.65-8.42,12.64-1,14,.33-1.33,1.14-2.23,1.35-3.69-7.6-.77.79-8.3-.36-10.32"/><path class="cls-1" d="M97.63,496.7c3.05-4.74,4.29-16.87-1.67-19.33-.67.78-.67,2.22-1,3.33,1.81,2.11,3.83,4.14,4,7.67.15,3.05-1.86,5.62-1.33,8.33"/><path class="cls-1" d="M517.88,498c.88.8,2.64.68,3.34,1.69-.14,2.52-1.35,4-1.35,6.67,1.4,1,3.38,1.3,5,2,1.18-2.06,2.29-5.23,1.7-8-1-.73-2.51-.84-3.36-1.7a15.46,15.46,0,0,0,1-6.66c-1.46-.64-2.44-1.8-4.69-1.68-.39,2.55-2.53,5-1.66,7.68"/><path class="cls-1" d="M379.49,511.38c1.37,1.53,2.53,3.25,4.67,4,.55-2.89,3.09-3.81,3.68-6.68-1.84-1.37-3.33-3.13-5.34-4.32-.84,2.48-2.9,3.75-3,7"/><path class="cls-1" d="M80.62,525.72c3.68-2.8,9.8-7.89,6.35-14.67-3.24,3.81-9.09,6.83-6.35,14.67"/><path class="cls-1" d="M548.55,511.71c-3.22,3.71-7.86,5.91-10.34,10.35,4.58-1.24,9.11-5.34,11.33-10-.41,0-.44-.42-1-.35"/><path class="cls-1" d="M78.29,485.69c-2.47-1.15-6.52,1.23-7.34-1.66,2.44-7.54,12.8-12.23,14-23,1-9.1-.53-20.18-10.66-17.33.24,3.19-.65,10.4,2,12.33.19-1.56-.58-4.13.66-4.66,2.71-.16,5.85.77,6.33,3.34,1.4,7-8,11.33-12,17.67-2.8,4.38-5.55,19.25,2,21,2.2.5,3-1.08,5.66,0a1.88,1.88,0,0,0,1,1c.45,14.05-18.52,20.85-25.69,10.31-5.79-8.53-.82-21.82,1.34-29.65-7,12.29-8.44,37.14,5.68,42,10.25,3.56,19.42-5.26,20.35-14,.55-5.31.55-13.76-3.34-17.37"/><path class="cls-1" d="M236.72,494.7c-3.49,4.73-9,8.62-14,11.69.49-12.64,8.51-17.72,17.34-22,.84,4.09-1.43,7.79-3.33,10.32m5-18.67c-4.84.53-6.46,6-10,6.66.71-18.57-6.55-31.54-14.33-42.69h-1c-1,7.3.27,17,.69,26,.26,5.9-1,11.86,2,15.67.25-9.35-1.23-21.66-.66-31.37,6,9.4,12.28,19.42,11,35-5.76,5.19-6.89,13-8.33,22.35-6.6,4.65-15.8,6.68-25.36,8.36,7.68,2.3,16.78,1.3,25.36.31.25,3.52-.76,8.33,1.32,10V515.72c11.64-7.63,22.07-19.94,19.36-39.69"/></svg>