<svg xmlns="http://www.w3.org/2000/svg" viewBox="0 0 117.26 95.32"><defs><style>.cls-1{isolation:isolate;}.cls-2{fill:#f0f0ef;}</style></defs><title>Ресурс 1</title><g id="Слой_2" data-name="Слой 2"><g id="Слой_1-2" data-name="Слой 1"><g class="cls-1"><path class="cls-2" d="M6.43,83.22Q0,73,0,58.25a61.9,61.9,0,0,1,9.65-34Q19.29,9.09,39,0l3.4,6.81A51.07,51.07,0,0,0,22.13,22.32q-8.52,10.59-8.51,21.56a25.35,25.35,0,0,0,1.13,7.94,21.59,21.59,0,0,1,14-4.92A24.11,24.11,0,0,1,46,53.52q7,6.63,7,17.59A23.91,23.91,0,0,1,28.75,95.32Q14,95.32,6.43,83.22Zm64.3,0Q64.29,73,64.3,58.25a62,62,0,0,1,9.65-34Q83.6,9.09,103.26,0l3.41,6.81A51.1,51.1,0,0,0,86.43,22.32q-8.5,10.59-8.51,21.56a25,25,0,0,0,1.14,7.94,21.57,21.57,0,0,1,14-4.92,24.11,24.11,0,0,1,17.21,6.62q7,6.63,7,17.59A23.91,23.91,0,0,1,93.05,95.32Q78.31,95.32,70.73,83.22Z"/></g></g></g></svg>