<svg 
 xmlns="http://www.w3.org/2000/svg"
 xmlns:xlink="http://www.w3.org/1999/xlink"
 width="27px" height="27px">
<path fill-rule="evenodd"  fill="rgb(96, 45, 145)"
 d="M26.088,11.613 C25.699,11.846 25.305,12.079 24.914,12.305 C24.997,13.097 24.997,13.899 24.914,14.694 C25.309,14.923 25.703,15.156 26.088,15.387 C26.882,15.863 27.213,16.870 26.858,17.728 L25.935,19.955 C25.646,20.653 24.943,21.122 24.185,21.122 C24.185,21.122 24.185,21.122 24.185,21.122 C24.033,21.122 23.882,21.103 23.735,21.067 C23.297,20.957 22.854,20.843 22.415,20.726 C21.913,21.346 21.346,21.914 20.726,22.416 C20.848,22.872 20.962,23.315 21.067,23.736 C21.291,24.634 20.813,25.579 19.956,25.935 L17.728,26.857 C17.500,26.952 17.259,27.000 17.011,27.000 C16.347,27.000 15.725,26.651 15.387,26.088 C15.160,25.710 14.927,25.316 14.695,24.914 C14.300,24.955 13.899,24.977 13.502,24.977 C13.104,24.977 12.702,24.955 12.306,24.914 C12.070,25.322 11.837,25.716 11.613,26.088 C11.275,26.651 10.653,27.000 9.989,27.000 C9.741,27.000 9.500,26.952 9.272,26.857 L7.045,25.935 C6.187,25.580 5.709,24.634 5.933,23.735 C6.045,23.286 6.160,22.843 6.274,22.415 C5.654,21.913 5.087,21.346 4.584,20.726 C4.128,20.848 3.685,20.962 3.265,21.067 C3.118,21.103 2.967,21.122 2.816,21.122 C2.058,21.122 1.354,20.653 1.065,19.955 L0.143,17.728 C-0.213,16.870 0.118,15.864 0.912,15.387 C1.296,15.156 1.691,14.923 2.086,14.694 C2.003,13.901 2.003,13.099 2.087,12.305 C1.701,12.082 1.306,11.849 0.912,11.613 C0.118,11.136 -0.213,10.129 0.143,9.272 L1.065,7.044 C1.354,6.346 2.058,5.877 2.815,5.877 C2.967,5.877 3.118,5.896 3.264,5.933 C3.692,6.039 4.135,6.154 4.585,6.273 C5.087,5.653 5.654,5.086 6.274,4.584 C6.153,4.131 6.039,3.688 5.933,3.264 C5.709,2.365 6.187,1.420 7.044,1.065 L9.272,0.142 C9.500,0.047 9.741,-0.000 9.989,-0.000 C10.652,-0.000 11.275,0.349 11.613,0.911 C11.856,1.315 12.088,1.710 12.305,2.085 C12.700,2.044 13.100,2.023 13.497,2.023 C13.895,2.023 14.297,2.044 14.694,2.086 C14.929,1.680 15.162,1.286 15.387,0.911 C15.725,0.349 16.347,-0.000 17.011,-0.000 C17.259,-0.000 17.500,0.047 17.728,0.142 L19.955,1.065 C20.813,1.420 21.290,2.365 21.067,3.264 C20.956,3.710 20.841,4.153 20.726,4.584 C21.346,5.086 21.913,5.653 22.415,6.273 C22.854,6.156 23.297,6.042 23.735,5.933 C23.882,5.896 24.033,5.878 24.184,5.878 C24.942,5.878 25.646,6.346 25.935,7.044 L26.805,9.144 L26.858,9.272 C27.212,10.129 26.882,11.136 26.088,11.613 ZM23.999,8.144 C23.606,8.243 23.199,8.349 22.789,8.460 C22.626,8.504 22.460,8.526 22.293,8.526 C21.708,8.526 21.167,8.261 20.808,7.800 C20.340,7.200 19.799,6.660 19.200,6.193 C18.600,5.726 18.340,4.948 18.539,4.211 C18.643,3.824 18.750,3.417 18.855,3.000 L17.137,2.288 C16.934,2.628 16.722,2.991 16.504,3.368 C16.168,3.954 15.541,4.317 14.870,4.317 C14.792,4.317 14.713,4.312 14.636,4.303 C14.259,4.256 13.876,4.232 13.497,4.232 C13.119,4.232 12.737,4.256 12.362,4.302 C12.285,4.312 12.206,4.317 12.129,4.317 C11.458,4.317 10.832,3.953 10.495,3.368 C10.285,3.003 10.072,2.640 9.863,2.288 L8.144,2.999 C8.251,3.420 8.357,3.827 8.461,4.211 C8.659,4.947 8.400,5.725 7.801,6.192 C7.202,6.658 6.661,7.199 6.194,7.800 C5.834,8.261 5.292,8.526 4.707,8.526 C4.540,8.526 4.374,8.504 4.212,8.461 C3.803,8.350 3.396,8.244 3.001,8.144 L2.289,9.862 C2.643,10.074 3.006,10.286 3.369,10.495 C4.031,10.876 4.397,11.609 4.303,12.364 C4.209,13.118 4.209,13.883 4.303,14.637 C4.397,15.390 4.030,16.123 3.369,16.504 C2.992,16.722 2.629,16.934 2.289,17.137 L3.001,18.855 C3.392,18.756 3.798,18.650 4.212,18.539 C4.374,18.495 4.540,18.473 4.707,18.473 C5.292,18.473 5.833,18.738 6.192,19.199 C6.658,19.798 7.199,20.338 7.800,20.806 C8.400,21.273 8.660,22.051 8.461,22.788 C8.352,23.192 8.246,23.598 8.145,23.999 L9.863,24.711 C10.075,24.355 10.287,23.993 10.496,23.630 C10.832,23.046 11.458,22.682 12.130,22.682 C12.208,22.682 12.286,22.687 12.364,22.697 C12.740,22.744 13.123,22.767 13.502,22.767 C13.881,22.767 14.263,22.744 14.638,22.697 C14.715,22.688 14.793,22.683 14.871,22.683 C15.542,22.683 16.168,23.046 16.505,23.631 C16.711,23.989 16.923,24.352 17.137,24.711 L18.855,23.999 C18.757,23.608 18.650,23.202 18.539,22.788 C18.341,22.052 18.600,21.275 19.199,20.808 C19.798,20.342 20.339,19.801 20.807,19.200 C21.165,18.738 21.707,18.473 22.292,18.473 C22.459,18.473 22.626,18.495 22.788,18.539 C23.175,18.643 23.582,18.749 23.999,18.855 L24.711,17.137 C24.342,16.917 23.979,16.704 23.631,16.504 C22.969,16.123 22.603,15.390 22.696,14.635 C22.790,13.881 22.791,13.116 22.697,12.362 C22.603,11.608 22.970,10.875 23.631,10.495 C24.000,10.282 24.363,10.069 24.711,9.862 L23.999,8.144 ZM15.922,19.347 C15.145,19.668 14.330,19.831 13.500,19.831 C12.670,19.831 11.855,19.668 11.078,19.347 C9.516,18.700 8.300,17.483 7.653,15.922 C6.318,12.697 7.854,8.988 11.078,7.653 C11.850,7.333 12.662,7.171 13.492,7.171 C16.066,7.171 18.364,8.704 19.347,11.078 C20.682,14.302 19.145,18.011 15.922,19.347 ZM17.306,11.923 C16.666,10.379 15.170,9.380 13.495,9.380 C12.954,9.380 12.426,9.486 11.924,9.694 C10.909,10.114 10.118,10.906 9.696,11.924 C9.275,12.942 9.274,14.061 9.694,15.076 C10.115,16.093 10.907,16.884 11.924,17.305 C12.430,17.515 12.961,17.621 13.500,17.621 C14.040,17.621 14.571,17.515 15.076,17.305 C16.091,16.885 16.882,16.093 17.304,15.075 C17.725,14.057 17.726,12.938 17.306,11.923 Z"/>
</svg>