<svg xmlns="http://www.w3.org/2000/svg" viewBox="0 0 201.32 157.49">
    <defs>
        <style>
            .cls-1 {
                isolation: isolate;
            }

            .cls-2 {
                fill: #e93e1b;
                mix-blend-mode: hard-light;
                animation-name: opacity;
                animation-iteration-count: infinite;
                opacity: 0;
            }
            @keyframes opacity {
                50% {
                    opacity: 1;
                }
            }

            .cls-2:nth-child(1) {
                        animation-duration: 3s;
            }
            .cls-2:nth-child(2) {
                        animation-duration: 6s;
                        animation-delay: .9s;
            }
            .cls-2:nth-child(3) {
                        animation-duration: 5s;
            }
            .cls-2:nth-child(4) {
                        animation-duration: 4s;
                        animation-delay: 2s;
            }
            .cls-2:nth-child(5) {
                        animation-duration: 7.51s;
                        animation-delay: .3s;
            }
            .cls-2:nth-child(6) {
                        animation-duration: 5.58s;
            }
            .cls-2:nth-child(7) {
                        animation-duration: 3.52s;
            }
            .cls-2:nth-child(8) {
                        animation-duration: 3.35s;
            }
            .cls-2:nth-child(9) {
                        animation-duration: 5.49s;
            }
            .cls-2:nth-child(10) {
                        animation-duration: 4.52s;
            }
            .cls-2:nth-child(11) {
                        animation-duration: 5.64s;
            }
            .cls-2:nth-child(12) {
                        animation-duration: 5.79s;
                        animation-delay: 1s;
            }
            .cls-2:nth-child(13) {
                        animation-duration: 4.97s;
                        animation-delay: .2s;
            }
            .cls-2:nth-child(14) {
                        animation-duration: 4.14s;
            }
            .cls-2:nth-child(15) {
                        animation-duration: 7.52s;
            }
            .cls-2:nth-child(16) {
                        animation-duration: 3.39s;
            }
            .cls-2:nth-child(17) {
                        animation-duration: 3.24s;
                        animation-delay: 1s;
            }
            .cls-2:nth-child(18) {
                        animation-duration: 5.67s;
            }
            .cls-2:nth-child(19) {
                        animation-duration: 7.73s;
            }
            .cls-2:nth-child(20) {
                        animation-duration: 4.34s;
                        animation-delay: 2.4s;
            }
            .cls-2:nth-child(21) {
                        animation-duration: 3.65s;
            }
            .cls-2:nth-child(22) {
                        animation-duration: 4.17s;
            }
            .cls-2:nth-child(23) {
                        animation-duration: 5.91s;
            }
            .cls-2:nth-child(24) {
                        animation-duration: 3.23s;
                        animation-delay: 1.2s;
            }
            .cls-2:nth-child(25) {
                        animation-duration: 3.64s;
            }
            .cls-2:nth-child(26) {
                        animation-duration: 4.65s;
            }
            .cls-2:nth-child(27) {
                        animation-duration: 4.02s;
                        animation-delay: 1.6s;
            }
            .cls-2:nth-child(28) {
                        animation-duration: 3.08s;
            }
            .cls-2:nth-child(29) {
                        animation-duration: 7.04s;
            }
            .cls-2:nth-child(30) {
                        animation-duration: 5.11s;
            }
            .cls-2:nth-child(31) {
                        animation-duration: 3.99s;
            }
            .cls-2:nth-child(32) {
                        animation-duration: 3.15s;
                        animation-delay: 1.1s;
            }
            .cls-2:nth-child(33) {
                        animation-duration: 6.91s;
            }
            .cls-2:nth-child(34) {
                        animation-duration: 5.23s;
                        animation-delay: .6s;
            }
            .cls-2:nth-child(35) {
                        animation-duration: 5.64s;
            }
            .cls-2:nth-child(36) {
                        animation-duration: 4.65s;
            }
            .cls-2:nth-child(37) {
                        animation-duration: 4.98s;
                        animation-delay: .7s;
            }
            .cls-2:nth-child(38) {
                        animation-duration: 3.23s;
            }
            .cls-2:nth-child(39) {
                        animation-duration: 6.04s;
            }
            .cls-2:nth-child(40) {
                        animation-duration: 7.11s;
            }
            .cls-2:nth-child(41) {
                        animation-duration: 5.99s;
                        animation-delay: .4s;
            }
            .cls-2:nth-child(42) {
                        animation-duration: 6.34s;
            }
            .cls-2:nth-child(43) {
                        animation-duration: 5.91s;
            }
            .cls-2:nth-child(44) {
                        animation-duration: 7.83s;
            }
            .cls-2:nth-child(45) {
                        animation-duration: 7.23s;
            }
            .cls-2:nth-child(46) {
                        animation-duration: 7.01s;
            }
            .cls-2:nth-child(47) {
                        animation-duration: 7s;
                        animation-delay: .8s;
            }
            .cls-2:nth-child(48) {
                        animation-duration: 8s;
            }
            .cls-2:nth-child(49) {
                        animation-duration: 6.85s;
            }
            .cls-2:nth-child(50) {
                        animation-duration: 7.45s;
                        animation-delay: 1.1s;
            }
            .cls-2:nth-child(51) {
                        animation-duration: 5.99s;
            }
            .cls-2:nth-child(52) {
                        animation-duration: 6.34s;
            }
            .cls-2:nth-child(53) {
                        animation-duration: 7.23s;
                        animation-delay: .9s;
            }
            .cls-2:nth-child(54) {
                        animation-duration: 4.23s;
            }
            .cls-2:nth-child(55) {
                        animation-duration: 3.91s;
            }
            .cls-2:nth-child(56) {
                        animation-duration: 5.99s;
            }
            .cls-2:nth-child(57) {
                        animation-duration: 3.65s;
                        animation-delay: .8s;
            }
            .cls-2:nth-child(58) {
                        animation-duration: 4.05s;
            }
            .cls-2:nth-child(59) {
                        animation-duration: 6.03s;
            }
            .cls-2:nth-child(60) {
                        animation-duration: 5.80s;
            }
            .cls-2:nth-child(61) {
                        animation-duration: 3.98s;
                        animation-delay: 1.3s;
            }
            .cls-2:nth-child(62) {
                        animation-duration: 4.34s;
            }
            .cls-2:nth-child(63) {
                        animation-duration: 5.34s;
            }
            .cls-2:nth-child(64) {
                        animation-duration: 6.74s;
            }
            .cls-2:nth-child(65) {
                        animation-duration: 7.34s;
            }
            .cls-2:nth-child(66) {
                        animation-duration: 5.46s;
                        animation-delay: 1.5s;
            }
            .cls-2:nth-child(67) {
                        animation-duration: 4.34s;
            }
            .cls-2:nth-child(68) {
                        animation-duration: 7.32s;
            }
            .cls-2:nth-child(69) {
                        animation-duration: 6.93s;
                        animation-delay: 1.1s;
            }
            .cls-2:nth-child(70) {
                        animation-duration: 7.80s;
            }
            .cls-2:nth-child(71) {
                        animation-duration: 5.23s;
                        animation-delay: .9s;
            }
            .cls-2:nth-child(72) {
                        animation-duration: 3.99s;
            }
            .cls-2:nth-child(73) {
                        animation-duration: 4.47s;
            }
            .cls-2:nth-child(74) {
                        animation-duration: 5.94s;
            }
            .cls-2:nth-child(75) {
                        animation-duration: 6.44s;
                        animation-delay: .9s;
            }
            .cls-2:nth-child(76) {
                        animation-duration: 5.55s;
            }
            .cls-2:nth-child(77) {
                        animation-duration: 4.44s;
            }
            .cls-2:nth-child(78) {
                        animation-duration: 7.77s;
                        animation-delay: .6s;
            }
            .cls-2:nth-child(79) {
                        animation-duration: 3.77s;
            }
            .cls-2:nth-child(80) {
                        animation-duration: 4.31s;
            }
        </style>
    </defs>
    <title>Ресурс 2</title>
    <g class="cls-1">
        <g id="Слой_2" data-name="Слой 2">
            <g id="Layer_1" data-name="Layer 1">
                <polygon class="cls-2" points="4.06 4.06 0 4.06 1.99 0 4.06 4.06" />
                <polygon class="cls-2" points="25.98 4.06 21.92 4.06 23.91 0 25.98 4.06" />
                <polygon class="cls-2" points="4.06 25.98 0 25.98 1.99 21.92 4.06 25.98" />
                <polygon class="cls-2" points="25.98 25.98 21.92 25.98 23.91 21.92 25.98 25.98" />
                <polygon class="cls-2" points="47.9 4.06 43.84 4.06 45.83 0 47.9 4.06" />
                <polygon class="cls-2" points="69.81 4.06 65.75 4.06 67.75 0 69.81 4.06" />
                <polygon class="cls-2" points="47.9 25.98 43.84 25.98 45.83 21.92 47.9 25.98" />
                <polygon class="cls-2" points="69.81 25.98 65.75 25.98 67.75 21.92 69.81 25.98" />
                <polygon class="cls-2" points="91.73 4.06 87.67 4.06 89.67 0 91.73 4.06" />
                <polygon class="cls-2" points="113.65 4.06 109.59 4.06 111.58 0 113.65 4.06" />
                <polygon class="cls-2" points="91.73 25.98 87.67 25.98 89.67 21.92 91.73 25.98" />
                <polygon class="cls-2" points="113.65 25.98 109.59 25.98 111.58 21.92 113.65 25.98" />
                <polygon class="cls-2" points="135.57 4.06 131.51 4.06 133.5 0 135.57 4.06" />
                <polygon class="cls-2" points="157.49 4.06 153.43 4.06 155.42 0 157.49 4.06" />
                <polygon class="cls-2" points="135.57 25.98 131.51 25.98 133.5 21.92 135.57 25.98" />
                <polygon class="cls-2" points="157.49 25.98 153.43 25.98 155.42 21.92 157.49 25.98" />
                <polygon class="cls-2" points="179.41 4.06 175.35 4.06 177.34 0 179.41 4.06" />
                <polygon class="cls-2" points="201.32 4.06 197.26 4.06 199.26 0 201.32 4.06" />
                <polygon class="cls-2" points="179.41 25.98 175.35 25.98 177.34 21.92 179.41 25.98" />
                <polygon class="cls-2" points="201.32 25.98 197.26 25.98 199.26 21.92 201.32 25.98" />
                <polygon class="cls-2" points="4.06 47.9 0 47.9 1.99 43.84 4.06 47.9" />
                <polygon class="cls-2" points="25.98 47.9 21.92 47.9 23.91 43.84 25.98 47.9" />
                <polygon class="cls-2" points="4.06 69.81 0 69.81 1.99 65.75 4.06 69.81" />
                <polygon class="cls-2" points="25.98 69.81 21.92 69.81 23.91 65.75 25.98 69.81" />
                <polygon class="cls-2" points="47.9 47.9 43.84 47.9 45.83 43.84 47.9 47.9" />
                <polygon class="cls-2" points="69.81 47.9 65.75 47.9 67.75 43.84 69.81 47.9" />
                <polygon class="cls-2" points="47.9 69.81 43.84 69.81 45.83 65.75 47.9 69.81" />
                <polygon class="cls-2" points="69.81 69.81 65.75 69.81 67.75 65.75 69.81 69.81" />
                <polygon class="cls-2" points="91.73 47.9 87.67 47.9 89.67 43.84 91.73 47.9" />
                <polygon class="cls-2" points="113.65 47.9 109.59 47.9 111.58 43.84 113.65 47.9" />
                <polygon class="cls-2" points="91.73 69.81 87.67 69.81 89.67 65.75 91.73 69.81" />
                <polygon class="cls-2" points="113.65 69.81 109.59 69.81 111.58 65.75 113.65 69.81" />
                <polygon class="cls-2" points="135.57 47.9 131.51 47.9 133.5 43.84 135.57 47.9" />
                <polygon class="cls-2" points="157.49 47.9 153.43 47.9 155.42 43.84 157.49 47.9" />
                <polygon class="cls-2" points="135.57 69.81 131.51 69.81 133.5 65.75 135.57 69.81" />
                <polygon class="cls-2" points="157.49 69.81 153.43 69.81 155.42 65.75 157.49 69.81" />
                <polygon class="cls-2" points="179.41 47.9 175.35 47.9 177.34 43.84 179.41 47.9" />
                <polygon class="cls-2" points="201.32 47.9 197.26 47.9 199.26 43.84 201.32 47.9" />
                <polygon class="cls-2" points="179.41 69.81 175.35 69.81 177.34 65.75 179.41 69.81" />
                <polygon class="cls-2" points="201.32 69.81 197.26 69.81 199.26 65.75 201.32 69.81" />
                <polygon class="cls-2" points="4.06 91.73 0 91.73 1.99 87.67 4.06 91.73" />
                <polygon class="cls-2" points="25.98 91.73 21.92 91.73 23.91 87.67 25.98 91.73" />
                <polygon class="cls-2" points="4.06 113.65 0 113.65 1.99 109.59 4.06 113.65" />
                <polygon class="cls-2" points="25.98 113.65 21.92 113.65 23.91 109.59 25.98 113.65" />
                <polygon class="cls-2" points="47.9 91.73 43.84 91.73 45.83 87.67 47.9 91.73" />
                <polygon class="cls-2" points="69.81 91.73 65.75 91.73 67.75 87.67 69.81 91.73" />
                <polygon class="cls-2" points="47.9 113.65 43.84 113.65 45.83 109.59 47.9 113.65" />
                <polygon class="cls-2" points="69.81 113.65 65.75 113.65 67.75 109.59 69.81 113.65" />
                <polygon class="cls-2" points="91.73 91.73 87.67 91.73 89.67 87.67 91.73 91.73" />
                <polygon class="cls-2" points="113.65 91.73 109.59 91.73 111.58 87.67 113.65 91.73" />
                <polygon class="cls-2" points="91.73 113.65 87.67 113.65 89.67 109.59 91.73 113.65" />
                <polygon class="cls-2" points="113.65 113.65 109.59 113.65 111.58 109.59 113.65 113.65" />
                <polygon class="cls-2" points="135.57 91.73 131.51 91.73 133.5 87.67 135.57 91.73" />
                <polygon class="cls-2" points="157.49 91.73 153.43 91.73 155.42 87.67 157.49 91.73" />
                <polygon class="cls-2" points="135.57 113.65 131.51 113.65 133.5 109.59 135.57 113.65" />
                <polygon class="cls-2" points="157.49 113.65 153.43 113.65 155.42 109.59 157.49 113.65" />
                <polygon class="cls-2" points="179.41 91.73 175.35 91.73 177.34 87.67 179.41 91.73" />
                <polygon class="cls-2" points="201.32 91.73 197.26 91.73 199.26 87.67 201.32 91.73" />
                <polygon class="cls-2" points="179.41 113.65 175.35 113.65 177.34 109.59 179.41 113.65" />
                <polygon class="cls-2" points="201.32 113.65 197.26 113.65 199.26 109.59 201.32 113.65" />
                <polygon class="cls-2" points="4.06 135.57 0 135.57 1.99 131.51 4.06 135.57" />
                <polygon class="cls-2" points="25.98 135.57 21.92 135.57 23.91 131.51 25.98 135.57" />
                <polygon class="cls-2" points="4.06 157.49 0 157.49 1.99 153.43 4.06 157.49" />
                <polygon class="cls-2" points="25.98 157.49 21.92 157.49 23.91 153.43 25.98 157.49" />
                <polygon class="cls-2" points="47.9 135.57 43.84 135.57 45.83 131.51 47.9 135.57" />
                <polygon class="cls-2" points="69.81 135.57 65.75 135.57 67.75 131.51 69.81 135.57" />
                <polygon class="cls-2" points="47.9 157.49 43.84 157.49 45.83 153.43 47.9 157.49" />
                <polygon class="cls-2" points="69.81 157.49 65.75 157.49 67.75 153.43 69.81 157.49" />
                <polygon class="cls-2" points="91.73 135.57 87.67 135.57 89.67 131.51 91.73 135.57" />
                <polygon class="cls-2" points="113.65 135.57 109.59 135.57 111.58 131.51 113.65 135.57" />
                <polygon class="cls-2" points="91.73 157.49 87.67 157.49 89.67 153.43 91.73 157.49" />
                <polygon class="cls-2" points="113.65 157.49 109.59 157.49 111.58 153.43 113.65 157.49" />
                <polygon class="cls-2" points="135.57 135.57 131.51 135.57 133.5 131.51 135.57 135.57" />
                <polygon class="cls-2" points="157.49 135.57 153.43 135.57 155.42 131.51 157.49 135.57" />
                <polygon class="cls-2" points="135.57 157.49 131.51 157.49 133.5 153.43 135.57 157.49" />
                <polygon class="cls-2" points="157.49 157.49 153.43 157.49 155.42 153.43 157.49 157.49" />
                <polygon class="cls-2" points="179.41 135.57 175.35 135.57 177.34 131.51 179.41 135.57" />
                <polygon class="cls-2" points="201.32 135.57 197.26 135.57 199.26 131.51 201.32 135.57" />
                <polygon class="cls-2" points="179.41 157.49 175.35 157.49 177.34 153.43 179.41 157.49" />
                <polygon class="cls-2" points="201.32 157.49 197.26 157.49 199.26 153.43 201.32 157.49" />
            </g>
        </g>
    </g>
</svg>