<svg xmlns="http://www.w3.org/2000/svg" viewBox="0 0 201.32 157.49">
    <defs>
        <style>
        .cls-1 {
            isolation: isolate;
        }

        .cls-2 {
            fill: #e93e1b;
            mix-blend-mode: hard-light;
        }
        </style>
    </defs>
    <title>Ресурс 2</title>
    <g class="cls-1">
        <g id="Слой_2" data-name="Слой 2">
            <g id="Layer_1" data-name="Layer 1">
                <polygon class="cls-2" points="4.06 4.06 0 4.06 1.99 0 4.06 4.06" />
                <polygon class="cls-2" points="25.98 4.06 21.92 4.06 23.91 0 25.98 4.06" />
                <polygon class="cls-2" points="4.06 25.98 0 25.98 1.99 21.92 4.06 25.98" />
                <polygon class="cls-2" points="25.98 25.98 21.92 25.98 23.91 21.92 25.98 25.98" />
                <polygon class="cls-2" points="47.9 4.06 43.84 4.06 45.83 0 47.9 4.06" />
                <polygon class="cls-2" points="69.81 4.06 65.75 4.06 67.75 0 69.81 4.06" />
                <polygon class="cls-2" points="47.9 25.98 43.84 25.98 45.83 21.92 47.9 25.98" />
                <polygon class="cls-2" points="69.81 25.98 65.75 25.98 67.75 21.92 69.81 25.98" />
                <polygon class="cls-2" points="91.73 4.06 87.67 4.06 89.67 0 91.73 4.06" />
                <polygon class="cls-2" points="113.65 4.06 109.59 4.06 111.58 0 113.65 4.06" />
                <polygon class="cls-2" points="91.73 25.98 87.67 25.98 89.67 21.92 91.73 25.98" />
                <polygon class="cls-2" points="113.65 25.98 109.59 25.98 111.58 21.92 113.65 25.98" />
                <polygon class="cls-2" points="135.57 4.06 131.51 4.06 133.5 0 135.57 4.06" />
                <polygon class="cls-2" points="157.49 4.06 153.43 4.06 155.42 0 157.49 4.06" />
                <polygon class="cls-2" points="135.57 25.98 131.51 25.98 133.5 21.92 135.57 25.98" />
                <polygon class="cls-2" points="157.49 25.98 153.43 25.98 155.42 21.92 157.49 25.98" />
                <polygon class="cls-2" points="179.41 4.06 175.35 4.06 177.34 0 179.41 4.06" />
                <polygon class="cls-2" points="201.32 4.06 197.26 4.06 199.26 0 201.32 4.06" />
                <polygon class="cls-2" points="179.41 25.98 175.35 25.98 177.34 21.92 179.41 25.98" />
                <polygon class="cls-2" points="201.32 25.98 197.26 25.98 199.26 21.92 201.32 25.98" />
                <polygon class="cls-2" points="4.06 47.9 0 47.9 1.99 43.84 4.06 47.9" />
                <polygon class="cls-2" points="25.98 47.9 21.92 47.9 23.91 43.84 25.98 47.9" />
                <polygon class="cls-2" points="4.06 69.81 0 69.81 1.99 65.75 4.06 69.81" />
                <polygon class="cls-2" points="25.98 69.81 21.92 69.81 23.91 65.75 25.98 69.81" />
                <polygon class="cls-2" points="47.9 47.9 43.84 47.9 45.83 43.84 47.9 47.9" />
                <polygon class="cls-2" points="69.81 47.9 65.75 47.9 67.75 43.84 69.81 47.9" />
                <polygon class="cls-2" points="47.9 69.81 43.84 69.81 45.83 65.75 47.9 69.81" />
                <polygon class="cls-2" points="69.81 69.81 65.75 69.81 67.75 65.75 69.81 69.81" />
                <polygon class="cls-2" points="91.73 47.9 87.67 47.9 89.67 43.84 91.73 47.9" />
                <polygon class="cls-2" points="113.65 47.9 109.59 47.9 111.58 43.84 113.65 47.9" />
                <polygon class="cls-2" points="91.73 69.81 87.67 69.81 89.67 65.75 91.73 69.81" />
                <polygon class="cls-2" points="113.65 69.81 109.59 69.81 111.58 65.75 113.65 69.81" />
                <polygon class="cls-2" points="135.57 47.9 131.51 47.9 133.5 43.84 135.57 47.9" />
                <polygon class="cls-2" points="157.49 47.9 153.43 47.9 155.42 43.84 157.49 47.9" />
                <polygon class="cls-2" points="135.57 69.81 131.51 69.81 133.5 65.75 135.57 69.81" />
                <polygon class="cls-2" points="157.49 69.81 153.43 69.81 155.42 65.75 157.49 69.81" />
                <polygon class="cls-2" points="179.41 47.9 175.35 47.9 177.34 43.84 179.41 47.9" />
                <polygon class="cls-2" points="201.32 47.9 197.26 47.9 199.26 43.84 201.32 47.9" />
                <polygon class="cls-2" points="179.41 69.81 175.35 69.81 177.34 65.75 179.41 69.81" />
                <polygon class="cls-2" points="201.32 69.81 197.26 69.81 199.26 65.75 201.32 69.81" />
                <polygon class="cls-2" points="4.06 91.73 0 91.73 1.99 87.67 4.06 91.73" />
                <polygon class="cls-2" points="25.98 91.73 21.92 91.73 23.91 87.67 25.98 91.73" />
                <polygon class="cls-2" points="4.06 113.65 0 113.65 1.99 109.59 4.06 113.65" />
                <polygon class="cls-2" points="25.98 113.65 21.92 113.65 23.91 109.59 25.98 113.65" />
                <polygon class="cls-2" points="47.9 91.73 43.84 91.73 45.83 87.67 47.9 91.73" />
                <polygon class="cls-2" points="69.81 91.73 65.75 91.73 67.75 87.67 69.81 91.73" />
                <polygon class="cls-2" points="47.9 113.65 43.84 113.65 45.83 109.59 47.9 113.65" />
                <polygon class="cls-2" points="69.81 113.65 65.75 113.65 67.75 109.59 69.81 113.65" />
                <polygon class="cls-2" points="91.73 91.73 87.67 91.73 89.67 87.67 91.73 91.73" />
                <polygon class="cls-2" points="113.65 91.73 109.59 91.73 111.58 87.67 113.65 91.73" />
                <polygon class="cls-2" points="91.73 113.65 87.67 113.65 89.67 109.59 91.73 113.65" />
                <polygon class="cls-2" points="113.65 113.65 109.59 113.65 111.58 109.59 113.65 113.65" />
                <polygon class="cls-2" points="135.57 91.73 131.51 91.73 133.5 87.67 135.57 91.73" />
                <polygon class="cls-2" points="157.49 91.73 153.43 91.73 155.42 87.67 157.49 91.73" />
                <polygon class="cls-2" points="135.57 113.65 131.51 113.65 133.5 109.59 135.57 113.65" />
                <polygon class="cls-2" points="157.49 113.65 153.43 113.65 155.42 109.59 157.49 113.65" />
                <polygon class="cls-2" points="179.41 91.73 175.35 91.73 177.34 87.67 179.41 91.73" />
                <polygon class="cls-2" points="201.32 91.73 197.26 91.73 199.26 87.67 201.32 91.73" />
                <polygon class="cls-2" points="179.41 113.65 175.35 113.65 177.34 109.59 179.41 113.65" />
                <polygon class="cls-2" points="201.32 113.65 197.26 113.65 199.26 109.59 201.32 113.65" />
                <polygon class="cls-2" points="4.06 135.57 0 135.57 1.99 131.51 4.06 135.57" />
                <polygon class="cls-2" points="25.98 135.57 21.92 135.57 23.91 131.51 25.98 135.57" />
                <polygon class="cls-2" points="4.06 157.49 0 157.49 1.99 153.43 4.06 157.49" />
                <polygon class="cls-2" points="25.98 157.49 21.92 157.49 23.91 153.43 25.98 157.49" />
                <polygon class="cls-2" points="47.9 135.57 43.84 135.57 45.83 131.51 47.9 135.57" />
                <polygon class="cls-2" points="69.81 135.57 65.75 135.57 67.75 131.51 69.81 135.57" />
                <polygon class="cls-2" points="47.9 157.49 43.84 157.49 45.83 153.43 47.9 157.49" />
                <polygon class="cls-2" points="69.81 157.49 65.75 157.49 67.75 153.43 69.81 157.49" />
                <polygon class="cls-2" points="91.73 135.57 87.67 135.57 89.67 131.51 91.73 135.57" />
                <polygon class="cls-2" points="113.65 135.57 109.59 135.57 111.58 131.51 113.65 135.57" />
                <polygon class="cls-2" points="91.73 157.49 87.67 157.49 89.67 153.43 91.73 157.49" />
                <polygon class="cls-2" points="113.65 157.49 109.59 157.49 111.58 153.43 113.65 157.49" />
                <polygon class="cls-2" points="135.57 135.57 131.51 135.57 133.5 131.51 135.57 135.57" />
                <polygon class="cls-2" points="157.49 135.57 153.43 135.57 155.42 131.51 157.49 135.57" />
                <polygon class="cls-2" points="135.57 157.49 131.51 157.49 133.5 153.43 135.57 157.49" />
                <polygon class="cls-2" points="157.49 157.49 153.43 157.49 155.42 153.43 157.49 157.49" />
                <polygon class="cls-2" points="179.41 135.57 175.35 135.57 177.34 131.51 179.41 135.57" />
                <polygon class="cls-2" points="201.32 135.57 197.26 135.57 199.26 131.51 201.32 135.57" />
                <polygon class="cls-2" points="179.41 157.49 175.35 157.49 177.34 153.43 179.41 157.49" />
                <polygon class="cls-2" points="201.32 157.49 197.26 157.49 199.26 153.43 201.32 157.49" />
            </g>
        </g>
    </g>
</svg>