<svg xmlns="http://www.w3.org/2000/svg" viewBox="0 0 258.65 141.74"><defs><style>.cls-1{fill:#56308d;}</style></defs><title>Ресурс 1</title><g id="Слой_2" data-name="Слой 2"><g id="Layer_1" data-name="Layer 1"><path class="cls-1" d="M258,101.57l-54.17-92c-3.42-6.22-9.25-9.7-15.94-9.6a18,18,0,0,0-15.65,9.56L147,52.91l-19-32.44c-4-7.36-10.58-11.57-18.12-11.57h-.11A21.26,21.26,0,0,0,91.11,20.43l-21,35.86L59.36,38c-2.81-4.37-6.66-6.79-10.54-6.63-3.73.15-7,2.54-9.23,6.69L2.51,101.47c-3,5.29-3.33,11-.94,15a8.31,8.31,0,0,0,7.5,4.13c3.73-.09,11.19-2.51,19.32-17.63l22.33-39c1.6-2.89,3.75-4.56,5.9-4.59S61,61,62.71,64l1.47,2.56-20.44,35c-1.13,2.19-2.45,5.36-.78,7.61,1.09,1.46,3.1,2,6,2,4,0,9.61-1.07,16.93-2.46,5.92-1.12,13-2.45,20.65-3.45,5.09,7.19,10.34,11.08,15.65,11.57l10.39,17.65c3,4.7,6.75,7.28,10.62,7.28h.22c2.66-.07,6.55-1.4,9.92-7.33l15.39-26.11.29,0c16.75,2.87,24.92,4.09,27.48.32,1.74-2.56-.39-6.07-1.1-7.24L164.13,82.19l27.5-46.66.05-.1c1.68-3.39,4.17-5.42,6.82-5.57,2.88-.15,5.8,1.87,8.23,5.67l39.51,67.39c3.25,6.36,7.25,7.24,9.68,6.06S259.38,104.49,258,101.57ZM93.8,21.92A18.21,18.21,0,0,1,109.69,12h.1c6.37,0,12,3.63,15.44,10l19.94,34L118.79,101.1c-3.06-.23-6.12-.38-9.17-.42-4.44-.07-8.82.11-13.08.43L71.94,59.33Zm53.37,83c-7.56-1.29-16.17-2.7-25-3.52L147,59l13.61,23.19Zm-59.46-3.45-20-34.92,2.44-4.17,23,39c-1.73.16-3.43.35-5.11.55C87.93,101.78,87.82,101.63,87.71,101.46Zm-22.33-39c-2.31-4-5.4-6.15-8.71-6.15h-.09c-3.33,0-6.37,2.22-8.54,6.15L25.69,101.49C20.36,111.42,14.12,117.42,9,117.55a5.21,5.21,0,0,1-4.79-2.65c-1.43-2.37-1.92-6.75,1-11.9L42.27,39.51c1.71-3.19,4.08-5,6.68-5.11h.23c2.69,0,5.45,1.89,7.56,5.17L68.38,59.33,66,63.45Zm0,43.25c-9.09,1.72-18.49,3.5-19.91,1.6-.16-.23-.58-1.2,1-4.28L65.94,69.6l18.75,32.78C77.51,103.37,70.93,104.61,65.34,105.67Zm24.71-.85c1.59-.18,3.19-.34,4.82-.48l5.23,8.88C96.79,112.1,93.42,109.28,90.05,104.82Zm8.24-.74c3.7-.25,7.48-.38,11.29-.33q3.65.06,7.31.3c-4.25,6.16-8.58,9.43-12.9,9.71Zm32.41,28.79c-2.12,3.72-4.65,5.72-7.34,5.79s-5.72-2-8.13-5.81l-9.54-16.21c5.11-1,10-5.08,14.72-12.32,8.79.75,17.44,2.13,25.09,3.43ZM172.77,103v0c1.69,2.77,1.34,3.7,1.19,3.92-1.52,2.23-13.06.32-23.55-1.47l11.92-20.24Zm81.8,3.21c-1.23.59-3.51-.62-5.63-4.77L209.35,33.92c-3.08-4.82-7-7.36-11-7.13-3.78.2-7.19,2.84-9.38,7.22l-26.6,45.15L148.73,56,175,11a14.92,14.92,0,0,1,13-7.95c5.5-.11,10.33,2.82,13.2,8l54.08,91.81C255.92,104.43,255.43,105.79,254.57,106.21Z"/></g></g></svg>