<svg 
 xmlns="http://www.w3.org/2000/svg"
 xmlns:xlink="http://www.w3.org/1999/xlink"
 width="28px" height="28px">
<path fill-rule="evenodd"  fill="rgb(96, 45, 145)"
 d="M24.690,24.693 C22.561,26.825 19.729,28.000 16.716,28.000 C15.230,28.000 13.779,27.711 12.404,27.140 C8.176,25.386 5.444,21.292 5.444,16.710 C5.447,14.050 6.364,11.532 8.042,9.511 L6.662,8.129 L3.490,8.129 C3.209,8.129 2.944,8.019 2.746,7.820 L0.341,5.412 C0.038,5.109 -0.051,4.658 0.113,4.263 C0.276,3.868 0.658,3.613 1.085,3.613 L3.640,3.613 L3.640,1.054 C3.640,0.626 3.895,0.244 4.290,0.080 C4.418,0.027 4.554,-0.000 4.692,-0.000 C4.973,-0.000 5.238,0.109 5.436,0.309 L7.842,2.717 C8.040,2.916 8.150,3.181 8.150,3.462 L8.150,6.638 L9.530,8.021 C11.548,6.341 14.062,5.422 16.718,5.419 C21.294,5.419 25.383,8.155 27.134,12.389 C28.885,16.623 27.926,21.452 24.690,24.693 ZM23.202,10.216 C21.470,8.482 19.167,7.526 16.716,7.526 C15.508,7.526 14.328,7.762 13.209,8.226 C12.409,8.558 11.683,9.001 11.027,9.520 L13.392,11.889 C14.339,11.231 15.483,10.840 16.718,10.839 C19.098,10.839 21.224,12.261 22.134,14.463 C23.045,16.664 22.546,19.176 20.864,20.861 C19.756,21.970 18.284,22.580 16.717,22.580 C16.717,22.580 16.717,22.580 16.717,22.580 C15.944,22.580 15.190,22.430 14.475,22.133 C12.276,21.221 10.856,19.092 10.856,16.710 C10.857,15.472 11.248,14.327 11.904,13.379 L9.546,11.018 C8.289,12.605 7.548,14.586 7.548,16.710 C7.554,21.767 11.668,25.886 16.718,25.892 C20.440,25.892 23.766,23.667 25.190,20.223 C26.614,16.780 25.834,12.852 23.202,10.216 ZM12.960,16.709 C12.960,18.785 14.646,20.473 16.718,20.473 C18.244,20.473 19.607,19.561 20.190,18.149 C20.774,16.738 20.454,15.128 19.375,14.048 C18.666,13.337 17.722,12.946 16.717,12.946 C16.222,12.946 15.738,13.042 15.280,13.232 C15.153,13.285 15.035,13.351 14.917,13.416 L17.356,15.858 L15.868,17.348 L13.429,14.905 C13.132,15.447 12.960,16.061 12.960,16.709 Z"/>
</svg>