<svg 
 xmlns="http://www.w3.org/2000/svg"
 xmlns:xlink="http://www.w3.org/1999/xlink"
 width="27px" height="27px">
<path fill-rule="evenodd"  fill="rgb(96, 45, 145)"
 d="M22.834,14.519 L20.777,14.519 L20.777,9.351 C20.777,8.769 20.305,8.297 19.723,8.297 L14.555,8.297 L14.555,6.258 L19.723,6.258 C20.305,6.258 20.777,5.786 20.777,5.203 L20.777,1.055 C20.777,0.472 20.305,-0.000 19.723,-0.000 L13.500,-0.000 C12.917,-0.000 12.445,0.472 12.445,1.055 L12.445,8.297 L10.389,8.297 C8.091,8.297 6.223,10.166 6.223,12.463 L6.223,20.742 L5.203,20.742 C2.334,20.742 0.000,23.076 0.000,25.945 C0.000,26.528 0.472,27.000 1.055,27.000 C1.637,27.000 2.109,26.528 2.109,25.945 C2.109,24.239 3.497,22.851 5.203,22.851 L22.834,22.851 C23.582,22.851 24.283,22.653 24.891,22.306 L24.891,25.945 C24.891,26.528 25.363,27.000 25.945,27.000 C26.528,27.000 27.000,26.528 27.000,25.945 L27.000,18.685 C27.000,16.388 25.131,14.519 22.834,14.519 L22.834,14.519 ZM14.555,2.109 L18.668,2.109 L18.668,4.148 L14.555,4.148 L14.555,2.109 ZM10.389,10.406 L18.668,10.406 L18.668,14.519 L10.389,14.519 C9.255,14.519 8.332,13.597 8.332,12.463 C8.332,11.329 9.255,10.406 10.389,10.406 L10.389,10.406 ZM22.834,20.742 L8.332,20.742 L8.332,16.084 C8.939,16.430 9.641,16.629 10.389,16.629 L22.834,16.629 C23.968,16.629 24.891,17.551 24.891,18.685 C24.891,19.819 23.968,20.742 22.834,20.742 L22.834,20.742 Z"/>
</svg>