<svg xmlns="http://www.w3.org/2000/svg" viewBox="0 0 95.23 95.23"><defs><style>.cls-1{fill:#a6a8aa;}.cls-2{fill:#e6e6e7;}.cls-3{fill:#fff;}</style></defs><title>Ресурс 1</title><g id="Слой_2" data-name="Слой 2"><g id="Layer_1" data-name="Layer 1"><rect class="cls-1" x="21.16" y="31.74" width="10.58" height="5.29"/><rect class="cls-1" x="42.32" width="10.58" height="5.29"/><rect class="cls-1" x="31.74" y="5.29" width="10.58" height="5.29"/><rect class="cls-1" x="52.9" y="5.29" width="10.58" height="5.29"/><rect class="cls-1" x="21.16" y="10.58" width="10.58" height="5.29"/><rect class="cls-1" x="10.58" y="15.87" width="10.58" height="5.29"/><rect class="cls-1" x="10.58" y="26.45" width="10.58" height="5.29"/><rect class="cls-1" x="31.74" y="37.03" width="10.58" height="5.29"/><rect class="cls-1" x="63.49" y="10.58" width="10.58" height="5.29"/><rect class="cls-1" x="74.07" y="15.87" width="10.58" height="5.29"/><polygon class="cls-1" points="84.65 26.45 74.07 26.45 74.07 31.74 63.48 31.74 63.48 37.03 52.9 37.03 52.9 42.32 42.32 42.32 42.32 47.61 47.61 47.61 47.61 89.94 42.32 89.94 42.32 95.23 52.9 95.23 52.9 89.94 63.48 89.94 63.48 84.65 74.07 84.65 74.07 79.36 84.65 79.36 84.65 74.07 95.23 74.07 95.23 68.78 95.23 26.45 95.23 21.16 84.65 21.16 84.65 26.45"/><polygon class="cls-1" points="5.29 68.78 5.29 26.45 10.58 26.45 10.58 21.16 0 21.16 0 26.45 0 68.78 0 74.07 10.58 74.07 10.58 68.78 5.29 68.78"/><rect class="cls-1" x="10.58" y="74.07" width="10.58" height="5.29"/><rect class="cls-1" x="21.16" y="79.36" width="10.58" height="5.29"/><rect class="cls-1" x="31.74" y="84.65" width="10.58" height="5.29"/><polygon class="cls-2" points="10.58 21.16 21.16 21.16 21.16 15.87 31.74 15.87 31.74 10.58 42.32 10.58 42.32 5.29 52.9 5.29 52.9 10.58 63.48 10.58 63.48 15.87 74.07 15.87 74.07 21.16 84.65 21.16 84.65 26.45 74.07 26.45 74.07 31.74 63.48 31.74 63.48 37.03 52.9 37.03 52.9 42.32 42.32 42.32 42.32 37.03 31.74 37.03 31.74 31.74 21.16 31.74 21.16 26.45 10.58 26.45 10.58 21.16"/><polygon class="cls-3" points="5.29 26.45 10.58 26.45 10.58 31.74 21.16 31.74 21.16 37.03 31.74 37.03 31.74 42.32 42.32 42.32 42.32 47.61 47.61 47.61 47.61 89.94 42.32 89.94 42.32 84.65 31.74 84.65 31.74 79.36 21.16 79.36 21.16 74.07 10.58 74.07 10.58 68.78 5.29 68.78 5.29 26.45"/></g></g></svg>